<svg xmlns="http://www.w3.org/2000/svg" viewBox="0 0 926.87 194.16296">
  <defs>
    <clipPath id="a" clipPathUnits="userSpaceOnUse">
      <path d="M-879.35402 674.0364h1080v-1920h-1080Z"/>
    </clipPath>
    <clipPath id="b" clipPathUnits="userSpaceOnUse">
      <path d="M-364.66981 675.6106h1080v-1920h-1080Z"/>
    </clipPath>
    <clipPath id="c" clipPathUnits="userSpaceOnUse">
      <path d="M-421.91784 757.0958h1080v-1920h-1080Z"/>
    </clipPath>
    <clipPath id="d" clipPathUnits="userSpaceOnUse">
      <path d="M-490.49079 713.1329h1080v-1920h-1080Z"/>
    </clipPath>
    <clipPath id="e" clipPathUnits="userSpaceOnUse">
      <path d="M-517.74549 704.9675h1080v-1920h-1080Z"/>
    </clipPath>
    <clipPath id="f" clipPathUnits="userSpaceOnUse">
      <path d="M-653.59982 725.3708h1080v-1920h-1080Z"/>
    </clipPath>
    <clipPath id="g" clipPathUnits="userSpaceOnUse">
      <path d="M-765.31622 728.1403h1080v-1920h-1080Z"/>
    </clipPath>
    <clipPath id="h" clipPathUnits="userSpaceOnUse">
      <path d="M-851.0191 729.9769h1080v-1920h-1080Z"/>
    </clipPath>
    <clipPath id="i" clipPathUnits="userSpaceOnUse">
      <path d="M-360.90841 673.6732h1080v-1920h-1080Z"/>
    </clipPath>
    <clipPath id="j" clipPathUnits="userSpaceOnUse">
      <path d="M-418.14999 755.1632h1080v-1920h-1080Z"/>
    </clipPath>
    <clipPath id="k" clipPathUnits="userSpaceOnUse">
      <path d="M-486.72294 711.189h1080v-1920h-1080Z"/>
    </clipPath>
    <clipPath id="l" clipPathUnits="userSpaceOnUse">
      <path d="M-513.97164 703.03h1080v-1920h-1080Z"/>
    </clipPath>
    <clipPath id="m" clipPathUnits="userSpaceOnUse">
      <path d="M-649.82904 723.4379h1080v-1920h-1080Z"/>
    </clipPath>
    <clipPath id="n" clipPathUnits="userSpaceOnUse">
      <path d="M-761.54552 726.198h1080v-1920h-1080Z"/>
    </clipPath>
    <clipPath id="o" clipPathUnits="userSpaceOnUse">
      <path d="M-847.25162 728.0488h1080v-1920h-1080Z"/>
    </clipPath>
    <clipPath id="p" clipPathUnits="userSpaceOnUse">
      <path d="M-290.71711 708.3693h1080v-1920h-1080Z"/>
    </clipPath>
    <clipPath id="q" clipPathUnits="userSpaceOnUse">
      <path d="M-290.66003 708.6508h1080v-1920h-1080Z"/>
    </clipPath>
    <clipPath id="r" clipPathUnits="userSpaceOnUse">
      <path d="M-290.60288 708.9321h1080v-1920h-1080Z"/>
    </clipPath>
    <clipPath id="s" clipPathUnits="userSpaceOnUse">
      <path d="M-290.54588 709.2135h1080v-1920h-1080Z"/>
    </clipPath>
    <clipPath id="t" clipPathUnits="userSpaceOnUse">
      <path d="M-290.48881 709.4949h1080v-1920h-1080Z"/>
    </clipPath>
    <clipPath id="u" clipPathUnits="userSpaceOnUse">
      <path d="M-290.43173 709.7764h1080v-1920h-1080Z"/>
    </clipPath>
    <clipPath id="v" clipPathUnits="userSpaceOnUse">
      <path d="M-290.37458 710.0577h1080v-1920h-1080Z"/>
    </clipPath>
    <clipPath id="w" clipPathUnits="userSpaceOnUse">
      <path d="M-290.31751 710.3391h1080v-1920h-1080Z"/>
    </clipPath>
    <clipPath id="x" clipPathUnits="userSpaceOnUse">
      <path d="M-290.26043 710.6205h1080v-1920h-1080Z"/>
    </clipPath>
    <clipPath id="y" clipPathUnits="userSpaceOnUse">
      <path d="M-290.20343 710.902h1080v-1920h-1080Z"/>
    </clipPath>
    <clipPath id="z" clipPathUnits="userSpaceOnUse">
      <path d="M-290.14628 711.1833h1080v-1920h-1080Z"/>
    </clipPath>
    <clipPath id="A" clipPathUnits="userSpaceOnUse">
      <path d="M-290.08921 711.4647h1080v-1920h-1080Z"/>
    </clipPath>
    <clipPath id="B" clipPathUnits="userSpaceOnUse">
      <path d="M-290.03213 711.7461h1080v-1920h-1080Z"/>
    </clipPath>
    <clipPath id="C" clipPathUnits="userSpaceOnUse">
      <path d="M-289.97498 712.0276h1080v-1920h-1080Z"/>
    </clipPath>
    <clipPath id="D" clipPathUnits="userSpaceOnUse">
      <path d="M-289.91791 712.309h1080v-1920h-1080Z"/>
    </clipPath>
    <clipPath id="E" clipPathUnits="userSpaceOnUse">
      <path d="M-289.86091 712.5903h1080v-1920h-1080Z"/>
    </clipPath>
    <clipPath id="F" clipPathUnits="userSpaceOnUse">
      <path d="M-289.80383 712.8717h1080v-1920h-1080Z"/>
    </clipPath>
    <clipPath id="G" clipPathUnits="userSpaceOnUse">
      <path d="M-289.74668 713.1532h1080v-1920h-1080Z"/>
    </clipPath>
    <clipPath id="H" clipPathUnits="userSpaceOnUse">
      <path d="M-289.68961 713.4346h1080v-1920h-1080Z"/>
    </clipPath>
    <clipPath id="I" clipPathUnits="userSpaceOnUse">
      <path d="M-289.63253 713.7159h1080v-1920h-1080Z"/>
    </clipPath>
    <clipPath id="J" clipPathUnits="userSpaceOnUse">
      <path d="M-289.57553 713.9973h1080v-1920h-1080Z"/>
    </clipPath>
    <clipPath id="K" clipPathUnits="userSpaceOnUse">
      <path d="M-289.51838 714.2788h1080v-1920h-1080Z"/>
    </clipPath>
    <clipPath id="L" clipPathUnits="userSpaceOnUse">
      <path d="M-289.46131 714.5602h1080v-1920h-1080Z"/>
    </clipPath>
    <clipPath id="M" clipPathUnits="userSpaceOnUse">
      <path d="M-289.40423 714.8416h1080v-1920h-1080Z"/>
    </clipPath>
    <clipPath id="N" clipPathUnits="userSpaceOnUse">
      <path d="M-289.34708 715.1229h1080v-1920h-1080Z"/>
    </clipPath>
    <clipPath id="O" clipPathUnits="userSpaceOnUse">
      <path d="M-289.29001 715.4044h1080v-1920h-1080Z"/>
    </clipPath>
    <clipPath id="P" clipPathUnits="userSpaceOnUse">
      <path d="M-289.23301 715.6858h1080v-1920h-1080Z"/>
    </clipPath>
    <clipPath id="Q" clipPathUnits="userSpaceOnUse">
      <path d="M-289.17593 715.9672h1080v-1920h-1080Z"/>
    </clipPath>
    <clipPath id="R" clipPathUnits="userSpaceOnUse">
      <path d="M-289.11878 716.2485h1080v-1920h-1080Z"/>
    </clipPath>
    <clipPath id="S" clipPathUnits="userSpaceOnUse">
      <path d="M-289.06171 716.53h1080v-1920h-1080Z"/>
    </clipPath>
    <clipPath id="T" clipPathUnits="userSpaceOnUse">
      <path d="M-289.00463 716.8114h1080v-1920h-1080Z"/>
    </clipPath>
    <clipPath id="U" clipPathUnits="userSpaceOnUse">
      <path d="M-288.94748 717.0928h1080v-1920h-1080Z"/>
    </clipPath>
    <clipPath id="V" clipPathUnits="userSpaceOnUse">
      <path d="M-290.61001 745.9923h1080v-1920h-1080Z"/>
    </clipPath>
    <clipPath id="W" clipPathUnits="userSpaceOnUse">
      <path d="M-290.48671 745.9984h1080v-1920h-1080Z"/>
    </clipPath>
    <clipPath id="X" clipPathUnits="userSpaceOnUse">
      <path d="M-290.36333 746.0045h1080v-1920h-1080Z"/>
    </clipPath>
    <clipPath id="Y" clipPathUnits="userSpaceOnUse">
      <path d="M-290.23988 746.0106h1080v-1920h-1080Z"/>
    </clipPath>
    <clipPath id="Z" clipPathUnits="userSpaceOnUse">
      <path d="M-290.11651 746.0167h1080v-1920h-1080Z"/>
    </clipPath>
    <clipPath id="aa" clipPathUnits="userSpaceOnUse">
      <path d="M-289.99313 746.0228h1080v-1920h-1080Z"/>
    </clipPath>
    <clipPath id="ab" clipPathUnits="userSpaceOnUse">
      <path d="M-289.86983 746.0289h1080v-1920h-1080Z"/>
    </clipPath>
    <clipPath id="ac" clipPathUnits="userSpaceOnUse">
      <path d="M-289.74638 746.035h1080v-1920h-1080Z"/>
    </clipPath>
    <clipPath id="ad" clipPathUnits="userSpaceOnUse">
      <path d="M-289.62301 746.0411h1080v-1920h-1080Z"/>
    </clipPath>
    <clipPath id="ae" clipPathUnits="userSpaceOnUse">
      <path d="M-289.49963 746.0472h1080v-1920h-1080Z"/>
    </clipPath>
    <clipPath id="af" clipPathUnits="userSpaceOnUse">
      <path d="M-289.37618 746.0533h1080v-1920h-1080Z"/>
    </clipPath>
    <clipPath id="ag" clipPathUnits="userSpaceOnUse">
      <path d="M-289.25281 746.0594h1080v-1920h-1080Z"/>
    </clipPath>
    <clipPath id="ah" clipPathUnits="userSpaceOnUse">
      <path d="M-289.12951 746.0656h1080v-1920h-1080Z"/>
    </clipPath>
    <clipPath id="ai" clipPathUnits="userSpaceOnUse">
      <path d="M-289.00613 746.0717h1080v-1920h-1080Z"/>
    </clipPath>
    <clipPath id="aj" clipPathUnits="userSpaceOnUse">
      <path d="M-288.88268 746.0778h1080v-1920h-1080Z"/>
    </clipPath>
    <clipPath id="ak" clipPathUnits="userSpaceOnUse">
      <path d="M-288.75931 746.0839h1080v-1920h-1080Z"/>
    </clipPath>
    <clipPath id="al" clipPathUnits="userSpaceOnUse">
      <path d="M-288.63593 746.09h1080v-1920h-1080Z"/>
    </clipPath>
    <clipPath id="am" clipPathUnits="userSpaceOnUse">
      <path d="M-288.51248 746.0961h1080v-1920h-1080Z"/>
    </clipPath>
    <clipPath id="an" clipPathUnits="userSpaceOnUse">
      <path d="M-288.38918 746.1022h1080v-1920h-1080Z"/>
    </clipPath>
    <clipPath id="ao" clipPathUnits="userSpaceOnUse">
      <path d="M-288.26581 746.1083h1080v-1920h-1080Z"/>
    </clipPath>
    <clipPath id="ap" clipPathUnits="userSpaceOnUse">
      <path d="M-288.14243 746.1144h1080v-1920h-1080Z"/>
    </clipPath>
    <clipPath id="aq" clipPathUnits="userSpaceOnUse">
      <path d="M-288.01898 746.1205h1080v-1920h-1080Z"/>
    </clipPath>
    <clipPath id="ar" clipPathUnits="userSpaceOnUse">
      <path d="M-287.89561 746.1266h1080v-1920h-1080Z"/>
    </clipPath>
    <clipPath id="as" clipPathUnits="userSpaceOnUse">
      <path d="M-287.77223 746.1327h1080v-1920h-1080Z"/>
    </clipPath>
    <clipPath id="at" clipPathUnits="userSpaceOnUse">
      <path d="M-287.64893 746.1388h1080v-1920h-1080Z"/>
    </clipPath>
    <clipPath id="au" clipPathUnits="userSpaceOnUse">
      <path d="M-287.52548 746.1449h1080v-1920h-1080Z"/>
    </clipPath>
    <clipPath id="av" clipPathUnits="userSpaceOnUse">
      <path d="M-287.40211 746.151h1080v-1920h-1080Z"/>
    </clipPath>
    <clipPath id="aw" clipPathUnits="userSpaceOnUse">
      <path d="M-287.27873 746.1571h1080v-1920h-1080Z"/>
    </clipPath>
    <clipPath id="ax" clipPathUnits="userSpaceOnUse">
      <path d="M-287.15528 746.1632h1080v-1920h-1080Z"/>
    </clipPath>
    <clipPath id="ay" clipPathUnits="userSpaceOnUse">
      <path d="M-287.03198 746.1693h1080v-1920h-1080Z"/>
    </clipPath>
    <clipPath id="az" clipPathUnits="userSpaceOnUse">
      <path d="M-286.90861 746.1754h1080v-1920h-1080Z"/>
    </clipPath>
    <clipPath id="aA" clipPathUnits="userSpaceOnUse">
      <path d="M-286.78523 746.1815h1080v-1920h-1080Z"/>
    </clipPath>
    <clipPath id="aB" clipPathUnits="userSpaceOnUse">
      <path d="M-286.66178 746.1876h1080v-1920h-1080Z"/>
    </clipPath>
    <clipPath id="aC" clipPathUnits="userSpaceOnUse">
      <path d="M-286.53841 746.1937h1080v-1920h-1080Z"/>
    </clipPath>
    <clipPath id="aD" clipPathUnits="userSpaceOnUse">
      <path d="M-286.41503 746.1998h1080v-1920h-1080Z"/>
    </clipPath>
    <clipPath id="aE" clipPathUnits="userSpaceOnUse">
      <path d="M-286.29173 746.2059h1080v-1920h-1080Z"/>
    </clipPath>
    <clipPath id="aF" clipPathUnits="userSpaceOnUse">
      <path d="M-286.16828 746.212h1080v-1920h-1080Z"/>
    </clipPath>
    <clipPath id="aG" clipPathUnits="userSpaceOnUse">
      <path d="M-250.84748 751.0815h1080v-1920h-1080Z"/>
    </clipPath>
    <clipPath id="aH" clipPathUnits="userSpaceOnUse">
      <path d="M-250.72441 751.0874h1080v-1920h-1080Z"/>
    </clipPath>
    <clipPath id="aI" clipPathUnits="userSpaceOnUse">
      <path d="M-250.60133 751.0932h1080v-1920h-1080Z"/>
    </clipPath>
    <clipPath id="aJ" clipPathUnits="userSpaceOnUse">
      <path d="M-250.47818 751.0991h1080v-1920h-1080Z"/>
    </clipPath>
    <clipPath id="aK" clipPathUnits="userSpaceOnUse">
      <path d="M-250.35511 751.1049h1080v-1920h-1080Z"/>
    </clipPath>
    <clipPath id="aL" clipPathUnits="userSpaceOnUse">
      <path d="M-250.23203 751.1109h1080v-1920h-1080Z"/>
    </clipPath>
    <clipPath id="aM" clipPathUnits="userSpaceOnUse">
      <path d="M-250.10888 751.1168h1080v-1920h-1080Z"/>
    </clipPath>
    <clipPath id="aN" clipPathUnits="userSpaceOnUse">
      <path d="M-249.98581 751.1226h1080v-1920h-1080Z"/>
    </clipPath>
    <clipPath id="aO" clipPathUnits="userSpaceOnUse">
      <path d="M-249.86273 751.1285h1080v-1920h-1080Z"/>
    </clipPath>
    <clipPath id="aP" clipPathUnits="userSpaceOnUse">
      <path d="M-249.73958 751.1343h1080v-1920h-1080Z"/>
    </clipPath>
    <clipPath id="aQ" clipPathUnits="userSpaceOnUse">
      <path d="M-249.61651 751.1403h1080v-1920h-1080Z"/>
    </clipPath>
    <clipPath id="aR" clipPathUnits="userSpaceOnUse">
      <path d="M-249.49343 751.146h1080v-1920h-1080Z"/>
    </clipPath>
    <clipPath id="aS" clipPathUnits="userSpaceOnUse">
      <path d="M-249.37028 751.152h1080v-1920h-1080Z"/>
    </clipPath>
    <clipPath id="aT" clipPathUnits="userSpaceOnUse">
      <path d="M-249.24721 751.158h1080v-1920h-1080Z"/>
    </clipPath>
    <clipPath id="aU" clipPathUnits="userSpaceOnUse">
      <path d="M-249.12413 751.1637h1080v-1920h-1080Z"/>
    </clipPath>
    <clipPath id="aV" clipPathUnits="userSpaceOnUse">
      <path d="M-249.00098 751.1697h1080v-1920h-1080Z"/>
    </clipPath>
    <clipPath id="aW" clipPathUnits="userSpaceOnUse">
      <path d="M-248.87791 751.1754h1080v-1920h-1080Z"/>
    </clipPath>
    <clipPath id="aX" clipPathUnits="userSpaceOnUse">
      <path d="M-248.75483 751.1814h1080v-1920h-1080Z"/>
    </clipPath>
    <clipPath id="aY" clipPathUnits="userSpaceOnUse">
      <path d="M-248.63168 751.1873h1080v-1920h-1080Z"/>
    </clipPath>
    <clipPath id="aZ" clipPathUnits="userSpaceOnUse">
      <path d="M-248.50861 751.1931h1080v-1920h-1080Z"/>
    </clipPath>
    <clipPath id="ba" clipPathUnits="userSpaceOnUse">
      <path d="M-248.38553 751.1991h1080v-1920h-1080Z"/>
    </clipPath>
    <clipPath id="bb" clipPathUnits="userSpaceOnUse">
      <path d="M-248.26238 751.205h1080v-1920h-1080Z"/>
    </clipPath>
    <clipPath id="bc" clipPathUnits="userSpaceOnUse">
      <path d="M-248.13931 751.2108h1080v-1920h-1080Z"/>
    </clipPath>
    <clipPath id="bd" clipPathUnits="userSpaceOnUse">
      <path d="M-248.01623 751.2167h1080v-1920h-1080Z"/>
    </clipPath>
    <clipPath id="be" clipPathUnits="userSpaceOnUse">
      <path d="M-247.89308 751.2225h1080v-1920h-1080Z"/>
    </clipPath>
    <clipPath id="bf" clipPathUnits="userSpaceOnUse">
      <path d="M-247.77001 751.2284h1080v-1920h-1080Z"/>
    </clipPath>
    <clipPath id="bg" clipPathUnits="userSpaceOnUse">
      <path d="M-247.64693 751.2342h1080v-1920h-1080Z"/>
    </clipPath>
    <clipPath id="bh" clipPathUnits="userSpaceOnUse">
      <path d="M-247.52378 751.2402h1080v-1920h-1080Z"/>
    </clipPath>
    <clipPath id="bi" clipPathUnits="userSpaceOnUse">
      <path d="M-247.40071 751.2461h1080v-1920h-1080Z"/>
    </clipPath>
    <clipPath id="bj" clipPathUnits="userSpaceOnUse">
      <path d="M-247.27763 751.2519h1080v-1920h-1080Z"/>
    </clipPath>
    <clipPath id="bk" clipPathUnits="userSpaceOnUse">
      <path d="M-247.15448 751.2578h1080v-1920h-1080Z"/>
    </clipPath>
    <clipPath id="bl" clipPathUnits="userSpaceOnUse">
      <path d="M-247.03141 751.2636h1080v-1920h-1080Z"/>
    </clipPath>
    <clipPath id="bm" clipPathUnits="userSpaceOnUse">
      <path d="M-246.90833 751.2695h1080v-1920h-1080Z"/>
    </clipPath>
    <clipPath id="bn" clipPathUnits="userSpaceOnUse">
      <path d="M-246.78518 751.2753h1080v-1920h-1080Z"/>
    </clipPath>
    <clipPath id="bo" clipPathUnits="userSpaceOnUse">
      <path d="M-246.66211 751.2812h1080v-1920h-1080Z"/>
    </clipPath>
    <clipPath id="bp" clipPathUnits="userSpaceOnUse">
      <path d="M-246.53903 751.2872h1080v-1920h-1080Z"/>
    </clipPath>
    <clipPath id="bq" clipPathUnits="userSpaceOnUse">
      <path d="M-246.41588 751.293h1080v-1920h-1080Z"/>
    </clipPath>
    <clipPath id="br" clipPathUnits="userSpaceOnUse">
      <path d="M-259.71728 690.9329h1080v-1920h-1080Z"/>
    </clipPath>
    <clipPath id="bs" clipPathUnits="userSpaceOnUse">
      <path d="M-224.52548 725.1866h1080v-1920h-1080Z"/>
    </clipPath>
    <clipPath id="bt" clipPathUnits="userSpaceOnUse">
      <path d="M-306.56243 714.1473h1080v-1920h-1080Z"/>
    </clipPath>
    <clipPath id="bu" clipPathUnits="userSpaceOnUse">
      <path d="M-242.76173 734.4823h1080v-1920h-1080Z"/>
    </clipPath>
    <clipPath id="bv" clipPathUnits="userSpaceOnUse">
      <path d="M-209.23838 754.8917h1080v-1920h-1080Z"/>
    </clipPath>
    <clipPath id="bw" clipPathUnits="userSpaceOnUse">
      <path d="M-294.90151 720.6833h1080v-1920h-1080Z"/>
    </clipPath>
    <clipPath id="bx" clipPathUnits="userSpaceOnUse">
      <path d="M-276.62153 718.5596h1080v-1920h-1080Z"/>
    </clipPath>
    <clipPath id="by" clipPathUnits="userSpaceOnUse">
      <path d="M-274.88161 718.3322h1080v-1920h-1080Z"/>
    </clipPath>
    <clipPath id="bz" clipPathUnits="userSpaceOnUse">
      <path d="M-275.92501 718.9771h1080v-1920h-1080Z"/>
    </clipPath>
    <clipPath id="bA" clipPathUnits="userSpaceOnUse">
      <path d="M-269.89568 717.6786h1080v-1920h-1080Z"/>
    </clipPath>
    <clipPath id="bB" clipPathUnits="userSpaceOnUse">
      <path d="M-244.88761 751.7565h1080v-1920h-1080Z"/>
    </clipPath>
    <clipPath id="bC" clipPathUnits="userSpaceOnUse">
      <path d="M-254.26013 744.4446h1080v-1920h-1080Z"/>
    </clipPath>
  </defs>
  <path fill="#1d3764" d="M0 0c.941 0 1.497.188 1.497 1.284 0 1.018-1.086 1.081-1.889 1.081H-1.87V0Zm-1.87-5.814h-2.106v9.858h3.679c2.539 0 4.046-.723 4.046-2.981 0-1.816-1.068-2.467-2.369-2.569l2.514-4.308H1.399l-2.27 4.142h-.999ZM-.341 6.125c-3.635 0-6.572-2.804-6.572-7.021 0-4.219 2.937-7.053 6.572-7.028v-.025c3.531 0 6.537 2.834 6.537 7.053 0 4.217-3.006 7.021-6.537 7.021m0-16.184c-4.867 0-9.203 3.368-9.203 9.163 0 5.788 4.336 9.156 9.203 9.156 4.845 0 9.181-3.368 9.181-9.156 0-5.795-4.336-9.163-9.181-9.163" clip-path="url(#a)" transform="matrix(1.333333 0 0 -1.333333 915.0833 41.07336)"/>
  <path fill="#5fa0d7" d="M0 0c-12.105 0-22.107-11.72-22.107-32.783 0-25.66 12.892-40.014 28.297-40.014 8.293 0 13.83 3.951 15.93 5.394 2.63 1.846 3.294 2.365 4.867 2.365 2.229 0 4.209-1.703 4.209-4.337 0-5.658-10.267-16.975-29.342-16.975-29.627 0-42.926 23.818-42.926 49.087 0 26.464 15.4 48.056 42.519 48.056 19.223 0 30.808-11.329 30.808-19.219 0-4.478-3.56-7.636-7.896-7.636-3.297 0-5.397 1.449-6.979 3.95C13.561-6.326 9.484 0 0 0" clip-path="url(#b)" transform="matrix(1.333333 0 0 -1.333333 228.8377 43.17229)"/>
  <path fill="#5fa0d7" d="M0 0c-.127-2.105-.524-2.763-2.76-2.763h-10.798c-2.227 0-2.883.524-2.883 2.763v55.021c0 4.078.53 5.795 3.811 7.504 4.472 2.496 13.941 4.612 24.078 4.612 8.155 0 15.781-2.116 15.781-9.873 0-3.951-2.75-7.114-6.963-7.114-3.553 0-4.734 1.978-6.711 5.004-1.182 1.58-2.634 3.685-6.579 3.685C.136 58.839 0 54.238 0 50.938Z" clip-path="url(#c)" transform="matrix(1.333333 0 0 -1.333333 305.1684 151.81926)"/>
  <path fill="#5fa0d7" d="M0 0c-.527 8.425-5.656 13.301-11.451 13.301-9.087 0-13.161-8.298-13.827-17.38zm-24.612-12.238c2.233-18.165 11.843-21.715 18.163-21.715 6.979 0 12.241 4.21 15.664 8.68 2.107 3.029 2.764 3.812 4.479 3.812 1.708 0 3.423-1.443 3.423-4.077 0-3.681-5.4-22.894-26.064-22.894-17.376 0-29.491 12.639-29.491 35.924 0 26.2 15.402 35.683 29.491 35.683 20.531 0 25.401-18.436 25.401-24.755 0-4.608-3.026-5.005-4.605-5.254z" clip-path="url(#d)" transform="matrix(1.333333 0 0 -1.333333 396.599 93.20203)"/>
  <path fill="#5fa0d7" d="M0 0c.133 5.527.133 6.97 3.427 9.345 5.394 3.95 16.188 5.664 22.375 5.664 13.166 0 17.901-5.009 20.402-7.505 1.98 1.972 4.475 4.342 10.4 6.056 3.691 1.051 7.636 1.449 11.584 1.449 5.659 0 11.312-.92 15.664-4.347 6.316-5.135 6.449-13.17 6.449-17.511v-45.279c0-1.968-.524-2.764-2.624-2.764H76.743c-2.236 0-2.763.659-2.763 2.89v43.049c0 5.658-.133 14.088-10.403 14.088-3.553 0-5.915-1.323-7.371-2.634-2.89-2.501-2.89-5.135-2.89-9.35v-45.153c0-2.094-.392-2.89-2.637-2.89H40.15c-2.11 0-3.162.261-3.162 2.764v43.963c0 4.082 0 13.692-10.26 13.692-1.052 0-4.479 0-7.245-2.634-3.026-2.762-3.162-5.923-3.162-9.742v-45.153c0-2.366-.653-2.89-2.892-2.89H2.899C.395-54.892 0-54.096 0-52.128Z" clip-path="url(#e)" transform="matrix(1.333333 0 0 -1.333333 432.9386 82.31483)"/>
  <path fill="#5fa0d7" d="M0 0c-10.261-3.161-19.091-5.923-19.091-15.797 0-6.583 3.954-11.317 10.937-11.317 8.028 0 8.154 5.79 8.154 8.683zm15.538-20.536c-.129-5.785-.657-8.947-5.786-11.713-6.853-3.817-16.987-3.945-19.356-3.945-4.213 0-25.534 0-25.534 18.551 0 2.89.518 8.42 5.786 13.429C-23.566 1.443-14.998 3.681 0 7.637v6.706c0 4.87-.126 11.988-8.019 11.988-6.325 0-8.163-4.88-9.234-7.249-1.175-3.286-2.359-6.585-7.361-6.585-3.945 0-7.106 2.771-7.106 6.981 0 8.038 10.267 15.934 26.2 15.934 21.185 0 21.058-13.297 21.058-23.037z" clip-path="url(#f)" transform="matrix(1.333333 0 0 -1.333333 614.0777 109.51923)"/>
  <path fill="#5fa0d7" d="M0 0v58.584c0 1.978.528 2.634 2.643 2.634h8.284c2.104.127 2.641-.534 2.641-2.634v-87.672c0-2.239-.79-2.631-2.77-2.631H3.427c-1.576.261-1.977.658-3.427 2.763l-45.291 63.842v-63.715c0-2.094-.382-2.89-2.624-2.89h-8.291c-2.106 0-2.899.261-2.899 2.631v87.539c0 2.503 1.058 2.767 2.899 2.767h9.996c2.252 0 2.77-.264 4.229-2.375z" clip-path="url(#g)" transform="matrix(1.333333 0 0 -1.333333 763.0329 113.21189)"/>
  <path fill="#5fa0d7" d="M0 0v38.167L-21.068 0Zm15.267-9.615v-18.287c0-1.848-.13-2.771-2.754-2.771H1.841c-1.977 0-2.368.527-2.368 2.633v18.425h-28.695c-1.706 0-5.398 0-5.398 4.215 0 1.582.66 2.634 2.233 5.4L4.475 60.553c.922 1.45 2.242 3.681 5.66 3.681 5.002 0 5.132-3.681 5.132-5.928V0h6.714c1.977 0 2.769-.27 2.769-2.375 0-.793 0-5.522-.135-5.918-.266-1.184-.922-1.322-2.495-1.322z" clip-path="url(#h)" transform="matrix(1.333333 0 0 -1.333333 877.3034 115.66069)"/>
  <path fill="#1d3764" d="M0 0c-12.115 0-22.12-11.72-22.12-32.783 0-25.67 12.898-40.008 28.31-40.008 8.287 0 13.82 3.94 15.927 5.39 2.627 1.85 3.284 2.368 4.86 2.368 2.239 0 4.21-1.713 4.21-4.341 0-5.659-10.261-16.976-29.349-16.976-29.617 0-42.913 23.816-42.913 49.093 0 26.462 15.412 48.041 42.518 48.041 19.224 0 30.802-11.313 30.802-19.218 0-4.469-3.553-7.632-7.902-7.632-3.284 0-5.394 1.453-6.97 3.951C13.552-6.319 9.478 0 0 0" clip-path="url(#i)" transform="matrix(1.333333 0 0 -1.333333 223.8225 40.58909)"/>
  <path fill="#1d3764" d="M0 0c-.133-2.099-.524-2.766-2.763-2.766h-10.785c-2.249 0-2.893.533-2.893 2.766v55.026c0 4.084.524 5.792 3.821 7.506 4.463 2.496 13.94 4.601 24.068 4.601 8.155 0 15.791-2.105 15.791-9.869 0-3.946-2.76-7.119-6.976-7.119-3.556 0-4.738 1.988-6.711 5.014-1.184 1.576-2.634 3.682-6.582 3.682-6.84 0-6.97-4.607-6.97-7.897Z" clip-path="url(#j)" transform="matrix(1.333333 0 0 -1.333333 300.1446 149.24246)"/>
  <path fill="#1d3764" d="M0 0c-.527 8.413-5.656 13.29-11.451 13.29-9.08 0-13.16-8.294-13.817-17.383zm-24.611-12.249c2.229-18.166 11.843-21.714 18.162-21.714 6.973 0 12.244 4.215 15.668 8.679 2.103 3.03 2.76 3.823 4.472 3.823 1.718 0 3.417-1.454 3.417-4.082 0-3.687-5.382-22.9-26.055-22.9-17.379 0-29.491 12.63-29.491 35.926 0 26.203 15.396 35.676 29.491 35.676 20.528 0 25.401-18.426 25.401-24.746 0-4.611-3.025-5.002-4.601-5.262z" clip-path="url(#k)" transform="matrix(1.333333 0 0 -1.333333 391.5752 90.61016)"/>
  <path fill="#1d3764" d="M0 0c.136 5.527.136 6.977 3.43 9.345C8.83 13.291 19.618 15 25.802 15c13.173 0 17.904-4.993 20.402-7.501 1.99 1.979 4.478 4.354 10.403 6.056C60.292 14.613 64.243 15 68.194 15c5.659 0 11.329-.916 15.661-4.338 6.323-5.135 6.456-13.168 6.456-17.506v-45.289c0-1.972-.528-2.767-2.631-2.767H76.749c-2.236 0-2.763.668-2.763 2.909v43.038c0 5.659-.133 14.084-10.397 14.084-3.556 0-5.924-1.318-7.371-2.63C53.316 0 53.316-2.632 53.316-6.844v-45.147c0-2.114-.392-2.909-2.634-2.909H40.156c-2.107 0-3.158.277-3.158 2.767v43.974c0 4.082 0 13.686-10.27 13.686-1.059 0-4.476 0-7.245-2.634-3.02-2.76-3.158-5.923-3.158-9.737v-45.147c0-2.375-.651-2.909-2.893-2.909H2.902C.395-54.9 0-54.105 0-52.133Z" clip-path="url(#l)" transform="matrix(1.333333 0 0 -1.333333 427.9068 79.73149)"/>
  <path fill="#1d3764" d="M0 0c-10.258-3.157-19.082-5.917-19.082-15.786 0-6.594 3.945-11.328 10.928-11.328C-.126-27.114 0-21.322 0-18.429zm15.538-20.529c-.136-5.793-.666-8.954-5.795-11.721-6.844-3.816-16.975-3.944-19.356-3.944-4.201 0-25.525 0-25.525 18.557 0 2.893.522 8.425 5.78 13.418C-23.563 1.454-14.998 3.692 0 7.641v6.706c0 4.872-.126 11.986-8.028 11.986-6.313 0-8.164-4.876-9.212-7.247-1.194-3.289-2.378-6.578-7.381-6.578-3.948 0-7.109 2.762-7.109 6.97 0 8.033 10.28 15.93 26.2 15.93 21.194 0 21.068-13.296 21.068-23.038z" clip-path="url(#m)" transform="matrix(1.333333 0 0 -1.333333 609.05 106.94203)"/>
  <path fill="#1d3764" d="M0 0v58.569c0 1.984.531 2.639 2.634 2.639h8.293c2.104.133 2.634-.523 2.634-2.639v-87.662c0-2.236-.792-2.639-2.77-2.639H3.417c-1.576.277-1.967.668-3.417 2.767l-45.279 63.842v-63.7c0-2.114-.401-2.909-2.633-2.909h-8.294c-2.116 0-2.905.277-2.905 2.639v87.541c0 2.496 1.064 2.76 2.905 2.76h10.009c2.229 0 2.757-.264 4.206-2.364z" clip-path="url(#n)" transform="matrix(1.333333 0 0 -1.333333 758.0053 110.62216)"/>
  <path fill="#1d3764" d="M0 0v38.182L-21.068 0Zm15.263-9.599v-18.303c0-1.846-.129-2.762-2.763-2.762H1.847c-1.974 0-2.378.53-2.378 2.631v18.434h-28.695c-1.711 0-5.391 0-5.391 4.205 0 1.585.654 2.634 2.23 5.394L4.472 60.553c.922 1.454 2.233 3.692 5.659 3.692 5.003 0 5.132-3.692 5.132-5.925V0h6.715c1.98 0 2.763-.259 2.763-2.369 0-.783 0-5.522-.117-5.913-.275-1.191-.941-1.317-2.517-1.317z" clip-path="url(#o)" transform="matrix(1.333333 0 0 -1.333333 872.2801 113.08989)"/>
  <path fill="#e3c5aa" fill-rule="evenodd" d="M0 0c1.906 2.817 14.586 3.868 15.98-11.065.332-3.508-.653-10.034-5.939-13.678.488-10.228.759-20.665-7.01-33.987-5.036-8.632-15.114-16.633-28.185-19.311-11.188-2.268-33.773-1.836-50.674 18.739-12.07.547-15.338 6.113-16.825 9.64-5.121 12.265 2.235 15.107 4.915 16.148C-91.619-23.7-96.069-4.377-96.166.178c-.323 16.35 5.283 36.108 28.83 43.664 10.283 3.288 25.299 2.878 35.246-.135C-15.257 38.596-7.1 22.286-5.924 19.25-3.334 12.561-.604 1.413 0 0" clip-path="url(#p)" transform="matrix(1.333333 0 0 -1.333333 130.2341 86.85056)"/>
  <path fill="#e3c6ab" fill-rule="evenodd" d="M0 0c1.9 2.807 14.453 3.915 15.832-10.802.333-3.495-.651-9.998-5.918-13.631.486-10.191.756-20.592-6.986-33.867-5.018-8.602-15-16.578-28.029-19.229-11.209-2.256-34.152-1.575-50.462 18.711-11.92.385-15.377 6.039-16.858 9.554-5.048 11.989 2.236 14.911 4.993 15.878-3.868 9.78-8.397 29.249-8.494 33.788-.321 16.293 5.351 36.002 28.823 43.506 10.529 3.343 25.255 2.874 35.155-.199C-15.215 38.51-7.167 22.432-5.996 19.407-3.414 12.742-.601 1.409 0 0" clip-path="url(#q)" transform="matrix(1.333333 0 0 -1.333333 130.158 87.22589)"/>
  <path fill="#e4c7ac" fill-rule="evenodd" d="M0 0c1.893 2.797 14.321 3.962 15.684-10.539.334-3.483-.649-9.963-5.897-13.583.484-10.155.753-20.52-6.962-33.748-5-8.572-14.887-16.523-27.873-19.148-11.231-2.243-34.531-1.312-50.251 18.685-11.769.222-15.409 5.967-16.889 9.467-4.956 11.721 2.237 14.715 5.07 15.607-3.854 9.746-8.463 29.362-8.56 33.885-.32 16.235 5.418 35.895 28.816 43.347 10.775 3.4 25.211 2.87 35.065-.262 16.624-5.287 24.563-21.133 25.73-24.147C-3.495 12.923-.599 1.404 0 0" clip-path="url(#r)" transform="matrix(1.333333 0 0 -1.333333 130.0818 87.60096)"/>
  <path fill="#e4c7ad" fill-rule="evenodd" d="M0 0c1.886 2.788 14.188 4.009 15.536-10.275.334-3.471-.646-9.928-5.877-13.537.483-10.118.751-20.446-6.937-33.628-4.982-8.542-14.773-16.468-27.717-19.067-11.252-2.23-34.911-1.049-50.039 18.658-11.619.06-15.443 5.896-16.922 9.381-4.863 11.454 2.238 14.52 5.148 15.336-3.841 9.712-8.529 29.474-8.625 33.981-.32 16.179 5.485 35.789 28.808 43.19 11.02 3.456 25.167 2.866 34.975-.326 16.52-5.375 24.349-20.989 25.512-23.991C-3.575 13.103-.597 1.4 0 0" clip-path="url(#s)" transform="matrix(1.333333 0 0 -1.333333 130.0058 87.97616)"/>
  <path fill="#e5c8af" fill-rule="evenodd" d="M0 0c1.88 2.778 14.055 4.056 15.388-10.012.335-3.459-.644-9.893-5.856-13.489.481-10.082.748-20.374-6.913-33.509-4.964-8.512-14.66-16.413-27.56-18.986-11.275-2.217-35.291-.786-49.829 18.631-11.468-.102-15.475 5.825-16.954 9.296-4.769 11.185 2.239 14.323 5.226 15.064-3.827 9.678-8.595 29.587-8.691 34.078-.319 16.122 5.538 35.729 28.801 43.032 11.259 3.534 25.123 2.862 34.884-.39 16.416-5.463 24.136-20.844 25.295-23.836C-3.656 13.284-.595 1.395 0 0" clip-path="url(#t)" transform="matrix(1.333333 0 0 -1.333333 129.9297 88.35136)"/>
  <path fill="#e5c9b0" fill-rule="evenodd" d="M0 0c1.873 2.769 13.922 4.103 15.24-9.749.335-3.446-.642-9.857-5.836-13.442.48-10.045.746-20.301-6.888-33.389-4.946-8.482-14.546-16.358-27.404-18.904-11.296-2.204-35.67-.524-49.618 18.603-11.316-.264-15.507 5.754-16.986 9.21-4.675 10.918 2.241 14.127 5.304 14.793-3.814 9.645-8.661 29.7-8.757 34.175-.317 16.064 5.604 35.629 28.794 42.874 11.504 3.593 25.078 2.857 34.794-.454 16.312-5.55 23.921-20.7 25.076-23.681C-3.736 13.465-.593 1.391 0 0" clip-path="url(#u)" transform="matrix(1.333333 0 0 -1.333333 129.8536 88.72669)"/>
  <path fill="#e5cab1" fill-rule="evenodd" d="M0 0c1.867 2.759 13.789 4.151 15.093-9.486.335-3.434-.641-9.822-5.816-13.394.478-10.009.744-20.229-6.864-33.27-4.928-8.452-14.433-16.303-27.248-18.823-11.318-2.191-36.049-.261-49.406 18.576-11.166-.426-15.539 5.683-17.019 9.124-4.58 10.652 2.242 13.931 5.382 14.522-3.8 9.611-8.727 29.812-8.823 34.272-.316 16.007 5.67 35.527 28.787 42.715 11.748 3.653 25.034 2.854 34.704-.517 16.207-5.638 23.707-20.556 24.858-23.525C-3.817 13.646-.591 1.386 0 0" clip-path="url(#v)" transform="matrix(1.333333 0 0 -1.333333 129.7774 89.10176)"/>
  <path fill="#e6cbb2" fill-rule="evenodd" d="M0 0c1.86 2.75 13.656 4.198 14.945-9.223.336-3.421-.638-9.786-5.795-13.347.476-9.972.741-20.156-6.84-33.15-4.91-8.422-14.32-16.248-27.091-18.742-11.34-2.178-36.429.002-49.196 18.549-11.015-.587-15.571 5.612-17.051 9.038-4.485 10.385 2.243 13.736 5.46 14.251-3.787 9.577-8.793 29.925-8.888 34.369-.316 15.95 5.736 35.425 28.779 42.557 11.993 3.712 24.99 2.849 34.613-.582C-14.96 37.995-7.57 23.309-6.423 20.351-3.898 13.826-.589 1.381 0 0" clip-path="url(#w)" transform="matrix(1.333333 0 0 -1.333333 129.7013 89.47696)"/>
  <path fill="#e6cbb3" fill-rule="evenodd" d="M0 0c1.854 2.74 13.524 4.245 14.797-8.959.336-3.41-.636-9.752-5.775-13.301.475-9.935.739-20.083-6.815-33.03-4.892-8.392-14.206-16.193-26.935-18.661-11.362-2.165-36.808.265-48.984 18.522-10.865-.749-15.604 5.541-17.084 8.952-4.389 10.118 2.245 13.54 5.538 13.98-3.773 9.544-8.86 30.037-8.954 34.465-.314 15.893 5.803 35.322 28.772 42.4 12.238 3.77 24.946 2.845 34.523-.646 15.999-5.813 23.28-20.267 24.423-23.214C-3.978 14.007-.587 1.377 0 0" clip-path="url(#x)" transform="matrix(1.333333 0 0 -1.333333 129.6252 89.85216)"/>
  <path fill="#e6ccb4" fill-rule="evenodd" d="M0 0c1.847 2.73 13.391 4.292 14.649-8.696.337-3.397-.634-9.716-5.754-13.253.473-9.899.736-20.01-6.791-32.911-4.874-8.362-14.093-16.138-26.779-18.579-11.383-2.153-37.188.527-48.773 18.495-10.714-.912-15.636 5.469-17.116 8.865-4.293 9.852 2.246 13.344 5.616 13.709-3.76 9.51-8.926 30.15-9.02 34.562-.313 15.836 5.87 35.218 28.765 42.241 12.483 3.829 24.902 2.842 34.433-.709 15.895-5.901 23.066-20.123 24.204-23.058C-4.059 14.188-.585 1.373 0 0" clip-path="url(#y)" transform="matrix(1.333333 0 0 -1.333333 129.5492 90.22749)"/>
  <path fill="#e7cdb5" fill-rule="evenodd" d="M0 0c1.84 2.721 13.258 4.339 14.501-8.433.338-3.384-.631-9.681-5.733-13.206.471-9.862.733-19.937-6.767-32.791-4.856-8.332-13.979-16.084-26.622-18.498-11.406-2.139-37.568.79-48.562 18.468-10.564-1.074-15.668 5.398-17.149 8.779-4.197 9.586 2.247 13.148 5.694 13.438-3.746 9.476-8.992 30.263-9.086 34.659-.312 15.779 5.937 35.114 28.758 42.083 12.728 3.887 24.858 2.837 34.342-.773 15.791-5.989 22.853-19.978 23.987-22.903C-4.139 14.368-.582 1.368 0 0" clip-path="url(#z)" transform="matrix(1.333333 0 0 -1.333333 129.473 90.60256)"/>
  <path fill="#e7ceb6" fill-rule="evenodd" d="M0 0c1.834 2.711 13.125 4.386 14.353-8.17.338-3.372-.629-9.645-5.713-13.158.47-9.827.731-19.865-6.742-32.672-4.838-8.302-13.866-16.029-26.466-18.417-11.427-2.126-37.947 1.052-48.351 18.441-10.413-1.236-15.7 5.327-17.181 8.693-4.1 9.32 2.249 12.953 5.772 13.167-3.732 9.443-9.058 30.375-9.152 34.756-.31 15.721 6.005 35.008 28.751 41.925 12.974 3.945 24.813 2.833 34.252-.837C-14.79 37.651-7.838 23.894-6.708 20.98-4.22 14.549-.58 1.363 0 0" clip-path="url(#A)" transform="matrix(1.333333 0 0 -1.333333 129.3969 90.97776)"/>
  <path fill="#e8cfb8" fill-rule="evenodd" d="M0 0c1.827 2.702 12.992 4.433 14.205-7.907.339-3.359-.627-9.61-5.692-13.111.468-9.79.728-19.792-6.718-32.553-4.82-8.271-13.753-15.973-26.31-18.335-11.449-2.113-38.326 1.315-48.14 18.414-10.262-1.398-15.731 5.256-17.212 8.607-4.003 9.054 2.249 12.757 5.849 12.896-3.719 9.409-9.124 30.488-9.217 34.853-.31 15.664 6.071 34.902 28.743 41.766 13.219 4.003 24.769 2.829 34.162-.901C-14.748 37.565-7.905 24.04-6.779 21.138-4.3 14.73-.578 1.359 0 0" clip-path="url(#B)" transform="matrix(1.333333 0 0 -1.333333 129.3208 91.35296)"/>
  <path fill="#e8cfb9" fill-rule="evenodd" d="M0 0c1.821 2.692 12.86 4.48 14.057-7.643.339-3.348-.625-9.575-5.672-13.064.467-9.754.726-19.72-6.693-32.434-4.802-8.241-13.639-15.918-26.153-18.253-11.471-2.101-38.706 1.577-47.929 18.386-10.112-1.56-15.763 5.185-17.245 8.521-3.905 8.789 2.25 12.561 5.927 12.625-3.705 9.375-9.19 30.601-9.283 34.95-.309 15.607 6.139 34.796 28.736 41.608 13.465 4.059 24.725 2.825 34.071-.965 15.479-6.252 22.212-19.545 23.333-22.436C-4.381 14.911-.576 1.354 0 0" clip-path="url(#C)" transform="matrix(1.333333 0 0 -1.333333 129.2446 91.72829)"/>
  <path fill="#e8d0ba" fill-rule="evenodd" d="M0 0c1.814 2.683 12.727 4.528 13.91-7.38.339-3.335-.623-9.54-5.652-13.017.465-9.717.724-19.646-6.668-32.314-4.785-8.211-13.527-15.863-25.998-18.172-11.492-2.088-39.085 1.84-47.718 18.359-9.961-1.721-15.794 5.115-17.277 8.435-3.806 8.523 2.252 12.365 6.005 12.354-3.692 9.341-9.256 30.713-9.349 35.046-.307 15.55 6.207 34.689 28.729 41.451 13.71 4.116 24.681 2.821 33.981-1.029 15.374-6.34 21.998-19.401 23.115-22.28C-4.462 15.091-.574 1.35 0 0" clip-path="url(#D)" transform="matrix(1.333333 0 0 -1.333333 129.1685 92.10349)"/>
  <path fill="#e9d1bb" fill-rule="evenodd" d="M0 0c1.807 2.673 12.594 4.575 13.762-7.117.34-3.323-.621-9.504-5.631-12.969.463-9.681.721-19.574-6.644-32.195-4.767-8.182-13.413-15.808-25.842-18.091-11.514-2.075-39.465 2.103-47.506 18.332-9.81-1.883-15.826 5.044-17.31 8.349-3.707 8.258 2.253 12.169 6.083 12.083C-86.766-22.3-92.41-.782-92.503 3.535c-.306 15.493 6.275 34.582 28.722 41.293C-49.825 49-39.144 47.644-29.89 43.735-14.621 37.307-8.106 24.478-6.993 21.61-4.542 15.272-.572 1.345 0 0" clip-path="url(#E)" transform="matrix(1.333333 0 0 -1.333333 129.0925 92.47856)"/>
  <path fill="#e9d2bc" fill-rule="evenodd" d="M0 0c1.801 2.663 12.461 4.622 13.614-6.854.34-3.31-.619-9.469-5.611-12.922.462-9.644.719-19.501-6.619-32.075-4.749-8.152-13.3-15.753-25.686-18.009-11.535-2.062-39.844 2.365-47.295 18.304-9.659-2.045-15.857 4.973-17.342 8.263-3.608 7.993 2.254 11.974 6.161 11.813-3.665 9.273-9.388 30.938-9.48 35.239-.306 15.436 6.343 34.473 28.714 41.134 14.202 4.228 24.593 2.813 33.8-1.156 15.166-6.516 21.571-19.112 22.679-21.97C-4.623 15.453-.57 1.341 0 0" clip-path="url(#F)" transform="matrix(1.333333 0 0 -1.333333 129.0164 92.85376)"/>
  <path fill="#ead3bd" fill-rule="evenodd" d="M0 0c1.794 2.654 12.328 4.669 13.466-6.591.341-3.298-.616-9.433-5.59-12.874.46-9.608.716-19.429-6.595-31.956-4.731-8.122-13.187-15.698-25.529-17.928-11.558-2.049-40.224 2.628-47.085 18.278-9.508-2.208-15.888 4.902-17.374 8.176-3.508 7.729 2.256 11.778 6.239 11.542-3.651 9.239-9.454 31.05-9.546 35.336-.304 15.378 6.411 34.365 28.707 40.976 14.447 4.284 24.548 2.809 33.71-1.22C-14.536 37.135-8.24 24.771-7.136 21.925-4.703 15.633-.568 1.336 0 0" clip-path="url(#G)" transform="matrix(1.333333 0 0 -1.333333 128.9402 93.22909)"/>
  <path fill="#ead4be" fill-rule="evenodd" d="M0 0c1.788 2.644 12.196 4.716 13.318-6.327.342-3.286-.614-9.399-5.57-12.828.459-9.571.714-19.356-6.57-31.836-4.713-8.092-13.073-15.643-25.373-17.847-11.579-2.036-40.603 2.891-46.873 18.251-9.358-2.37-15.919 4.831-17.407 8.09-3.407 7.464 2.257 11.582 6.317 11.271-3.638 9.206-9.52 31.163-9.612 35.433-.303 15.321 6.48 34.256 28.7 40.818 14.693 4.339 24.504 2.804 33.62-1.284 14.957-6.692 21.143-18.824 22.243-21.659C-4.784 15.814-.566 1.332 0 0" clip-path="url(#H)" transform="matrix(1.333333 0 0 -1.333333 128.8641 93.60429)"/>
  <path fill="#ead4bf" fill-rule="evenodd" d="M0 0c1.781 2.635 12.063 4.763 13.17-6.064.342-3.274-.612-9.363-5.549-12.78.457-9.535.711-19.284-6.546-31.717-4.695-8.062-12.96-15.588-25.217-17.766-11.601-2.023-40.982 3.154-46.662 18.224-9.207-2.532-15.949 4.761-17.439 8.004-3.306 7.2 2.258 11.386 6.395 11-3.624 9.172-9.587 31.276-9.678 35.529-.302 15.265 6.548 34.147 28.693 40.66 14.939 4.394 24.46 2.801 33.529-1.347 14.853-6.779 20.93-18.68 22.026-21.504C-4.865 15.995-.564 1.327 0 0" clip-path="url(#I)" transform="matrix(1.333333 0 0 -1.333333 128.788 93.97936)"/>
  <path fill="#ebd5c1" fill-rule="evenodd" d="M0 0c1.775 2.625 11.93 4.81 13.022-5.801.343-3.261-.61-9.328-5.528-12.733.455-9.498.708-19.21-6.522-31.597-4.677-8.032-12.846-15.534-25.06-17.684-11.623-2.011-41.362 3.415-46.451 18.196-9.057-2.694-15.98 4.691-17.472 7.918-3.204 6.936 2.26 11.191 6.473 10.729-3.611 9.138-9.653 31.388-9.743 35.626-.301 15.207 6.616 34.037 28.685 40.502 15.186 4.449 24.416 2.796 33.439-1.412C-14.408 36.878-8.441 25.209-7.35 22.396-4.945 16.175-.561 1.323 0 0" clip-path="url(#J)" transform="matrix(1.333333 0 0 -1.333333 128.712 94.35456)"/>
  <path fill="#ebd6c2" fill-rule="evenodd" d="M0 0c1.768 2.616 11.797 4.857 12.874-5.538.343-3.248-.607-9.292-5.508-12.685.454-9.462.706-19.138-6.497-31.478-4.659-8.002-12.733-15.479-24.904-17.603-11.645-1.997-41.742 3.678-46.24 18.169-8.906-2.855-16.01 4.621-17.503 7.833-3.103 6.672 2.26 10.994 6.55 10.457-3.597 9.105-9.719 31.501-9.809 35.723-.3 15.15 6.685 33.926 28.678 40.344 15.432 4.503 24.372 2.792 33.349-1.476 14.644-6.954 20.502-18.391 21.589-21.192C-5.026 16.356-.559 1.318 0 0" clip-path="url(#K)" transform="matrix(1.333333 0 0 -1.333333 128.6358 94.72989)"/>
  <path fill="#ecd7c3" fill-rule="evenodd" d="M0 0c1.761 2.606 11.664 4.905 12.726-5.275.344-3.236-.605-9.256-5.487-12.638.452-9.425.704-19.065-6.473-31.358-4.641-7.972-12.619-15.424-24.748-17.522-11.666-1.984-42.121 3.941-46.028 18.142-8.756-3.017-16.04 4.551-17.536 7.747-3.001 6.408 2.261 10.798 6.628 10.186-3.584 9.071-9.785 31.613-9.875 35.82-.299 15.093 6.754 33.816 28.671 40.186 15.678 4.556 24.328 2.788 33.258-1.54 14.541-7.042 20.289-18.246 21.372-21.037C-5.106 16.537-.557 1.314 0 0" clip-path="url(#L)" transform="matrix(1.333333 0 0 -1.333333 128.5597 95.10509)"/>
  <path fill="#ecd8c4" fill-rule="evenodd" d="M0 0c1.755 2.596 11.532 4.952 12.579-5.011.344-3.225-.604-9.222-5.467-12.592.45-9.388.701-18.992-6.449-31.238-4.623-7.942-12.506-15.369-24.591-17.44-11.689-1.972-42.501 4.203-45.818 18.114-8.605-3.179-16.069 4.481-17.568 7.661-2.897 6.145 2.263 10.602 6.706 9.915-3.57 9.037-9.851 31.726-9.941 35.917-.297 15.035 6.823 33.704 28.664 40.027 15.925 4.61 24.283 2.784 33.168-1.603 14.436-7.13 20.075-18.102 21.154-20.881C-5.187 16.718-.555 1.309 0 0" clip-path="url(#M)" transform="matrix(1.333333 0 0 -1.333333 128.4836 95.48029)"/>
  <path fill="#ecd8c5" fill-rule="evenodd" d="M0 0c1.748 2.587 11.399 4.999 12.431-4.748.344-3.212-.601-9.187-5.447-12.544.449-9.353.699-18.92-6.424-31.119-4.605-7.912-12.393-15.314-24.435-17.359-11.71-1.959-42.88 4.466-45.607 18.088-8.454-3.342-16.098 4.41-17.6 7.574-2.794 5.882 2.264 10.406 6.784 9.644-3.556 9.003-9.917 31.839-10.006 36.013-.297 14.979 6.904 33.551 28.656 39.87 16.18 4.632 24.239 2.78 33.078-1.667 14.332-7.218 19.861-17.958 20.935-20.726C-5.267 16.898-.553 1.305 0 0" clip-path="url(#N)" transform="matrix(1.333333 0 0 -1.333333 128.4074 95.85536)"/>
  <path fill="#edd9c6" fill-rule="evenodd" d="M0 0c1.742 2.577 11.266 5.046 12.283-4.485.345-3.199-.599-9.151-5.426-12.497.447-9.316.696-18.846-6.4-30.999-4.587-7.882-12.279-15.259-24.279-17.278-11.732-1.946-43.259 4.729-45.395 18.061-8.303-3.504-16.127 4.341-17.633 7.488-2.689 5.619 2.265 10.211 6.862 9.373-3.543 8.97-9.983 31.951-10.072 36.11-.296 14.922 6.972 33.445 28.649 39.712 16.426 4.687 24.195 2.776 32.987-1.731C-14.196 36.448-8.776 25.94-7.706 23.183-5.348 17.079-.551 1.3 0 0" clip-path="url(#O)" transform="matrix(1.333333 0 0 -1.333333 128.3313 96.23069)"/>
  <path fill="#eddac7" fill-rule="evenodd" d="M0 0c1.735 2.568 11.133 5.093 12.135-4.222.346-3.187-.597-9.116-5.406-12.449.446-9.28.694-18.774-6.375-30.881-4.569-7.851-12.166-15.203-24.122-17.196-11.754-1.933-43.639 4.992-45.185 18.034-8.152-3.666-16.155 4.272-17.665 7.402-2.584 5.357 2.266 10.015 6.94 9.102-3.529 8.936-10.049 32.064-10.138 36.207-.294 14.864 7.039 33.338 28.642 39.553 16.672 4.744 24.151 2.772 32.897-1.794 14.123-7.394 19.434-17.67 20.5-20.415C-5.429 17.26-.549 1.296 0 0" clip-path="url(#P)" transform="matrix(1.333333 0 0 -1.333333 128.2553 96.60589)"/>
  <path fill="#eddbc8" fill-rule="evenodd" d="M0 0c1.729 2.558 11 5.14 11.987-3.959.346-3.174-.595-9.08-5.385-12.402.444-9.243.691-18.701-6.351-30.761C-4.3-54.943-11.801-62.27-23.715-64.236c-11.776-1.92-44.019 5.254-44.973 18.006-8.002-3.828-16.183 4.203-17.698 7.316-2.479 5.095 2.268 9.819 7.018 8.831-3.516 8.902-10.115 32.177-10.204 36.304-.293 14.807 7.107 33.231 28.636 39.395 16.917 4.8 24.106 2.768 32.806-1.859 14.019-7.481 19.219-17.525 20.282-20.259C-5.509 17.44-.547 1.291 0 0" clip-path="url(#Q)" transform="matrix(1.333333 0 0 -1.333333 128.1792 96.98109)"/>
  <path fill="#eedcca" fill-rule="evenodd" d="M0 0c1.722 2.548 10.868 5.187 11.839-3.695.347-3.163-.592-9.046-5.364-12.355.442-9.207.688-18.629-6.327-30.642-4.533-7.792-11.939-15.093-23.81-17.033-11.797-1.907-44.398 5.517-44.762 17.979-7.851-3.989-16.21 4.134-17.73 7.23-2.373 4.833 2.269 9.623 7.096 8.56-3.502 8.868-10.181 32.289-10.27 36.401-.292 14.75 7.175 33.124 28.629 39.237 17.162 4.855 24.062 2.763 32.715-1.923C-14.069 36.19-8.978 26.378-7.92 23.655-5.59 17.621-.545 1.286 0 0" clip-path="url(#R)" transform="matrix(1.333333 0 0 -1.333333 128.103 97.35616)"/>
  <path fill="#eedccb" fill-rule="evenodd" d="M0 0c1.715 2.539 10.735 5.234 11.691-3.432.347-3.15-.59-9.01-5.344-12.308.441-9.17.686-18.556-6.302-30.522C-4.47-54.024-11.781-61.3-23.608-63.214c-11.82-1.894-44.778 5.779-44.552 17.952-7.7-4.151-16.235 4.066-17.762 7.144-2.267 4.572 2.27 9.428 7.174 8.289-3.489 8.835-10.247 32.402-10.335 36.498-.291 14.692 7.242 33.018 28.621 39.079 17.408 4.911 24.017 2.759 32.625-1.987 13.811-7.657 18.792-17.236 19.846-19.948C-5.67 17.802-.542 1.282 0 0" clip-path="url(#S)" transform="matrix(1.333333 0 0 -1.333333 128.0269 97.73149)"/>
  <path fill="#efddcc" fill-rule="evenodd" d="M0 0c1.709 2.529 10.602 5.282 11.543-3.169.348-3.138-.588-8.975-5.323-12.26.439-9.134.684-18.484-6.278-30.403-4.497-7.732-11.712-14.983-23.497-16.871-11.841-1.881-45.157 6.042-44.34 17.925-7.55-4.313-16.258 4-17.795 7.058-2.155 4.313 2.272 9.232 7.252 8.018-3.475 8.801-10.313 32.515-10.401 36.594-.29 14.636 7.31 32.912 28.614 38.921 17.654 4.968 23.973 2.756 32.535-2.05C-13.984 36.018-9.112 26.671-8.062 23.97-5.751 17.983-.54 1.277 0 0" clip-path="url(#T)" transform="matrix(1.333333 0 0 -1.333333 127.9508 98.10669)"/>
  <path fill="#efdecd" fill-rule="evenodd" d="M0 0c1.702 2.52 10.469 5.329 11.395-2.906.349-3.125-.585-8.939-5.302-12.213.437-9.097.681-18.41-6.253-30.283-4.48-7.702-11.6-14.929-23.342-16.789-11.863-1.869-45.536 6.304-44.129 17.897-7.399-4.475-16.288 3.93-17.826 6.972-2.057 4.048 2.272 9.036 7.329 7.748-3.462 8.766-10.38 32.626-10.467 36.69-.289 14.579 7.377 32.805 28.607 38.763 17.899 5.023 23.929 2.751 32.444-2.114 13.603-7.833 18.365-16.948 19.41-19.638C-5.831 18.163-.538 1.273 0 0" clip-path="url(#U)" transform="matrix(1.333333 0 0 -1.333333 127.8746 98.48189)"/>
  <path fill="#efdecd" fill-rule="evenodd" d="M0 0c.289-6.039-4.022-11.158-9.61-11.427-5.612-.266-10.378 4.416-10.663 10.465-.293 6.041 4.02 11.168 9.624 11.429C-5.057 10.729-.295 6.049 0 0" clip-path="url(#V)" transform="matrix(1.333333 0 0 -1.333333 130.0913 137.01456)"/>
  <path fill="#efddcc" fill-rule="evenodd" d="M0 0c.286-5.966-3.973-11.022-9.493-11.288-5.544-.262-10.252 4.362-10.533 10.338-.29 5.968 3.971 11.032 9.507 11.29C-4.996 10.599-.291 5.976 0 0" clip-path="url(#W)" transform="matrix(1.333333 0 0 -1.333333 129.9269 137.02269)"/>
  <path fill="#eeddcb" fill-rule="evenodd" d="M0 0c.282-5.892-3.924-10.886-9.376-11.149-5.475-.259-10.126 4.309-10.404 10.211-.286 5.894 3.922 10.896 9.39 11.151C-4.934 10.469-.287 5.902 0 0" clip-path="url(#X)" transform="matrix(1.333333 0 0 -1.333333 129.7624 137.03083)"/>
  <path fill="#eedcca" fill-rule="evenodd" d="M0 0c.279-5.818-3.875-10.751-9.259-11.01-5.407-.256-9.999 4.255-10.275 10.084-.282 5.821 3.874 10.76 9.274 11.012C-4.872 10.339-.283 5.829 0 0" clip-path="url(#Y)" transform="matrix(1.333333 0 0 -1.333333 129.5978 137.03896)"/>
  <path fill="#eedbc9" fill-rule="evenodd" d="M0 0c.275-5.744-3.825-10.615-9.142-10.871-5.339-.253-9.873 4.202-10.145 9.957-.278 5.748 3.825 10.624 9.156 10.873C-4.811 10.209-.28 5.755 0 0" clip-path="url(#Z)" transform="matrix(1.333333 0 0 -1.333333 129.4333 137.04709)"/>
  <path fill="#eddbc8" fill-rule="evenodd" d="M0 0c.272-5.67-3.776-10.479-9.024-10.731-5.272-.251-9.748 4.147-10.017 9.829-.274 5.674 3.776 10.488 9.04 10.734C-4.749 10.079-.276 5.682 0 0" clip-path="url(#aa)" transform="matrix(1.333333 0 0 -1.333333 129.2688 137.05523)"/>
  <path fill="#eddac7" fill-rule="evenodd" d="M0 0c.269-5.597-3.727-10.344-8.907-10.592-5.203-.247-9.622 4.094-9.887 9.702-.271 5.601 3.727 10.352 8.923 10.595C-4.688 9.949-.272 5.608 0 0" clip-path="url(#ab)" transform="matrix(1.333333 0 0 -1.333333 129.1044 137.06336)"/>
  <path fill="#edd9c6" fill-rule="evenodd" d="M0 0c.265-5.523-3.678-10.208-8.79-10.453-5.135-.244-9.496 4.04-9.758 9.575-.267 5.528 3.679 10.217 8.806 10.456C-4.626 9.819-.268 5.535 0 0" clip-path="url(#ac)" transform="matrix(1.333333 0 0 -1.333333 128.9398 137.07149)"/>
  <path fill="#ecd8c5" fill-rule="evenodd" d="M0 0c.262-5.449-3.629-10.072-8.673-10.314-5.067-.241-9.37 3.986-9.628 9.448-.264 5.454 3.629 10.081 8.689 10.317C-4.565 9.689-.265 5.461 0 0" clip-path="url(#ad)" transform="matrix(1.333333 0 0 -1.333333 128.7753 137.07963)"/>
  <path fill="#ecd8c4" fill-rule="evenodd" d="M0 0c.258-5.375-3.579-9.937-8.556-10.175-4.999-.238-9.244 3.933-9.499 9.321-.26 5.381 3.581 9.945 8.572 10.178C-4.503 9.559-.261 5.388 0 0" clip-path="url(#ae)" transform="matrix(1.333333 0 0 -1.333333 128.6108 137.08776)"/>
  <path fill="#ecd7c3" fill-rule="evenodd" d="M0 0c.255-5.302-3.53-9.801-8.439-10.036-4.93-.235-9.118 3.879-9.37 9.194-.256 5.307 3.533 9.809 8.456 10.039C-4.441 9.429-.257 5.314 0 0" clip-path="url(#af)" transform="matrix(1.333333 0 0 -1.333333 128.4462 137.09589)"/>
  <path fill="#ebd6c2" fill-rule="evenodd" d="M0 0c.252-5.228-3.481-9.665-8.322-9.896-4.862-.232-8.991 3.825-9.24 9.067-.253 5.233 3.483 9.672 8.338 9.899C-4.38 9.299-.254 5.241 0 0" clip-path="url(#ag)" transform="matrix(1.333333 0 0 -1.333333 128.2817 137.10403)"/>
  <path fill="#ebd6c1" fill-rule="evenodd" d="M0 0c.248-5.154-3.432-9.53-8.205-9.757-4.794-.229-8.865 3.771-9.111 8.939-.249 5.161 3.435 9.537 8.222 9.761C-4.318 9.169-.25 5.168 0 0" clip-path="url(#ah)" transform="matrix(1.333333 0 0 -1.333333 128.1173 137.11229)"/>
  <path fill="#ebd5c0" fill-rule="evenodd" d="M0 0c.245-5.08-3.383-9.394-8.087-9.618-4.727-.226-8.74 3.718-8.982 8.813-.245 5.086 3.386 9.4 8.105 9.621C-4.257 9.039-.246 5.094 0 0" clip-path="url(#ai)" transform="matrix(1.333333 0 0 -1.333333 127.9528 137.12043)"/>
  <path fill="#ead4bf" fill-rule="evenodd" d="M0 0c.241-5.006-3.333-9.258-7.97-9.479-4.658-.223-8.614 3.664-8.853 8.686-.241 5.013 3.337 9.264 7.988 9.482C-4.195 8.909-.242 5.021 0 0" clip-path="url(#aj)" transform="matrix(1.333333 0 0 -1.333333 127.7882 137.12856)"/>
  <path fill="#ead4be" fill-rule="evenodd" d="M0 0c.238-4.932-3.284-9.122-7.853-9.34-4.59-.22-8.488 3.611-8.723 8.559-.238 4.94 3.288 9.128 7.871 9.343C-4.134 8.779-.239 4.947 0 0" clip-path="url(#ak)" transform="matrix(1.333333 0 0 -1.333333 127.6237 137.13669)"/>
  <path fill="#ead3bd" fill-rule="evenodd" d="M0 0c.234-4.859-3.235-8.987-7.736-9.201-4.522-.216-8.362 3.557-8.594 8.432-.234 4.866 3.24 8.992 7.754 9.204C-4.072 8.649-.235 4.874 0 0" clip-path="url(#al)" transform="matrix(1.333333 0 0 -1.333333 127.4592 137.14483)"/>
  <path fill="#e9d2bc" fill-rule="evenodd" d="M0 0c.231-4.785-3.186-8.851-7.619-9.061-4.454-.214-8.236 3.503-8.465 8.304-.23 4.793 3.191 8.856 7.638 9.065C-4.01 8.519-.231 4.8 0 0" clip-path="url(#am)" transform="matrix(1.333333 0 0 -1.333333 127.2946 137.15296)"/>
  <path fill="#e9d2bc" fill-rule="evenodd" d="M0 0c.228-4.711-3.136-8.715-7.502-8.922-4.385-.211-8.11 3.449-8.335 8.177-.227 4.72 3.142 8.72 7.521 8.926C-3.949 8.389-.227 4.727 0 0" clip-path="url(#an)" transform="matrix(1.333333 0 0 -1.333333 127.1302 137.16109)"/>
  <path fill="#e9d1bb" fill-rule="evenodd" d="M0 0c.224-4.637-3.087-8.58-7.385-8.783-4.317-.208-7.983 3.395-8.206 8.05-.223 4.646 3.094 8.584 7.404 8.787C-3.887 8.259-.224 4.653 0 0" clip-path="url(#ao)" transform="matrix(1.333333 0 0 -1.333333 126.9657 137.16923)"/>
  <path fill="#e8d0ba" fill-rule="evenodd" d="M0 0c.221-4.564-3.038-8.444-7.268-8.644-4.249-.205-7.857 3.342-8.076 7.923-.22 4.573 3.044 8.448 7.287 8.648C-3.826 8.129-.22 4.58 0 0" clip-path="url(#ap)" transform="matrix(1.333333 0 0 -1.333333 126.8012 137.17736)"/>
  <path fill="#e8cfb9" fill-rule="evenodd" d="M0 0c.217-4.49-2.989-8.308-7.15-8.505-4.182-.202-7.732 3.288-7.948 7.796-.215 4.5 2.996 8.312 7.17 8.509C-3.764 7.999-.216 4.506 0 0" clip-path="url(#aq)" transform="matrix(1.333333 0 0 -1.333333 126.6366 137.18549)"/>
  <path fill="#e8cfb8" fill-rule="evenodd" d="M0 0c.214-4.416-2.94-8.173-7.033-8.366-4.113-.198-7.606 3.235-7.818 7.669-.212 4.426 2.947 8.176 7.053 8.37C-3.703 7.869-.212 4.433 0 0" clip-path="url(#ar)" transform="matrix(1.333333 0 0 -1.333333 126.4721 137.19363)"/>
  <path fill="#e7ceb7" fill-rule="evenodd" d="M0 0c.211-4.342-2.89-8.037-6.916-8.226-4.045-.196-7.48 3.18-7.689 7.541-.208 4.353 2.898 8.04 6.937 8.231C-3.641 7.739-.209 4.359 0 0" clip-path="url(#as)" transform="matrix(1.333333 0 0 -1.333333 126.3076 137.20176)"/>
  <path fill="#e7cdb6" fill-rule="evenodd" d="M0 0c.207-4.268-2.841-7.901-6.799-8.087-3.977-.193-7.354 3.127-7.56 7.414-.204 4.279 2.85 7.905 6.82 8.092C-3.579 7.609-.205 4.286 0 0" clip-path="url(#at)" transform="matrix(1.333333 0 0 -1.333333 126.1432 137.20989)"/>
  <path fill="#e7cdb5" fill-rule="evenodd" d="M0 0c.204-4.195-2.792-7.766-6.682-7.948-3.909-.19-7.228 3.073-7.43 7.287-.201 4.206 2.801 7.769 6.703 7.953C-3.518 7.479-.201 4.213 0 0" clip-path="url(#au)" transform="matrix(1.333333 0 0 -1.333333 125.9786 137.21803)"/>
  <path fill="#e6ccb4" fill-rule="evenodd" d="M0 0c.2-4.121-2.743-7.63-6.565-7.809-3.84-.187-7.102 3.019-7.301 7.16-.197 4.133 2.752 7.633 6.586 7.814C-3.456 7.349-.197 4.139 0 0" clip-path="url(#av)" transform="matrix(1.333333 0 0 -1.333333 125.8141 137.22616)"/>
  <path fill="#e6cbb3" fill-rule="evenodd" d="M0 0c.197-4.047-2.694-7.494-6.448-7.67-3.772-.183-6.975 2.966-7.171 7.033-.194 4.059 2.703 7.497 6.469 7.675C-3.395 7.219-.194 4.066 0 0" clip-path="url(#aw)" transform="matrix(1.333333 0 0 -1.333333 125.6496 137.23429)"/>
  <path fill="#e6cbb2" fill-rule="evenodd" d="M0 0c.194-3.973-2.644-7.358-6.331-7.531-3.704-.18-6.849 2.912-7.042 6.906-.19 3.986 2.655 7.361 6.352 7.536C-3.333 7.089-.19 3.992 0 0" clip-path="url(#ax)" transform="matrix(1.333333 0 0 -1.333333 125.485 137.24243)"/>
  <path fill="#e5cab1" fill-rule="evenodd" d="M0 0c.19-3.9-2.595-7.223-6.214-7.391-3.636-.178-6.723 2.858-6.912 6.778-.186 3.913 2.605 7.225 6.235 7.397C-3.272 6.959-.186 3.919 0 0" clip-path="url(#ay)" transform="matrix(1.333333 0 0 -1.333333 125.3206 137.25056)"/>
  <path fill="#e5c9b0" fill-rule="evenodd" d="M0 0c.187-3.826-2.546-7.087-6.096-7.252-3.568-.175-6.598 2.804-6.784 6.651-.182 3.839 2.557 7.089 6.119 7.258C-3.21 6.829-.183 3.845 0 0" clip-path="url(#az)" transform="matrix(1.333333 0 0 -1.333333 125.1561 137.25869)"/>
  <path fill="#e5c8af" fill-rule="evenodd" d="M0 0c.183-3.752-2.497-6.951-5.979-7.113-3.5-.172-6.472 2.751-6.655 6.524-.178 3.766 2.509 6.953 6.002 7.119C-3.148 6.699-.179 3.772 0 0" clip-path="url(#aA)" transform="matrix(1.333333 0 0 -1.333333 124.9916 137.26683)"/>
  <path fill="#e4c8ae" fill-rule="evenodd" d="M0 0c.18-3.678-2.448-6.816-5.862-6.974-3.432-.168-6.346 2.697-6.525 6.397-.175 3.693 2.459 6.817 5.885 6.98C-3.087 6.569-.175 3.698 0 0" clip-path="url(#aB)" transform="matrix(1.333333 0 0 -1.333333 124.827 137.27496)"/>
  <path fill="#e4c7ad" fill-rule="evenodd" d="M0 0c.177-3.604-2.398-6.68-5.745-6.835-3.364-.165-6.22 2.644-6.396 6.27-.171 3.619 2.411 6.681 5.768 6.841C-3.025 6.439-.171 3.625 0 0" clip-path="url(#aC)" transform="matrix(1.333333 0 0 -1.333333 124.6625 137.28309)"/>
  <path fill="#e4c6ac" fill-rule="evenodd" d="M0 0c.173-3.531-2.349-6.544-5.628-6.696-3.295-.162-6.093 2.59-6.266 6.143-.168 3.546 2.362 6.545 5.651 6.702C-2.964 6.309-.168 3.551 0 0" clip-path="url(#aD)" transform="matrix(1.333333 0 0 -1.333333 124.498 137.29123)"/>
  <path fill="#e3c6ab" fill-rule="evenodd" d="M0 0c.17-3.457-2.3-6.409-5.511-6.556-3.227-.16-5.967 2.535-6.137 6.015-.164 3.473 2.313 6.409 5.535 6.563C-2.902 6.179-.164 3.478 0 0" clip-path="url(#aE)" transform="matrix(1.333333 0 0 -1.333333 124.3336 137.29936)"/>
  <path fill="#e3c5aa" fill-rule="evenodd" d="M0 0c.166-3.383-2.251-6.273-5.394-6.417-3.159-.157-5.841 2.482-6.007 5.888-.161 3.399 2.264 6.273 5.417 6.424C-2.841 6.049-.16 3.404 0 0" clip-path="url(#aF)" transform="matrix(1.333333 0 0 -1.333333 124.169 137.30749)"/>
  <path fill="#efdecd" fill-rule="evenodd" d="M0 0c.297-6.043-4.01-11.17-9.606-11.431-5.6-.277-10.376 4.418-10.657 10.459-.287 6.052 4.012 11.172 9.616 11.425C-5.057 10.733-.281 6.042 0 0" clip-path="url(#aG)" transform="matrix(1.333333 0 0 -1.333333 77.0746 143.80016)"/>
  <path fill="#efddcc" fill-rule="evenodd" d="M0 0c.293-5.97-3.961-11.034-9.489-11.292-5.532-.274-10.25 4.364-10.528 10.332-.284 5.978 3.964 11.023 9.499 11.286C-4.995 10.589-.278 5.968 0 0" clip-path="url(#aH)" transform="matrix(1.333333 0 0 -1.333333 76.9105 143.80806)"/>
  <path fill="#eeddcb" fill-rule="evenodd" d="M0 0c.29-5.896-3.913-10.899-9.373-11.154-5.463-.27-10.123 4.311-10.398 10.206-.28 5.904 3.915 10.887 9.383 11.147C-4.934 10.458-.274 5.894 0 0" clip-path="url(#aI)" transform="matrix(1.333333 0 0 -1.333333 76.7464 143.81586)"/>
  <path fill="#eedcca" fill-rule="evenodd" d="M0 0c.286-5.823-3.864-10.763-9.256-11.015-5.396-.267-9.997 4.257-10.269 10.078-.277 5.831 3.867 10.752 9.266 11.009C-4.872 10.328-.271 5.821 0 0" clip-path="url(#aJ)" transform="matrix(1.333333 0 0 -1.333333 76.5822 143.82366)"/>
  <path fill="#eedbc9" fill-rule="evenodd" d="M0 0c.282-5.75-3.815-10.628-9.14-10.876-5.327-.264-9.87 4.204-10.139 9.951-.273 5.757 3.818 10.617 9.149 10.87C-4.811 10.198-.268 5.747 0 0" clip-path="url(#aK)" transform="matrix(1.333333 0 0 -1.333333 76.4181 143.83146)"/>
  <path fill="#eddbc8" fill-rule="evenodd" d="M0 0c.278-5.676-3.766-10.492-9.023-10.737-5.259-.26-9.744 4.15-10.01 9.824-.27 5.683 3.769 10.481 9.032 10.731C-4.75 10.067-.265 5.674 0 0" clip-path="url(#aL)" transform="matrix(1.333333 0 0 -1.333333 76.254 143.83946)"/>
  <path fill="#eddac7" fill-rule="evenodd" d="M0 0c.274-5.603-3.718-10.356-8.907-10.599-5.191-.256-9.617 4.097-9.88 9.698-.266 5.609 3.721 10.345 8.916 10.592C-4.688 9.937-.262 5.6 0 0" clip-path="url(#aM)" transform="matrix(1.333333 0 0 -1.333333 76.0898 143.84726)"/>
  <path fill="#edd9c6" fill-rule="evenodd" d="M0 0c.27-5.53-3.669-10.221-8.79-10.46-5.123-.253-9.491 4.043-9.751 9.57-.263 5.536 3.672 10.211 8.799 10.454C-4.627 9.806-.258 5.526 0 0" clip-path="url(#aN)" transform="matrix(1.333333 0 0 -1.333333 75.9257 143.85506)"/>
  <path fill="#ecd8c5" fill-rule="evenodd" d="M0 0c.267-5.456-3.62-10.085-8.674-10.321-5.054-.25-9.364 3.99-9.621 9.443-.259 5.462 3.623 10.075 8.682 10.315C-4.565 9.676-.255 5.453 0 0" clip-path="url(#aO)" transform="matrix(1.333333 0 0 -1.333333 75.7616 143.86286)"/>
  <path fill="#ecd8c4" fill-rule="evenodd" d="M0 0c.263-5.383-3.571-9.95-8.557-10.183-4.987-.246-9.238 3.937-9.492 9.317-.256 5.388 3.574 9.939 8.566 10.176C-4.504 9.545-.252 5.379 0 0" clip-path="url(#aP)" transform="matrix(1.333333 0 0 -1.333333 75.5974 143.87066)"/>
  <path fill="#ecd7c3" fill-rule="evenodd" d="M0 0c.259-5.31-3.523-9.814-8.441-10.044-4.918-.242-9.111 3.883-9.362 9.189-.253 5.315 3.526 9.805 8.449 10.038C-4.443 9.415-.249 5.306 0 0" clip-path="url(#aQ)" transform="matrix(1.333333 0 0 -1.333333 75.4333 143.87856)"/>
  <path fill="#ebd6c2" fill-rule="evenodd" d="M0 0c.255-5.236-3.474-9.679-8.324-9.905-4.85-.239-8.985 3.829-9.233 9.062-.249 5.241 3.477 9.678 8.332 9.898C-4.382 9.294-.245 5.232 0 0" clip-path="url(#aR)" transform="matrix(1.333333 0 0 -1.333333 75.2692 143.88626)"/>
  <path fill="#ebd6c1" fill-rule="evenodd" d="M0 0c.251-5.163-3.425-9.543-8.208-9.766-4.781-.236-8.858 3.776-9.103 8.935-.246 5.167 3.428 9.542 8.216 9.759C-4.32 9.163-.242 5.159 0 0" clip-path="url(#aS)" transform="matrix(1.333333 0 0 -1.333333 75.105 143.89426)"/>
  <path fill="#ebd5c0" fill-rule="evenodd" d="M0 0c.248-5.09-3.376-9.407-8.091-9.628-4.714-.232-8.732 3.723-8.974 8.808-.242 5.095 3.379 9.407 8.099 9.621C-4.259 9.033-.239 5.085 0 0" clip-path="url(#aT)" transform="matrix(1.333333 0 0 -1.333333 74.9409 143.90216)"/>
  <path fill="#ead4bf" fill-rule="evenodd" d="M0 0c.244-5.016-3.327-9.272-7.975-9.489-4.645-.229-8.605 3.669-8.844 8.681-.239 5.021 3.331 9.271 7.982 9.482C-4.197 8.902-.236 5.011 0 0" clip-path="url(#aU)" transform="matrix(1.333333 0 0 -1.333333 74.7768 143.90986)"/>
  <path fill="#ead4be" fill-rule="evenodd" d="M0 0c.24-4.943-3.279-9.136-7.858-9.35-4.577-.226-8.479 3.615-8.715 8.554-.235 4.947 3.282 9.135 7.866 9.343C-4.136 8.771-.232 4.938 0 0" clip-path="url(#aV)" transform="matrix(1.333333 0 0 -1.333333 74.6126 143.91776)"/>
  <path fill="#ead3bd" fill-rule="evenodd" d="M0 0c.236-4.87-3.23-9-7.742-9.212-4.509-.221-8.352 3.562-8.585 8.427-.232 4.874 3.233 9 7.749 9.205C-4.075 8.64-.229 4.864 0 0" clip-path="url(#aW)" transform="matrix(1.333333 0 0 -1.333333 74.4485 143.92546)"/>
  <path fill="#e9d2bc" fill-rule="evenodd" d="M0 0c.232-4.796-3.181-8.865-7.625-9.073-4.441-.218-8.226 3.509-8.456 8.3-.228 4.8 3.185 8.864 7.632 9.066C-4.013 8.51-.226 4.791 0 0" clip-path="url(#aX)" transform="matrix(1.333333 0 0 -1.333333 74.2844 143.93336)"/>
  <path fill="#e9d2bc" fill-rule="evenodd" d="M0 0c.229-4.723-3.132-8.729-7.509-8.934-4.372-.215-8.099 3.455-8.326 8.173-.225 4.726 3.136 8.728 7.515 8.927C-3.952 8.379-.223 4.717 0 0" clip-path="url(#aY)" transform="matrix(1.333333 0 0 -1.333333 74.1202 143.94126)"/>
  <path fill="#e9d1bb" fill-rule="evenodd" d="M0 0c.225-4.65-3.084-8.594-7.392-8.795-4.305-.212-7.973 3.401-8.197 8.045-.221 4.653 3.087 8.593 7.399 8.789C-3.89 8.248-.219 4.643 0 0" clip-path="url(#aZ)" transform="matrix(1.333333 0 0 -1.333333 73.9561 143.94896)"/>
  <path fill="#e8d0ba" fill-rule="evenodd" d="M0 0c.221-4.576-3.035-8.458-7.276-8.657-4.236-.208-7.846 3.348-8.067 7.919-.218 4.579 3.039 8.457 7.282 8.65C-3.829 8.117-.216 4.57 0 0" clip-path="url(#ba)" transform="matrix(1.333333 0 0 -1.333333 73.792 143.95696)"/>
  <path fill="#e8cfb9" fill-rule="evenodd" d="M0 0c.217-4.503-2.986-8.323-7.159-8.518-4.168-.204-7.72 3.294-7.938 7.792-.215 4.505 2.99 8.321 7.165 8.511C-3.768 7.987-.213 4.496 0 0" clip-path="url(#bb)" transform="matrix(1.333333 0 0 -1.333333 73.6278 143.96486)"/>
  <path fill="#e8cfb8" fill-rule="evenodd" d="M0 0c.213-4.43-2.937-8.187-7.043-8.379-4.1-.201-7.593 3.241-7.808 7.665-.211 4.431 2.941 8.185 7.049 8.372C-3.706 7.856-.21 4.423 0 0" clip-path="url(#bc)" transform="matrix(1.333333 0 0 -1.333333 73.4637 143.97256)"/>
  <path fill="#e7ceb7" fill-rule="evenodd" d="M0 0c.21-4.356-2.889-8.051-6.926-8.24-4.032-.198-7.467 3.187-7.679 7.537-.208 4.358 2.893 8.05 6.932 8.234C-3.645 7.725-.207 4.349 0 0" clip-path="url(#bd)" transform="matrix(1.333333 0 0 -1.333333 73.2996 143.98046)"/>
  <path fill="#e7cdb6" fill-rule="evenodd" d="M0 0c.206-4.283-2.84-7.916-6.81-8.102-3.963-.194-7.34 3.134-7.549 7.411-.204 4.284 2.844 7.914 6.815 8.095C-3.583 7.594-.203 4.276 0 0" clip-path="url(#be)" transform="matrix(1.333333 0 0 -1.333333 73.1354 143.98816)"/>
  <path fill="#e7cdb5" fill-rule="evenodd" d="M0 0c.202-4.21-2.791-7.78-6.693-7.963-3.896-.191-7.214 3.08-7.42 7.284-.201 4.21 2.795 7.778 6.699 7.956C-3.522 7.464-.2 4.202 0 0" clip-path="url(#bf)" transform="matrix(1.333333 0 0 -1.333333 72.9713 143.99606)"/>
  <path fill="#e6ccb4" fill-rule="evenodd" d="M0 0c.198-4.136-2.742-7.645-6.577-7.824-3.827-.188-7.087 3.027-7.29 7.156-.197 4.137 2.747 7.643 6.582 7.818C-3.461 7.333-.197 4.128 0 0" clip-path="url(#bg)" transform="matrix(1.333333 0 0 -1.333333 72.8072 144.00386)"/>
  <path fill="#e6cbb3" fill-rule="evenodd" d="M0 0c.194-4.063-2.694-7.509-6.46-7.686-3.759-.183-6.96 2.974-7.161 7.03-.194 4.064 2.698 7.507 6.465 7.679C-3.399 7.202-.194 4.055 0 0" clip-path="url(#bh)" transform="matrix(1.333333 0 0 -1.333333 72.643 144.01176)"/>
  <path fill="#e6cbb2" fill-rule="evenodd" d="M0 0c.191-3.99-2.645-7.373-6.344-7.547-3.691-.18-6.833 2.92-7.032 6.903-.189 3.99 2.65 7.371 6.35 7.54C-3.338 7.071-.19 3.981 0 0" clip-path="url(#bi)" transform="matrix(1.333333 0 0 -1.333333 72.4789 144.01966)"/>
  <path fill="#e5cab1" fill-rule="evenodd" d="M0 0c.187-3.916-2.596-7.238-6.227-7.408-3.623-.177-6.707 2.866-6.903 6.776-.186 3.916 2.602 7.235 6.233 7.4C-3.276 6.941-.187 3.908 0 0" clip-path="url(#bj)" transform="matrix(1.333333 0 0 -1.333333 72.3148 144.02746)"/>
  <path fill="#e5c9b0" fill-rule="evenodd" d="M0 0c.183-3.843-2.547-7.102-6.111-7.27-3.554-.173-6.58 2.813-6.773 6.649-.182 3.843 2.553 7.1 6.116 7.262C-3.215 6.81-.184 3.834 0 0" clip-path="url(#bk)" transform="matrix(1.333333 0 0 -1.333333 72.1506 144.03526)"/>
  <path fill="#e5c8af" fill-rule="evenodd" d="M0 0c.179-3.77-2.499-6.967-5.994-7.131-3.487-.17-6.454 2.76-6.644 6.522-.179 3.769 2.504 6.963 5.999 7.123C-3.154 6.679-.181 3.76 0 0" clip-path="url(#bl)" transform="matrix(1.333333 0 0 -1.333333 71.9865 144.04306)"/>
  <path fill="#e4c8ae" fill-rule="evenodd" d="M0 0c.175-3.696-2.45-6.831-5.878-6.992-3.418-.166-6.327 2.706-6.514 6.395-.176 3.695 2.456 6.827 5.883 6.984C-3.092 6.548-.177 3.687 0 0" clip-path="url(#bm)" transform="matrix(1.333333 0 0 -1.333333 71.8224 144.05086)"/>
  <path fill="#e4c7ad" fill-rule="evenodd" d="M0 0c.172-3.623-2.401-6.696-5.761-6.853-3.35-.163-6.201 2.652-6.385 6.267-.172 3.622 2.407 6.692 5.766 6.846C-3.031 6.417-.174 3.613 0 0" clip-path="url(#bn)" transform="matrix(1.333333 0 0 -1.333333 71.6582 144.05866)"/>
  <path fill="#e4c6ac" fill-rule="evenodd" d="M0 0c.168-3.55-2.352-6.56-5.645-6.715-3.282-.159-6.074 2.599-6.255 6.141-.169 3.548 2.358 6.556 5.649 6.707C-2.969 6.287-.171 3.54 0 0" clip-path="url(#bo)" transform="matrix(1.333333 0 0 -1.333333 71.4941 144.06646)"/>
  <path fill="#e3c6ab" fill-rule="evenodd" d="M0 0c.164-3.476-2.304-6.424-5.528-6.576-3.214-.156-5.948 2.546-6.126 6.014-.165 3.474 2.31 6.42 5.533 6.568C-2.908 6.156-.168 3.466 0 0" clip-path="url(#bp)" transform="matrix(1.333333 0 0 -1.333333 71.33 144.07446)"/>
  <path fill="#e3c5aa" fill-rule="evenodd" d="M0 0c.16-3.403-2.255-6.289-5.412-6.437-3.145-.153-5.821 2.492-5.996 5.886-.162 3.401 2.261 6.285 5.416 6.43C-2.847 6.025-.165 3.393 0 0" clip-path="url(#bq)" transform="matrix(1.333333 0 0 -1.333333 71.1658 144.08226)"/>
  <path fill="#1d3764" d="M0 0c-2.385-.103-4.992-1.021-6.015-3.126-.414-.872 1.775-3.234 3.19-2.161.877.675 2.493 2.65 6.147 1.977 1.395-.257 4.814-2.307 4.841-1.45C8.179-4.246 4.232.202 0 0" clip-path="url(#br)" transform="matrix(1.333333 0 0 -1.333333 88.901 63.60203)"/>
  <path fill="#1d3764" d="M0 0c1.021-.343 3.462 3.365 4.653 4.145 3.106 2.041 5.82.904 6.911.641 1.71-.441 2.343 2.502 1.619 3.14-1.766 1.551-4.511 1.369-6.758.558C2.448 7.029-.483.156 0 0" clip-path="url(#bs)" transform="matrix(1.333333 0 0 -1.333333 41.9786 109.27363)"/>
  <path fill="#1d3764" d="M0 0c-3.812 11.069-12.878 10.423-15.113 7.741-1.494 7.465-4.268 20.404-14.167 30.935-12.422 13.383-23.111 15.229-41.088 14.364-17.14-.811-14.355 15.143-15.325 14.414-.972-.716-3.345-7.553.246-12.264 3.952-5.38 11.904-5.212 14.873-4.861 9.626 1.167 30.014 1.221 42.763-17.643 6.679-9.448 10.047-23.6 10.717-27.102-.946-1.404-1.487-3.579-1.95-4.978-.317-.951 2.417-1.228 2.967.949.714 5.064 5.509 6.541 10.283 3.388C-.018 1.136-.095-11.291-4.076-15.833c-3.361-3.826-8.339-2.5-8.485-3.114-.141-.629 2.561-1.463 5.611-1.083 1.611-5.477-.784-21.7-6.413-31.443-13.183-20.321-31.768-22.383-49.755-19.192-16.957 4.863-24.992 15.637-26.647 18.749 1.295 1.073 1.974 2.798 1.708 2.929-.255.141-1.93-1.759-4.932-2.407-10.03-1.484-16.839 7.098-15.267 16.598 1.112 6.447 8.832 5.316 10.429 3.537 1.803-1.477 3.349-.352 1.423 1.92-2.343 2.411-6.585 2.773-6.585 2.773s-9.301 22.094-6.483 41.887c2.837 19.974 14.684 28.064 16.712 29.295 2.033 1.225-.447 2.027-3.483.455-1.869-.964-14.539-9.61-16.851-31.615-1.944-11.964 3.125-28.167 7.66-40.531-1.506-.073-9.695-6.508-3.85-18.194 5.026-10.038 14.62-9.743 16.584-8.814 2.951-5.248 22.442-24.108 48.772-20.058 26.341 4.04 42.509 26.098 39.464 54.735 0 0 9.173 5.779 4.464 19.406m-77.853 47.631c-6.724-.151-10.477.857-14.358 4.705-4.084 4.054-2.146 13.19.465 18.371-.103 2.019-12.605-11.038-4.438-20.078 7.352-8.113 19.08-4.481 18.331-2.998" clip-path="url(#bt)" transform="matrix(1.333333 0 0 -1.333333 151.3612 94.55456)"/>
  <path fill="#1d3764" d="M0 0c1.811.855 3.321 1.388 1.459 1.912C-1.995 3.138-9.857 3.154-15.847-.459-19.806-3.034-9.097 1.716-4.729.776c-2.787-.924-12.43-9.224-13.844-18.232C-13.61-8.59-3.173-1.227 0 0" clip-path="url(#bu)" transform="matrix(1.333333 0 0 -1.333333 66.2936 121.66789)"/>
  <path fill="#1d3764" d="M0 0c2.502.008 2.072.887 1.51 1.162-2.971 2.401-6.682 1.593-8.466-.101-1.169-1.22 3.818 1.694 5.038.083-.835-.416-4.525-4.365-.602-8.014C-3.181-1.716-.822-.152 0 0" clip-path="url(#bv)" transform="matrix(1.333333 0 0 -1.333333 21.5958 148.88046)"/>
  <path fill="#1d3764" d="M0 0c-1.974-1.516-2.179-.576-1.9-.004.871 3.711 4.283 5.362 6.732 5.113C6.508 4.883.78 4.097.818 2.102c.912.16 6.237-.683 5.407-5.972C3.571.606.748.402 0 0" clip-path="url(#bw)" transform="matrix(1.333333 0 0 -1.333333 135.8133 103.26923)"/>
  <path fill="#1d3764" d="M0 0c2.114-7.383-.311-14.547-5.382-15.982-5.075-1.471-11.334 3.85-13.44 11.231-2.11 7.39.608 14.407 5.695 15.87C-8.048 12.565-2.11 7.395 0 0" clip-path="url(#bx)" transform="matrix(1.333333 0 0 -1.333333 111.44 100.43763)"/>
  <path fill="#fff" d="M0 0c1.859-6.492.149-12.642-4.299-13.913-4.458-1.265-9.288 3.05-11.132 9.553-1.861 6.498.221 12.478 4.673 13.752C-6.314 10.661-1.857 6.511 0 0" clip-path="url(#by)" transform="matrix(1.333333 0 0 -1.333333 109.1201 100.13443)"/>
  <path fill="#1d3764" d="M0 0c1.669-5.432-.576-11.6-3.826-12.597-1.97-.618-6.044 2.957-7.696 8.396-1.663 5.442-.038 10.769 3.177 11.861C-4.272 9.028-1.643 5.435 0 0" clip-path="url(#bz)" transform="matrix(1.333333 0 0 -1.333333 110.5113 100.99429)"/>
  <path fill="#fff" d="M0 0c-.491-.028-.863-.509-.831-1.103.025-.6.439-1.063.94-1.035.471.024.847.519.815 1.116C.897-.43.473.014 0 0m-3.575 3.272c-1.211-.076-2.142-1.32-2.072-2.807.071-1.487 1.116-2.641 2.327-2.579 1.228.059 2.158 1.3 2.081 2.799-.066 1.48-1.107 2.636-2.336 2.587" clip-path="url(#bA)" transform="matrix(1.333333 0 0 -1.333333 102.4722 99.26296)"/>
  <path fill="#1d3764" d="M0 0s-1.498-3.85-4.79-3.518c-1.546.159-.455-1.783-.455-1.783s1.225-.233 2.106.177c.481-1.505 2.381-14.112 16.997-15.937C29.982-22.959 33.557-7.886 34.206-4.064c2.544-.15 2.027 1.135 2.797 2.611-1.057-.498-2.488-.728-3.351-.398-.928.38-2.106.901-3.234 2.225-1.738 2.019.78-2.547 1.524-3.23.748-.653-2.065-16.287-15.828-16.016C5.792-18.693.426-12.061-.806-3.806.148-2.989.912-1.421 0 0" clip-path="url(#bB)" transform="matrix(1.333333 0 0 -1.333333 69.1281 144.70016)"/>
  <path fill="#1d3764" d="M0 0s1.39 2.843 4.266 3.496c1.447.32 3.266.085 5.485-1.336-.543 1.951-2.688 4.315-6.224 3.612C.006 5.067-.592 2.504 0 0" clip-path="url(#bC)" transform="matrix(1.333333 0 0 -1.333333 81.6248 134.95096)"/>
</svg>
