<svg xmlns="http://www.w3.org/2000/svg" viewBox="0 0 905.76532 136.29785">
  <defs>
    <clipPath id="c" clipPathUnits="userSpaceOnUse"/>
    <clipPath id="f" clipPathUnits="userSpaceOnUse"/>
    <clipPath id="i" clipPathUnits="userSpaceOnUse">
      <path d="M-240.90713 855.4067h1080v-1920h-1080Z"/>
    </clipPath>
    <clipPath id="j" clipPathUnits="userSpaceOnUse">
      <path d="M-259.54801 865.6805h1080v-1920h-1080Z"/>
    </clipPath>
    <clipPath id="k" clipPathUnits="userSpaceOnUse">
      <path d="M-279.88951 853.0115h1080v-1920h-1080Z"/>
    </clipPath>
    <clipPath id="l" clipPathUnits="userSpaceOnUse">
      <path d="M-292.35031 844.1555h1080v-1920h-1080Z"/>
    </clipPath>
    <clipPath id="m" clipPathUnits="userSpaceOnUse">
      <path d="M-307.38871 847.272h1080v-1920h-1080Z"/>
    </clipPath>
    <clipPath id="n" clipPathUnits="userSpaceOnUse">
      <path d="M-324.26648 845.4971h1080v-1920h-1080Z"/>
    </clipPath>
    <clipPath id="o" clipPathUnits="userSpaceOnUse">
      <path d="M-340.44031 845.2145h1080v-1920h-1080Z"/>
    </clipPath>
    <clipPath id="p" clipPathUnits="userSpaceOnUse">
      <path d="M-351.52141 859.3638h1080v-1920h-1080Z"/>
    </clipPath>
    <clipPath id="q" clipPathUnits="userSpaceOnUse">
      <path d="M-363.70441 837.6327h1080v-1920h-1080Z"/>
    </clipPath>
    <clipPath id="r" clipPathUnits="userSpaceOnUse">
      <path d="M-388.91821 860.8467h1080v-1920h-1080Z"/>
    </clipPath>
    <clipPath id="s" clipPathUnits="userSpaceOnUse">
      <path d="M-411.82771 849.4182h1080v-1920h-1080Z"/>
    </clipPath>
    <clipPath id="t" clipPathUnits="userSpaceOnUse">
      <path d="M-424.39869 846.381h1080v-1920h-1080Z"/>
    </clipPath>
    <clipPath id="u" clipPathUnits="userSpaceOnUse">
      <path d="M-439.05361 852.1539h1080v-1920h-1080Z"/>
    </clipPath>
    <clipPath id="v" clipPathUnits="userSpaceOnUse">
      <path d="M-455.92681 853.1552h1080v-1920h-1080Z"/>
    </clipPath>
    <clipPath id="w" clipPathUnits="userSpaceOnUse">
      <path d="M-467.40084 851.3418h1080v-1920h-1080Z"/>
    </clipPath>
    <clipPath id="x" clipPathUnits="userSpaceOnUse">
      <path d="M-477.32251 870.0402h1080v-1920h-1080Z"/>
    </clipPath>
    <clipPath id="y" clipPathUnits="userSpaceOnUse">
      <path d="M-487.73769 866.1932h1080v-1920h-1080Z"/>
    </clipPath>
    <clipPath id="z" clipPathUnits="userSpaceOnUse">
      <path d="M-505.56894 864.5451h1080v-1920h-1080Z"/>
    </clipPath>
    <clipPath id="A" clipPathUnits="userSpaceOnUse">
      <path d="M-514.22094 874.9914h1080v-1920h-1080Z"/>
    </clipPath>
    <clipPath id="B" clipPathUnits="userSpaceOnUse">
      <path d="M-536.07661 875.7629h1080v-1920h-1080Z"/>
    </clipPath>
    <clipPath id="C" clipPathUnits="userSpaceOnUse">
      <path d="M-554.50681 881.2242h1080v-1920h-1080Z"/>
    </clipPath>
    <clipPath id="D" clipPathUnits="userSpaceOnUse">
      <path d="M-574.84359 874.2681h1080v-1920h-1080Z"/>
    </clipPath>
    <clipPath id="E" clipPathUnits="userSpaceOnUse">
      <path d="M-587.30919 868.4138h1080v-1920h-1080Z"/>
    </clipPath>
    <clipPath id="F" clipPathUnits="userSpaceOnUse">
      <path d="M-602.35224 874.6395h1080v-1920h-1080Z"/>
    </clipPath>
    <clipPath id="G" clipPathUnits="userSpaceOnUse">
      <path d="M-619.22529 875.6931h1080v-1920h-1080Z"/>
    </clipPath>
    <clipPath id="H" clipPathUnits="userSpaceOnUse">
      <path d="M-635.39424 877.4514h1080v-1920h-1080Z"/>
    </clipPath>
    <clipPath id="I" clipPathUnits="userSpaceOnUse">
      <path d="M-646.48494 892.6481h1080v-1920h-1080Z"/>
    </clipPath>
    <clipPath id="J" clipPathUnits="userSpaceOnUse">
      <path d="M-658.65834 871.7097h1080v-1920h-1080Z"/>
    </clipPath>
    <clipPath id="K" clipPathUnits="userSpaceOnUse">
      <path d="M-683.86764 895.4001h1080v-1920h-1080Z"/>
    </clipPath>
    <clipPath id="L" clipPathUnits="userSpaceOnUse">
      <path d="M-707.56262 879.7463h1080v-1920h-1080Z"/>
    </clipPath>
    <clipPath id="M" clipPathUnits="userSpaceOnUse">
      <path d="M-725.18319 883.143h1080v-1920h-1080Z"/>
    </clipPath>
    <clipPath id="N" clipPathUnits="userSpaceOnUse">
      <path d="M-761.68884 875.9184h1080v-1920h-1080Z"/>
    </clipPath>
    <clipPath id="O" clipPathUnits="userSpaceOnUse">
      <path d="M-778.49499 883.8207h1080v-1920h-1080Z"/>
    </clipPath>
    <clipPath id="P" clipPathUnits="userSpaceOnUse">
      <path d="M-786.19359 876.8264h1080v-1920h-1080Z"/>
    </clipPath>
    <clipPath id="Q" clipPathUnits="userSpaceOnUse">
      <path d="M-821.43002 864.6936h1080v-1920h-1080Z"/>
    </clipPath>
    <linearGradient id="a" x1="0" x2="1" y1="0" y2="0" gradientTransform="rotate(180 435.49054 524.37185) scale(679.1748)" gradientUnits="userSpaceOnUse" spreadMethod="pad">
      <stop offset="0" stop-color="#fff" stop-opacity="0"/>
      <stop offset=".095084" stop-color="#fff"/>
      <stop offset=".200629" stop-color="#fff"/>
      <stop offset=".551239" stop-color="#fff"/>
      <stop offset=".800001" stop-color="#fff"/>
      <stop offset="1" stop-color="#fff" stop-opacity="0"/>
    </linearGradient>
    <linearGradient id="e" x1="0" x2="1" y1="0" y2="0" gradientTransform="rotate(180 435.49054 524.37185) scale(679.1748)" gradientUnits="userSpaceOnUse" spreadMethod="pad">
      <stop offset="0" stop-color="#90ccf0 icc-color(sRGB IEC61966-2 .1,.56469727,.79998779,.94116211)"/>
      <stop offset=".095084" stop-color="#5fa0d7 icc-color(sRGB IEC61966-2 .1,.37254333,.62744141,.84312439)"/>
      <stop offset=".200629" stop-color="#5fa0d7 icc-color(sRGB IEC61966-2 .1,.37254333,.62744141,.84312439)"/>
      <stop offset=".551239" stop-color="#5fa0d7 icc-color(sRGB IEC61966-2 .1,.37254333,.62744141,.84312439)"/>
      <stop offset=".800001" stop-color="#5fa0d7 icc-color(sRGB IEC61966-2 .1,.37254333,.62744141,.84312439)"/>
      <stop offset="1" stop-color="#90ccf0 icc-color(sRGB IEC61966-2 .1,.56469727,.79998779,.94116211)"/>
    </linearGradient>
    <linearGradient id="b" x1="0" x2="1" y1="0" y2="0" gradientTransform="matrix(679.17944 0 0 -679.17944 191.26202 1056.0953)" gradientUnits="userSpaceOnUse" spreadMethod="pad">
      <stop offset="0" stop-color="#fff" stop-opacity="0"/>
      <stop offset="0" stop-color="#fff" stop-opacity="0"/>
      <stop offset=".102275" stop-color="#fff"/>
      <stop offset=".198757" stop-color="#fff"/>
      <stop offset=".800606" stop-color="#fff"/>
      <stop offset=".897397" stop-color="#fff"/>
      <stop offset="1" stop-color="#fff" stop-opacity="0"/>
    </linearGradient>
    <linearGradient id="h" x1="0" x2="1" y1="0" y2="0" gradientTransform="matrix(679.17944 0 0 -679.17944 191.26202 1056.0953)" gradientUnits="userSpaceOnUse" spreadMethod="pad">
      <stop offset="0" stop-color="#1d3764"/>
      <stop offset="0" stop-color="#1d3764"/>
      <stop offset=".102275" stop-color="#1d3764"/>
      <stop offset=".198757" stop-color="#1d3764"/>
      <stop offset=".800606" stop-color="#1d3764"/>
      <stop offset=".897397" stop-color="#1d3764"/>
      <stop offset="1" stop-color="#1d3764"/>
    </linearGradient>
    <mask id="d" width="1" height="1" x="0" y="0" maskUnits="userSpaceOnUse">
      <path fill="url(#a)" d="M-32768 32767h65535v-65535h-65535Z"/>
    </mask>
    <mask id="g" width="1" height="1" x="0" y="0" maskUnits="userSpaceOnUse">
      <path fill="url(#b)" d="M-32768 32767h65535v-65535h-65535Z"/>
    </mask>
  </defs>
  <g clip-path="url(#c)" mask="url(#d)" transform="translate(-6095.7413 -1088.6227)">
    <path fill="url(#e)" d="M191.806 1078.819v-60.145c113.179 30.072 226.366 15.034 339.559 0 113.2-15.038 226.406-30.076 339.616 0v60.145c-113.208-30.073-226.412-15.037-339.609-.001-65.359 8.682-130.703 17.363-196.056 17.362-47.834-.001-95.679-4.653-143.51-17.361" transform="matrix(1.333333 0 0 -1.333333 5840 2560)"/>
  </g>
  <g clip-path="url(#f)" mask="url(#g)" transform="translate(-6095.7413 -1088.6227)">
    <path fill="url(#h)" d="M191.95 1086.17v-60.152c113.182 30.076 226.374 15.039 339.575 0 113.194-15.036 226.397-30.074 339.605 0v60.152c-113.213-30.077-226.419-15.039-339.618-.001-65.358 8.683-130.702 17.365-196.055 17.364-47.833-.001-95.677-4.653-143.507-17.363" transform="matrix(1.333333 0 0 -1.333333 5840 2560)"/>
  </g>
  <path fill="#fff" d="M0 0c.421.01.91.067 1.456.175.614.124 1.251.316 1.912.563.666.249 1.265.615 1.811 1.102.546.481.991 1.121 1.351 1.911.354.791.532 1.77.532 2.954 0 1.262-.206 2.206-.623 2.838-.412.63-.91 1.057-1.49 1.275-.58.215-1.179.302-1.792.261-.613-.046-1.112-.103-1.49-.18-.402-.079-.728-.158-.977-.235-.249-.074-.479-.165-.69-.259Zm-4.767 10.82c0 .369.029.637.091.807.058.175.216.34.475.501.186.115.502.268.948.443.445.17.963.342 1.538.515.58.175 1.188.343 1.82.515.637.165 1.26.314 1.874.436.349.069.847.158 1.48.256.637.096 1.327.134 2.065.12.742-.014 1.494-.115 2.261-.302.766-.187 1.461-.534 2.084-1.039.623-.503 1.126-1.188 1.518-2.051.389-.865.58-1.99.58-3.385 0-1.525-.263-2.876-.795-4.062C10.64 2.388 9.926 1.372 9.031.527c-.901-.848-1.95-1.545-3.153-2.103-1.202-.556-2.481-.97-3.823-1.236-.378-.077-.699-.134-.958-.173C.838-3.023.469-3.066 0-3.112v-10.561c0-.367-.067-.613-.196-.731-.125-.115-.322-.201-.575-.256-1.294-.263-1.936-.4-3.224-.675-.331-.044-.537-.019-.633.079-.096.095-.139.304-.139.618z" clip-path="url(#i)" transform="matrix(1.333333 0 0 -1.333333 65.4682 51.9196)"/>
  <path fill="#fff" d="M0 0c-.029-.316-.077-.544-.158-.673-.082-.132-.278-.223-.585-.273-1.154-.189-1.739-.283-2.893-.482-.307-.05-.513-.031-.618.055-.106.084-.158.297-.158.645v16.471c0 .601.057 1.075.172 1.408.12.335.407.671.848 1.008.613.465 1.504.944 2.668 1.406 1.165.468 2.429.808 3.795 1.016.541.084 1.073.122 1.59.108.518-.014.973-.108 1.361-.273.383-.163.699-.424.934-.771.235-.346.35-.808.35-1.385 0-.604-.168-1.135-.508-1.593-.345-.457-.795-.726-1.36-.807-.47-.07-.825.012-1.059.251-.235.24-.475.597-.743.971-.144.21-.364.421-.599.634-.235.214-.623.28-1.164.194-.469-.072-.829-.208-1.083-.4-.244-.201-.426-.426-.541-.682-.12-.257-.192-.523-.216-.803C.01 15.747 0 15.486 0 15.254Z" clip-path="url(#j)" transform="matrix(1.333333 0 0 -1.333333 90.3227 65.618)"/>
  <path fill="#fff" d="M0 0c-.101 2.345-.522 4.113-1.274 5.287-.752 1.166-1.663 1.689-2.717 1.557-.613-.077-1.15-.336-1.609-.774-.46-.438-.839-1.004-1.15-1.686-.302-.683-.537-1.476-.704-2.381-.163-.896-.245-1.85-.245-2.844 0-1.106.096-2.129.297-3.076.202-.948.479-1.767.829-2.457.355-.69.781-1.21 1.275-1.567.493-.359 1.034-.498 1.624-.426.565.072 1.082.331 1.552.783.469.451.867 1.045 1.202 1.794.326.75.575 1.617.743 2.611C-.014-2.187.043-1.123 0 0m4.585.273c.029-1.437-.139-2.848-.494-4.211-.354-1.368-.886-2.585-1.609-3.662-.719-1.081-1.61-1.991-2.678-2.715-1.069-.728-2.29-1.175-3.656-1.343-1.293-.163-2.462-.036-3.492.381-1.035.412-1.921 1.044-2.65 1.904-.728.857-1.288 1.909-1.676 3.155-.393 1.245-.585 2.632-.585 4.156 0 1.523.202 2.972.604 4.343.397 1.37.963 2.582 1.706 3.643.742 1.061 1.633 1.935 2.668 2.608 1.035.674 2.199 1.09 3.497 1.253 1.433.177 2.678.005 3.723-.515C.992 8.748 1.849 8.015 2.52 7.081c.671-.937 1.179-2.01 1.519-3.222.34-1.21.527-2.412.546-3.586" clip-path="url(#k)" transform="matrix(1.333333 0 0 -1.333333 117.4447 48.726)"/>
  <path fill="#fff" d="M0 0v-12.181c0-.292.014-.646.038-1.063.024-.419.111-.815.259-1.193.158-.383.398-.704.723-.963.331-.259.801-.391 1.38-.352.441.026.819.028 1.112-.024.292-.055.44-.343.44-.867 0-.292-.11-.549-.33-.776-.225-.233-.503-.432-.834-.602-.326-.175-.694-.318-1.097-.431-.393-.112-.776-.191-1.13-.22-.968-.089-1.773.012-2.396.292-.627.28-1.126.642-1.48 1.078-.494.625-.791 1.289-.887 1.962-.095.673-.143 1.327-.143 1.957V-.419c-.676-.065-1.011-.101-1.691-.17-.336-.032-.518.031-.566.196-.048.165-.072.594-.072 1.274 0 .422.197.652.599.695.695.072 1.04.105 1.73.177v2.204c0 .369.043.64.129.817.082.179.249.39.513.625 1.025.824 1.538 1.238 2.563 2.055.191.151.326.247.412.297.077.046.158.075.23.082.239.021.378-.089.426-.336.048-.244.072-.483.072-.721V2.165c1.073.098 1.61.147 2.683.238.192.016.35.004.479-.024.129-.029.192-.187.192-.477 0-.735-.024-1.188-.072-1.363-.048-.175-.225-.278-.527-.302C1.653.144 1.102.1 0 0" clip-path="url(#l)" transform="matrix(1.333333 0 0 -1.333333 134.0591 36.918)"/>
  <path fill="#fff" d="M0 0c-.067 1.258-.403 2.218-1.001 2.877-.599.656-1.294.96-2.07.905-.613-.038-1.14-.223-1.586-.543-.445-.322-.819-.726-1.116-1.22-.292-.493-.517-1.066-.685-1.71-.163-.64-.268-1.301-.316-1.988C-4.063-.99-2.712-.654 0 0m-6.602-4.113c.144-1.356.408-2.438.781-3.251.379-.814.795-1.442 1.251-1.882.459-.446.943-.731 1.451-.867.503-.135.968-.19 1.394-.161.939.06 1.758.374 2.453.942.69.565 1.294 1.212 1.744 1.918.287.446.494.776.637.944.139.163.331.251.565.261.235.015.446-.074.638-.275.187-.202.282-.501.282-.896 0-.187-.052-.482-.143-.891-.096-.415-.245-.882-.441-1.404-.201-.522-.479-1.071-.829-1.627-.355-.555-.795-1.073-1.308-1.549-.517-.477-1.131-.877-1.835-1.21-.704-.33-1.518-.532-2.438-.596-1.174-.077-2.247.088-3.21.491-.968.4-1.797 1.032-2.491 1.882-.695.853-1.236 1.933-1.624 3.239-.388 1.31-.585 2.836-.585 4.568 0 1.969.24 3.648.709 5.04.47 1.391 1.083 2.534 1.835 3.432.757.899 1.6 1.572 2.544 2.02.939.448 1.878.706 2.822.769 1.365.093 2.491-.137 3.373-.676.881-.534 1.58-1.198 2.098-1.983.522-.788.872-1.591 1.059-2.41.186-.812.282-1.456.282-1.931 0-.682-.153-1.116-.46-1.303-.301-.186-.56-.309-.771-.345-3.914-.862-5.869-1.31-9.783-2.249" clip-path="url(#m)" transform="matrix(1.333333 0 0 -1.333333 154.1103 41.0733)"/>
  <path fill="#fff" d="M0 0c-.139.338-.292.668-.46 1.006-.163.338-.354.642-.565.908-.206.268-.47.484-.776.644-.307.158-.666.228-1.093.213-.546-.019-1.03-.198-1.465-.546-.436-.347-.82-.8-1.146-1.382-.33-.577-.584-1.257-.761-2.026-.177-.769-.268-1.586-.268-2.451 0-1.025.114-2.002.335-2.922.225-.925.541-1.727.939-2.42.402-.697.891-1.236 1.466-1.619.575-.386 1.221-.568 1.926-.544.517.017.967.123 1.36.321.384.194.719.436 1.006.724.278.282.518.577.719.886.201.307.355.594.479.824.196.371.388.652.527.838.144.185.34.288.604.293.258.007.474-.103.651-.336.178-.232.264-.572.264-1.02 0-.575-.12-1.253-.369-2.034-.249-.781-.637-1.533-1.164-2.261-.532-.721-1.222-1.341-2.07-1.854-.843-.513-1.854-.786-3.033-.831-1.245-.048-2.333.201-3.248.738-.915.536-1.681 1.291-2.299 2.246-.609.956-1.069 2.061-1.371 3.318-.311 1.262-.459 2.585-.459 3.979 0 1.315.143 2.625.44 3.94.293 1.315.757 2.503 1.39 3.553.642 1.058 1.456 1.928 2.457 2.599 1.002.67 2.219 1.03 3.656 1.085 1.011.033 1.892-.113 2.644-.443.757-.331 1.38-.757 1.873-1.268.494-.51.863-1.061 1.098-1.645.234-.582.349-1.114.349-1.588 0-.707-.196-1.265-.599-1.667-.397-.405-.833-.614-1.303-.628-.263-.007-.555.077-.886.249C.522-.948.24-.568 0 0" clip-path="url(#n)" transform="matrix(1.333333 0 0 -1.333333 176.614 38.7068)"/>
  <path fill="#fff" d="M0 0c-.139.34-.297.685-.46 1.028-.168.337-.354.649-.565.922-.211.275-.47.496-.776.664-.307.165-.671.249-1.098.244-.541-.005-1.03-.173-1.465-.506-.436-.335-.82-.783-1.145-1.353-.331-.57-.58-1.238-.757-2.002-.178-.765-.269-1.579-.269-2.446 0-1.023.115-2.005.336-2.93.225-.934.536-1.744.934-2.448.402-.704.891-1.257 1.471-1.658.575-.402 1.216-.601 1.921-.596.517.002.972.103 1.36.285.384.187.724.417 1.006.695.283.278.527.563.724.867.201.299.354.589.479.814.191.362.383.64.522.827.144.182.345.273.604.273.258 0 .474-.118.651-.352.178-.24.269-.58.269-1.028 0-.572-.125-1.253-.369-2.029-.25-.774-.638-1.514-1.169-2.225-.527-.712-1.217-1.313-2.065-1.799-.848-.489-1.859-.74-3.038-.75-1.245-.012-2.333.268-3.248.831s-1.686 1.332-2.294 2.309c-.614.973-1.074 2.084-1.38 3.354-.307 1.27-.46 2.601-.46 3.996 0 1.312.153 2.622.445 3.926.297 1.307.762 2.481 1.395 3.514.637 1.037 1.451 1.878 2.452 2.524 1.002.647 2.219.975 3.656.987 1.011.01 1.892-.165 2.649-.517.752-.35 1.38-.786 1.873-1.308.494-.527.858-1.09 1.093-1.679.234-.592.349-1.126.349-1.596 0-.711-.196-1.262-.599-1.655-.397-.395-.833-.589-1.303-.589-.258 0-.555.091-.881.271C.517-.953.235-.575 0 0" clip-path="url(#o)" transform="matrix(1.333333 0 0 -1.333333 198.1791 38.33)"/>
  <path fill="#fff" d="M0 0c0-.312-.039-.537-.12-.666-.081-.129-.302-.192-.651-.189-1.232.017-1.85.017-3.076.026-.283.003-.45.062-.513.182-.057.12-.086.335-.086.647v18.761c0 .285.038.503.105.632.072.129.259.192.566.189 1.202-.007 1.801-.012 3.004-.024.33-.002.531-.064.613-.187.081-.117.134-.349.158-.689zm.072 24.867c.029-.734-.182-1.332-.618-1.787-.436-.456-.992-.678-1.677-.674-.752.005-1.342.237-1.763.685-.422.449-.637 1.016-.637 1.701 0 .683.206 1.26.618 1.744.412.484 1.006.726 1.782.719.752-.005 1.317-.247 1.696-.724.374-.479.58-1.035.599-1.664" clip-path="url(#p)" transform="matrix(1.333333 0 0 -1.333333 212.9539 57.1958)"/>
  <path fill="#fff" d="M0 0c-.12-.103-.249-.208-.388-.309-.144-.098-.307-.149-.494-.144-.191.005-.378.094-.565.256-.187.161-.283.432-.283.796 0 .395.163.769.494 1.126C-.12 3.035.436 3.689 1.552 4.994c.12.154.273.309.46.472.192.168.412.244.671.235.335-.012.608-.165.834-.477.225-.311.335-.69.335-1.135 0-.422-.077-.733-.23-.956-.154-.216-.312-.407-.479-.56C1.887 1.545 1.255 1.032 0 0m2.965-12.272c-.095 2.36-.517 4.192-1.269 5.481C.939-5.507.033-4.846-1.025-4.817c-.609.016-1.145-.161-1.605-.53-.46-.366-.844-.869-1.15-1.506-.307-.633-.542-1.397-.704-2.271-.163-.875-.249-1.809-.249-2.808 0-1.104.105-2.143.301-3.121.202-.98.479-1.84.829-2.582.355-.745.776-1.337 1.274-1.768.494-.434 1.035-.656 1.625-.673.565-.014 1.082.16 1.552.539.474.381.872.917 1.202 1.619.331.7.575 1.533.743 2.499.163.963.22 2.014.172 3.147m4.59-.412c.029-1.442-.139-2.824-.493-4.137-.355-1.312-.887-2.45-1.605-3.423-.719-.975-1.615-1.741-2.683-2.306-1.073-.568-2.29-.834-3.656-.796-1.293.036-2.457.35-3.492.925-1.04.577-1.926 1.351-2.649 2.323-.733.973-1.289 2.111-1.677 3.414-.388 1.31-.585 2.728-.585 4.254 0 1.524.197 2.937.599 4.245.403 1.308.968 2.429 1.711 3.37.742.944 1.633 1.682 2.668 2.197 1.035.508 2.199.745 3.497.709 1.433-.041 2.678-.405 3.723-1.085 1.049-.678 1.911-1.538 2.577-2.573.676-1.04 1.179-2.187 1.519-3.447.34-1.26.527-2.494.546-3.67" clip-path="url(#q)" transform="matrix(1.333333 0 0 -1.333333 229.1979 28.221)"/>
  <path fill="#fff" d="M0 0c0-.366-.062-.597-.182-.68-.115-.082-.316-.118-.594-.099-1.121.067-1.682.103-2.803.168-.35.024-.565.113-.646.273-.082.166-.12.388-.12.68v13.319c0 .39-.015.829-.053 1.303-.038.477-.149.915-.34 1.322-.192.403-.494.755-.91 1.052-.417.299-1.006.474-1.768.515-.719.038-1.27-.072-1.663-.311-.393-.243-.68-.535-.857-.88-.182-.345-.283-.702-.307-1.066-.024-.369-.033-.666-.033-.903 0-5.595-.005-8.398-.005-13.994 0-.395-.053-.644-.168-.754-.119-.113-.345-.163-.67-.146-1.107.055-1.658.079-2.765.129-.282.015-.474.077-.579.187-.101.105-.159.33-.159.673v15.568c0 .393.015.742.039 1.056.019.316.086.606.191.86.106.261.269.489.494.704.225.216.536.429.939.613.924.437 1.911.702 2.908.822 1.001.12 2.022.153 3.056.096.872-.046 1.62-.139 2.243-.278.622-.139 1.14-.304 1.552-.489.407-.182.742-.371.991-.567.249-.199.441-.369.585-.508.393-.393.704-.803.91-1.227.216-.419.374-.831.484-1.248.105-.412.168-.819.192-1.216.024-.391.033-.76.033-1.102C-.005 8.322 0 5.548 0 0" clip-path="url(#r)" transform="matrix(1.333333 0 0 -1.333333 262.8163 59.1729)"/>
  <path fill="#fff" d="M0 0c-.067 1.269-.403 2.28-1.001 3.028-.599.742-1.294 1.154-2.07 1.219-.613.053-1.145-.048-1.59-.297-.441-.254-.815-.604-1.112-1.052-.292-.45-.522-.987-.69-1.607-.163-.613-.268-1.26-.311-1.938C-4.067-.379-2.712-.249 0 0m-6.597-3.105c.134-1.377.398-2.503.771-3.37.379-.877.796-1.569 1.256-2.081.459-.511.943-.872 1.451-1.083.498-.216.968-.343 1.394-.376.939-.084 1.759.11 2.453.572.69.465 1.294 1.023 1.744 1.66.287.405.494.707.637.851.139.146.331.203.565.182.235-.02.441-.142.638-.369.182-.23.278-.544.278-.939 0-.187-.048-.477-.144-.872-.091-.403-.235-.848-.436-1.339-.201-.494-.479-.999-.829-1.502-.355-.505-.79-.963-1.308-1.363-.517-.398-1.135-.704-1.835-.934-.704-.228-1.518-.3-2.433-.221-1.179.101-2.252.424-3.22.975-.963.556-1.791 1.308-2.486 2.267-.695.962-1.236 2.129-1.624 3.497-.388 1.37-.58 2.929-.58 4.663 0 1.967.235 3.61.704 4.925.47 1.318 1.083 2.369 1.835 3.148.752.781 1.6 1.32 2.539 1.624.944.302 1.888.414 2.827.333C-1.035 7.028.091 6.63.973 5.964c.881-.666 1.585-1.435 2.098-2.294.522-.863.872-1.718 1.059-2.564.187-.843.282-1.499.282-1.973 0-.685-.153-1.093-.455-1.239-.306-.139-.565-.22-.776-.227-3.914-.288-5.869-.443-9.778-.772" clip-path="url(#s)" transform="matrix(1.333333 0 0 -1.333333 293.3623 43.9349)"/>
  <path fill="#fff" d="M0 0v-17.297c0-.424-.062-.678-.196-.754-.125-.077-.312-.099-.546-.077-1.131.112-1.692.165-2.822.275-.331.005-.547.072-.642.216-.087.139-.139.397-.139.762V.427C-5.102.498-5.49.53-6.252.601c-.259.024-.436.075-.546.135-.106.064-.158.263-.158.608 0 .68.033 1.109.091 1.27.057.162.263.237.618.201.762-.072 1.145-.103 1.902-.178.028.417.057.875.091 1.385.038.508.096 1.047.177 1.619.086.568.197 1.14.354 1.715.154.578.355 1.145.619 1.658.201.395.474.805.776 1.205.301.405.661.757 1.058 1.059.398.302.853.536 1.356.694.513.161 1.059.211 1.644.151.661-.067 1.173-.299 1.552-.692.373-.393.565-.903.565-1.533 0-.659-.173-1.102-.527-1.327-.354-.225-.699-.323-1.025-.29-.12.012-.336.065-.652.151-.316.084-.536.132-.656.141-.542.055-.982-.134-1.322-.558-.341-.424-.513-1.111-.513-2.057 0-.156.015-.388.038-.693.024-.302.063-.635.125-.982.057-.35.129-.706.225-1.085.096-.376.22-.702.388-.98 1.088-.11 1.634-.165 2.721-.277.187-.017.355-.065.494-.13.139-.067.211-.242.211-.529V.53c0-.288-.02-.458-.034-.508-.057-.139-.12-.242-.211-.271-.096-.031-.254-.041-.465-.019C1.586-.163 1.059-.105 0 0" clip-path="url(#t)" transform="matrix(1.333333 0 0 -1.333333 310.1236 39.8854)"/>
  <path fill="#fff" d="M0 0c-.072 1.272-.407 2.292-1.011 3.054-.594.759-1.284 1.186-2.06 1.27-.613.067-1.145-.017-1.595-.257-.446-.241-.815-.586-1.112-1.025-.292-.443-.522-.965-.685-1.581C-6.63.85-6.736.206-6.784-.472-4.072-.275-2.712-.184 0 0m-6.606-2.937c.143-1.382.402-2.51.78-3.389.374-.884.796-1.591 1.251-2.11.46-.528.943-.897 1.447-1.122.503-.225.972-.364 1.399-.409.938-.103 1.758.067 2.452.515.69.446 1.299.982 1.749 1.61.283.397.498.696.637.836.139.146.326.203.561.174.234-.026.445-.155.632-.39.192-.232.288-.546.288-.939 0-.184-.048-.472-.144-.867-.096-.4-.239-.843-.441-1.332-.201-.489-.474-.985-.829-1.483-.354-.498-.79-.944-1.308-1.329-.517-.386-1.13-.678-1.834-.889-.705-.208-1.519-.27-2.434-.17-1.179.132-2.252.484-3.215 1.064-.968.577-1.796 1.348-2.491 2.326-.695.984-1.236 2.16-1.624 3.54-.388 1.38-.58 2.942-.58 4.676 0 1.969.235 3.607.705 4.91.469 1.303 1.082 2.333 1.834 3.093.757.764 1.601 1.289 2.544 1.564.939.282 1.878.371 2.827.268C-1.04 7.057.086 6.633.968 5.943c.881-.688 1.581-1.468 2.103-2.343.517-.874.872-1.739 1.054-2.584.192-.848.287-1.512.287-1.981 0-.688-.153-1.095-.46-1.229-.301-.139-.565-.209-.776-.211-3.909-.196-5.868-.302-9.782-.532" clip-path="url(#u)" transform="matrix(1.333333 0 0 -1.333333 329.6635 47.5825)"/>
  <path fill="#fff" d="M0 0c-.139.362-.292.721-.46 1.085-.163.362-.35.692-.565.994-.211.302-.465.556-.776.76-.302.213-.671.337-1.093.392-.541.065-1.03-.035-1.466-.313-.436-.276-.819-.671-1.149-1.198-.331-.527-.585-1.16-.757-1.902-.178-.743-.264-1.543-.264-2.41 0-1.023.11-2.021.335-2.977.226-.961.532-1.813.935-2.573.402-.754.891-1.377 1.466-1.852.575-.479 1.221-.759 1.926-.848.517-.062.972-.028 1.36.108.383.137.724.324 1.001.566.283.242.527.498.729.778.196.275.354.539.474.748.196.337.393.594.532.761.139.165.335.235.594.201.259-.028.484-.179.656-.436.177-.261.268-.613.268-1.061 0-.575-.124-1.236-.373-1.983-.245-.74-.633-1.433-1.164-2.074-.527-.645-1.217-1.16-2.065-1.541-.848-.381-1.864-.5-3.038-.354-1.25.153-2.333.577-3.248 1.262-.915.683-1.681 1.557-2.294 2.613-.614 1.059-1.074 2.238-1.376 3.546-.306 1.312-.464 2.666-.464 4.057 0 1.318.153 2.602.445 3.869.292 1.265.757 2.376 1.395 3.325.637.948 1.451 1.684 2.452 2.194 1.002.508 2.219.68 3.656.503 1.01-.125 1.897-.414 2.649-.86.752-.448 1.375-.965 1.873-1.552.494-.585.853-1.193 1.093-1.811.229-.618.354-1.169.354-1.643 0-.709-.201-1.236-.599-1.584-.402-.34-.838-.479-1.308-.421-.263.031-.555.16-.886.385C.518-1.023.24-.601 0 0" clip-path="url(#v)" transform="matrix(1.333333 0 0 -1.333333 352.1611 48.9176)"/>
  <path fill="#fff" d="M0 0v-12.173c0-.292.014-.647.038-1.071.024-.427.11-.838.264-1.253.153-.414.393-.783.723-1.118.331-.334.795-.573 1.38-.662.431-.067.819-.148 1.111-.266.288-.114.441-.438.441-.958 0-.294-.115-.527-.335-.707-.225-.179-.503-.32-.834-.421-.33-.101-.694-.17-1.092-.192-.398-.028-.776-.021-1.131.027-.968.127-1.768.407-2.395.826-.628.422-1.126.896-1.481 1.414-.498.735-.795 1.465-.891 2.16-.095.692-.139 1.358-.139 1.988V.565c-.68.084-1.015.127-1.696.214-.33.04-.517.148-.565.325-.048.18-.072.609-.072 1.292 0 .421.206.608.604.557.695-.09 1.04-.131 1.729-.22v2.204c0 .366.044.627.125.79.081.158.254.328.513.503 1.03.592 1.537.891 2.568 1.486.186.107.325.175.407.203.081.029.158.036.23.029.239-.031.383-.175.431-.429.048-.256.067-.501.067-.738V2.17c1.073-.139 1.615-.211 2.688-.349.186-.027.345-.068.474-.125.129-.057.196-.232.196-.52 0-.735-.028-1.188-.077-1.348-.047-.166-.22-.226-.522-.185C1.653-.213 1.102-.144 0 0" clip-path="url(#w)" transform="matrix(1.333333 0 0 -1.333333 367.4598 46.4997)"/>
  <path fill="#fff" d="M0 0c0-.316-.038-.532-.125-.651-.076-.12-.297-.156-.651-.108-1.227.167-1.84.247-3.071.412-.283.038-.45.117-.508.246-.062.125-.091.35-.091.664v18.758c0 .288.033.491.105.616.072.117.259.165.566.122 1.202-.161 1.801-.244 2.999-.405.33-.045.536-.129.618-.261.086-.127.134-.366.158-.711zm.072 24.859c.024-.735-.182-1.31-.618-1.71-.431-.402-.992-.553-1.677-.465-.752.103-1.342.405-1.768.906-.422.5-.632 1.095-.632 1.78 0 .68.206 1.24.618 1.667.412.433 1.006.601 1.782.496.757-.101 1.317-.415 1.696-.937.374-.525.58-1.107.599-1.737" clip-path="url(#x)" transform="matrix(1.333333 0 0 -1.333333 380.6887 71.431)"/>
  <path fill="#fff" d="M0 0c1.543 5.253 2.314 7.888 3.847 13.141.096.273.187.427.283.465.095.038.273.05.536.012.901-.127 1.351-.192 2.257-.316.119-.017.244-.063.388-.12.143-.06.215-.204.215-.441 0-.187-.048-.393-.144-.615C5.064 4.999 3.909 1.435 1.59-5.696c-.115-.273-.22-.443-.301-.511-.082-.066-.249-.083-.508-.045-.973.134-1.466.206-2.439.34-.282.039-.464.094-.551.17-.081.077-.167.273-.258.573-2.415 7.775-3.627 11.663-6.037 19.431-.096.352-.143.582-.143.688 0 .263.076.402.229.419.154.019.288.028.408.009 1.312-.179 1.969-.273 3.281-.455.259-.033.441-.1.547-.191.105-.094.206-.307.297-.638C-2.329 8.46-1.552 5.641 0 0" clip-path="url(#y)" transform="matrix(1.333333 0 0 -1.333333 394.5756 66.3016)"/>
  <path fill="#fff" d="M0 0c-.68-.141-1.327-.287-1.95-.448-.613-.161-1.159-.383-1.629-.656-.464-.278-.833-.642-1.102-1.102-.268-.465-.407-1.059-.407-1.794 0-1.002.254-1.847.757-2.551.503-.702 1.222-1.122 2.156-1.256.536-.074.953-.048 1.246.094.292.141.507.342.646.596.139.257.221.534.245.834.028.295.038.551.038.762Zm4.168-6.753c-.024-.864-.12-1.552-.288-2.05-.162-.503-.589-.91-1.269-1.234-.474-.222-.972-.369-1.5-.453-.531-.081-1.044-.126-1.537-.131-.494-.01-.935.012-1.323.05-.388.046-.666.079-.828.101-.187.028-.489.076-.901.148-.417.072-.872.201-1.375.379-.508.179-1.03.419-1.571.716-.542.299-1.035.69-1.486 1.162-.44.472-.809 1.049-1.092 1.736-.283.681-.421 1.474-.421 2.393 0 .451.081 1.033.244 1.747.163.709.613 1.396 1.308 2.057.374.359.809.671 1.303.913.493.244 1.064.458 1.701.63.632.175 1.346.321 2.151.455.8.134 1.705.271 2.716.415v2.012c0 .368-.01.764-.038 1.185-.024.424-.101.822-.245 1.2-.139.374-.359.7-.651.978-.292.282-.705.457-1.217.529-.426.062-.781.036-1.063-.079-.278-.117-.513-.283-.705-.474-.187-.194-.34-.41-.44-.645-.106-.234-.202-.44-.264-.61-.173-.458-.374-.901-.623-1.27-.244-.374-.699-.51-1.356-.417-.541.075-.996.333-1.36.769-.364.429-.551.963-.551 1.588 0 .606.168 1.172.498 1.689.331.515.805.956 1.408 1.313.614.357 1.361.613 2.228.764.867.153 1.835.153 2.899 0 1.408-.204 2.496-.59 3.267-1.145.762-.559 1.322-1.21 1.672-1.943.355-.735.561-1.504.618-2.309.062-.812.091-1.588.091-2.324Z" clip-path="url(#z)" transform="matrix(1.333333 0 0 -1.333333 418.3506 64.1042)"/>
  <path fill="#fff" d="M0 0c-.254.273-.484.575-.675.889-.182.316-.278.737-.278 1.26 0 .793.258 1.358.776 1.717.517.359 1.073.496 1.658.41.756-.11 1.418-.539 1.997-1.291.575-.757.863-1.795.863-3.11 0-.996-.182-1.902-.542-2.714-.369-.812-.8-1.509-1.293-2.081-.494-.57-1.002-1.009-1.519-1.313-.517-.302-.929-.436-1.236-.39-.278.04-.493.165-.637.371-.139.201-.211.417-.211.63 0 .206.043.39.125.544.086.158.359.474.723.939.263.328.503.738.728 1.135.221.398.336.812.336 1.231 0 .211-.044.458-.125.731C.604-.769.378-.415 0 0" clip-path="url(#A)" transform="matrix(1.333333 0 0 -1.333333 429.8866 78.0326)"/>
  <path fill="#fff" d="M0 0c.585-.479 1.097-.807 1.533-.977.436-.168.762-.264.973-.292.661-.101 1.24.007 1.734.325.493.324.905.81 1.245 1.457.346.647.604 1.415.781 2.311.173.891.269 1.881.269 2.956 0 1.366-.125 2.554-.379 3.564-.244 1.004-.57 1.852-.968 2.544-.397.688-.857 1.215-1.375 1.581-.522.364-1.063.592-1.624.676-.541.079-.963.045-1.255-.094-.292-.141-.512-.34-.656-.596-.139-.254-.221-.541-.244-.867C.01 12.262 0 11.97 0 11.709Zm-4.34 12.856c0 .759.014 1.33.047 1.703.034.381.187.714.369.992.173.249.47.508.906.719.426.213.958.39 1.552.522.599.131 1.26.215 1.993.251.728.039 1.485 0 2.261-.117.235-.033.585-.096 1.04-.189.46-.096.963-.261 1.499-.501.546-.237 1.107-.551 1.696-.958.589-.398 1.136-.922 1.629-1.538.695-.865 1.275-1.978 1.715-3.341.427-1.363.647-2.87.647-4.528 0-1.341-.158-2.678-.474-4.012-.316-1.329-.8-2.503-1.447-3.514-.647-1.006-1.456-1.785-2.434-2.338-.982-.553-2.127-.733-3.445-.539-.613.089-1.178.247-1.681.482C1.03-3.818.517-3.478 0-3.032v-8.983c0-.316-.053-.529-.158-.632-.105-.101-.292-.135-.546-.096-1.102.162-1.653.244-2.76.409-.282.038-.498.12-.646.233-.154.112-.23.356-.23.721z" clip-path="url(#B)" transform="matrix(1.333333 0 0 -1.333333 459.0275 79.0612)"/>
  <path fill="#fff" d="M0 0c-.024-.312-.081-.515-.158-.623-.082-.105-.278-.136-.585-.091-1.154.168-1.734.252-2.893.419-.307.046-.513.13-.618.252-.106.117-.154.345-.154.69v16.475c0 .604.053 1.052.168 1.347.12.299.407.546.853.744.603.271 1.499.472 2.663.578 1.165.108 2.43.062 3.8-.137.541-.079 1.073-.199 1.585-.364.518-.165.973-.393 1.361-.671.388-.273.699-.627.934-1.042.235-.414.35-.907.35-1.487 0-.604-.163-1.085-.508-1.442-.34-.357-.795-.494-1.36-.415-.475.067-.825.259-1.059.566-.235.309-.475.733-.743 1.19-.149.256-.364.529-.599.815-.235.28-.627.464-1.169.543-.474.07-.824.041-1.073-.081-.249-.12-.436-.292-.551-.51-.115-.221-.182-.467-.206-.738-.024-.271-.038-.529-.038-.764Z" clip-path="url(#C)" transform="matrix(1.333333 0 0 -1.333333 483.6011 86.3429)"/>
  <path fill="#fff" d="M0 0c-.091 2.376-.518 4.242-1.27 5.612-.752 1.363-1.662 2.125-2.716 2.276-.613.084-1.15-.029-1.61-.347-.46-.314-.843-.772-1.149-1.371-.302-.598-.537-1.336-.705-2.189-.167-.858-.244-1.782-.244-2.779 0-1.106.096-2.153.302-3.154.191-1.006.474-1.902.824-2.685.349-.784.781-1.423 1.274-1.914.494-.489 1.03-.777 1.624-.858.566-.081 1.083.043 1.552.371.47.329.872.824 1.203 1.49.326.664.57 1.469.738 2.417C-.01-2.182.048-1.14 0 0m4.59-.877c.028-1.444-.139-2.81-.494-4.086-.354-1.279-.886-2.369-1.605-3.268-.719-.9-1.619-1.576-2.683-2.031-1.073-.45-2.29-.584-3.65-.393-1.303.185-2.468.628-3.507 1.327-1.03.698-1.917 1.574-2.645 2.635-.728 1.064-1.284 2.276-1.676 3.634-.384 1.356-.58 2.793-.58 4.319 0 1.521.196 2.913.599 4.168.402 1.258.972 2.307 1.715 3.16.742.855 1.624 1.48 2.663 1.87 1.035.391 2.195.494 3.488.312 1.442-.204 2.688-.697 3.732-1.488 1.045-.788 1.907-1.734 2.578-2.841.67-1.102 1.173-2.299 1.514-3.593.345-1.293.531-2.546.551-3.725" clip-path="url(#D)" transform="matrix(1.333333 0 0 -1.333333 510.7168 77.0681)"/>
  <path fill="#fff" d="M0 0v-12.178c0-.292.01-.644.034-1.069.019-.423.11-.84.268-1.255.148-.416.388-.79.718-1.126.331-.33.801-.57 1.38-.658.436-.067.815-.149 1.112-.264.297-.115.44-.438.44-.96 0-.292-.11-.525-.33-.707-.23-.18-.503-.318-.834-.421-.33-.101-.694-.166-1.097-.19-.393-.024-.771-.019-1.126.029-.972.132-1.772.412-2.4.839-.627.421-1.126.9-1.475 1.422-.503.741-.796 1.476-.896 2.17-.091.695-.144 1.359-.144 1.989V.584c-.676.099-1.011.147-1.691.235-.326.048-.518.156-.565.336-.044.174-.068.608-.068 1.288 0 .422.202.602.604.549.69-.093 1.035-.142 1.72-.237v2.208c0 .369.048.63.129.791.082.16.254.328.518.498 1.02.584 1.538.879 2.563 1.466.191.108.326.172.412.201.081.029.158.039.23.029.239-.029.378-.175.426-.431.048-.257.072-.503.072-.74V2.17c1.073-.143 1.605-.215 2.678-.359.192-.024.345-.067.479-.125.13-.057.192-.229.192-.517 0-.74-.019-1.188-.067-1.351-.048-.165-.225-.225-.527-.187C1.653-.22 1.102-.151 0 0" clip-path="url(#E)" transform="matrix(1.333333 0 0 -1.333333 527.3376 69.2624)"/>
  <path fill="#fff" d="M0 0c-.077 1.275-.407 2.297-1.011 3.069-.594.771-1.289 1.207-2.065 1.307-.608.079-1.145.003-1.585-.227-.451-.232-.819-.565-1.112-.999-.297-.436-.532-.956-.695-1.569-.167-.606-.268-1.25-.316-1.928C-4.072-.213-2.711-.144 0 0m-6.606-2.81c.143-1.382.397-2.524.78-3.408.374-.896.791-1.608 1.251-2.139.455-.535.944-.918 1.447-1.155.508-.235.967-.371 1.394-.426.944-.12 1.758.036 2.453.474.689.436 1.298.972 1.743 1.595.288.393.504.688.643.827.138.139.33.194.565.163.234-.027.445-.154.632-.393.192-.233.283-.551.283-.946 0-.185-.043-.47-.139-.86-.096-.398-.244-.846-.441-1.33-.201-.488-.479-.982-.829-1.478-.354-.493-.79-.932-1.308-1.308-.517-.383-1.13-.67-1.839-.872-.7-.198-1.519-.244-2.434-.127-1.178.151-2.247.525-3.21 1.124-.972.596-1.801 1.397-2.496 2.39-.69 1-1.231 2.192-1.624 3.582-.383 1.391-.575 2.963-.575 4.694 0 1.972.23 3.601.705 4.892.469 1.293 1.078 2.307 1.83 3.047.757.74 1.605 1.245 2.548 1.504.939.259 1.878.326 2.822.206C-1.04 7.071.091 6.628.973 5.927c.876-.698 1.58-1.491 2.093-2.365.522-.881.872-1.746 1.064-2.597.187-.847.278-1.508.278-1.983 0-.685-.154-1.092-.455-1.226-.312-.132-.566-.201-.777-.201-3.914-.159-5.868-.231-9.782-.365" clip-path="url(#F)" transform="matrix(1.333333 0 0 -1.333333 547.395 77.5633)"/>
  <path fill="#fff" d="M0 0c-.139.354-.297.719-.46 1.078-.163.364-.349.687-.565.991-.211.3-.465.556-.776.76-.307.206-.671.335-1.093.383-.546.062-1.03-.038-1.465-.316-.436-.28-.815-.68-1.141-1.205-.335-.527-.589-1.159-.766-1.902-.177-.74-.264-1.545-.264-2.412 0-1.021.11-2.019.331-2.975.23-.961.536-1.813.939-2.573.402-.759.891-1.375 1.466-1.847.58-.476 1.217-.757 1.931-.836.507-.06.962-.019 1.351.118.383.136.723.323 1.006.567.277.245.522.508.728.786.191.278.354.546.479.757.191.34.383.596.522.767.148.167.34.234.604.206.254-.027.469-.175.647-.429.182-.254.268-.609.268-1.054 0-.577-.12-1.241-.369-1.988-.245-.745-.637-1.449-1.164-2.094-.537-.651-1.222-1.171-2.065-1.559-.848-.388-1.864-.513-3.038-.376-1.25.148-2.333.57-3.248 1.257-.915.69-1.681 1.564-2.294 2.621-.609 1.059-1.069 2.242-1.376 3.555-.311 1.312-.464 2.663-.464 4.057 0 1.313.148 2.599.445 3.867.293 1.264.762 2.366 1.395 3.312.637.951 1.451 1.682 2.452 2.192 1.002.508 2.219.676 3.656.508 1.011-.115 1.892-.398 2.649-.839.752-.44 1.37-.95 1.868-1.53.499-.582.858-1.186 1.093-1.799.234-.613.354-1.162.354-1.636 0-.709-.196-1.239-.599-1.586-.392-.349-.833-.498-1.303-.443-.263.031-.555.156-.886.376C.522-1.018.235-.601 0 0" clip-path="url(#G)" transform="matrix(1.333333 0 0 -1.333333 569.8924 78.9682)"/>
  <path fill="#fff" d="M0 0c-.139.352-.297.706-.455 1.068-.168.357-.35.683-.565.985-.211.297-.47.546-.776.747-.307.201-.676.323-1.098.369-.546.057-1.03-.055-1.465-.336-.432-.282-.815-.682-1.141-1.214-.335-.532-.584-1.164-.761-1.911-.178-.738-.269-1.553-.269-2.42 0-1.022.11-2.014.336-2.968.225-.955.536-1.808.939-2.56.397-.753.886-1.366 1.466-1.833.575-.467 1.212-.742 1.921-.814.512-.055.972-.007 1.36.139.388.141.724.337 1.006.584.278.247.522.51.719.795.201.278.355.547.474.76.192.342.398.599.537.769.143.17.335.244.599.22.254-.026.474-.167.651-.422.178-.256.264-.605.264-1.051 0-.575-.125-1.241-.369-1.993-.24-.745-.633-1.454-1.164-2.11C1.682-13.853.992-14.38.144-14.78c-.848-.4-1.864-.539-3.038-.414-1.25.131-2.333.539-3.248 1.217-.92.673-1.681 1.542-2.294 2.594-.619 1.051-1.074 2.228-1.376 3.535-.311 1.311-.459 2.662-.459 4.056 0 1.313.143 2.597.44 3.864.297 1.269.753 2.386 1.395 3.336.632.959 1.456 1.692 2.452 2.216 1.006.518 2.219.712 3.656.561 1.011-.103 1.897-.381 2.644-.812.757-.431 1.375-.927 1.873-1.502.494-.573.858-1.172 1.093-1.787.234-.611.354-1.157.354-1.629 0-.711-.196-1.243-.599-1.595-.397-.357-.833-.506-1.307-.46-.259.026-.546.151-.877.366C.532-1.018.24-.604 0 0" clip-path="url(#H)" transform="matrix(1.333333 0 0 -1.333333 591.451 81.3125)"/>
  <path fill="#fff" d="M0 0c0-.314-.043-.534-.125-.654-.081-.122-.301-.17-.651-.139-1.231.115-1.849.173-3.08.292-.283.027-.456.101-.508.223-.058.125-.087.348-.087.659v18.758c0 .288.029.501.106.626.072.124.263.167.565.141 1.198-.118 1.802-.17 3.004-.281.331-.031.532-.115.618-.241.077-.125.134-.36.158-.705zm.067 24.864c.024-.735-.177-1.315-.618-1.736-.436-.419-1.001-.597-1.681-.534-.748.069-1.337.352-1.763.84-.427.487-.633 1.066-.633 1.754 0 .68.206 1.243.618 1.688.412.446 1.002.64 1.778.568.757-.069 1.322-.361 1.696-.874.383-.503.579-1.081.603-1.706" clip-path="url(#I)" transform="matrix(1.333333 0 0 -1.333333 606.2386 101.5748)"/>
  <path fill="#fff" d="M0 0c-.115-.094-.244-.187-.383-.283C-.527-.376-.69-.417-.882-.4c-.186.017-.368.113-.56.285-.187.172-.283.441-.283.805 0 .397.163.764.494 1.104 1.116 1.25 1.672 1.88 2.793 3.131.115.151.263.294.455.453.187.155.407.225.671.203.325-.026.603-.192.828-.512.226-.321.336-.705.336-1.152 0-.422-.077-.731-.23-.942-.153-.213-.307-.398-.47-.544C1.892 1.459 1.26.973 0 0m2.97-12.404c-.095 2.367-.517 4.209-1.269 5.531C.949-5.555.038-4.848-1.02-4.762c-.609.05-1.145-.098-1.605-.436-.46-.345-.844-.824-1.15-1.444-.307-.616-.542-1.366-.704-2.231-.168-.864-.245-1.791-.245-2.79 0-1.107.096-2.151.302-3.138.197-.994.474-1.866.824-2.633.359-.766.781-1.382 1.27-1.842.498-.46 1.039-.716 1.629-.762.565-.047 1.082.111 1.552.465.469.357.872.879 1.197 1.564.326.683.58 1.502.743 2.463.168.956.22 2.005.177 3.142m4.59-.577c.024-1.442-.144-2.821-.489-4.125-.359-1.305-.891-2.426-1.614-3.372-.719-.944-1.61-1.679-2.683-2.199-1.068-.518-2.29-.731-3.656-.621-1.288.106-2.452.484-3.492 1.121-1.03.637-1.916 1.469-2.649 2.494-.728 1.021-1.284 2.197-1.682 3.531-.378 1.336-.575 2.766-.575 4.292 0 1.526.201 2.93.599 4.207.403 1.281.973 2.359 1.715 3.252.738.892 1.629 1.57 2.659 2.017 1.044.451 2.199.626 3.502.52 1.433-.117 2.678-.539 3.718-1.26C3.962-3.85 4.824-4.74 5.495-5.802c.671-1.061 1.179-2.225 1.523-3.497.331-1.269.523-2.501.542-3.682" clip-path="url(#J)" transform="matrix(1.333333 0 0 -1.333333 622.4698 73.6569)"/>
  <path fill="#fff" d="M0 0c0-.364-.058-.592-.173-.676-.114-.083-.311-.115-.589-.103-1.121.06-1.681.084-2.803.144-.349.019-.574.11-.651.273-.086.165-.12.384-.12.676v13.321c0 .392-.019.833-.052 1.307-.039.477-.149.913-.341 1.32-.191.405-.498.757-.91 1.057-.417.297-1.011.467-1.768.515-.718.045-1.269-.056-1.662-.293-.393-.239-.68-.527-.862-.874-.178-.343-.283-.692-.307-1.056-.024-.369-.029-.673-.029-.908V.711c0-.392-.057-.644-.177-.757-.12-.107-.345-.158-.666-.136-1.111.069-1.657.108-2.764.182-.278.019-.475.089-.585.199-.105.11-.153.335-.153.678v15.57c0 .392.014.742.038 1.056.02.314.087.599.197.855.1.254.268.486.488.697.221.209.537.41.94.587.929.417 1.916.671 2.912.779 1.002.107 2.017.126 3.052.064.872-.05 1.614-.144 2.242-.28.623-.139 1.135-.309 1.552-.489.412-.179.743-.364.987-.56.249-.197.441-.369.585-.508.402-.388.709-.791.919-1.212.211-.417.374-.829.479-1.243.106-.412.168-.815.192-1.21.024-.395.029-.764.029-1.104Z" clip-path="url(#K)" transform="matrix(1.333333 0 0 -1.333333 656.0822 105.2441)"/>
  <path fill="#fff" d="M0 0c-.235.213-.536.436-.901.663-.369.233-.838.355-1.408.369-.68.012-1.294-.174-1.84-.57-.546-.393-1.011-.939-1.389-1.638-.374-.702-.661-1.519-.853-2.46-.187-.942-.283-1.938-.283-2.987 0-2.501.413-4.437 1.241-5.826.824-1.387 1.912-2.096 3.239-2.125.541-.012.963.077 1.255.269.297.191.517.433.661.716.144.287.221.599.244.939.024.345.034.668.034.982zm4.345-13.302c0-.527-.052-1.037-.158-1.523-.11-.484-.431-.963-.972-1.385-.297-.232-.685-.448-1.131-.651-.445-.206-.934-.371-1.461-.503-.527-.134-1.092-.245-1.682-.311-.589-.068-1.164-.094-1.734-.077-2.63.057-4.676 1.001-6.123 2.819-1.446 1.818-2.17 4.348-2.17 7.579 0 1.363.168 2.719.493 4.063.336 1.336.829 2.541 1.495 3.595.657 1.059 1.476 1.897 2.453 2.527.982.628 2.127.927 3.426.894.828-.019 1.48-.149 1.964-.398.484-.244.901-.486 1.255-.733v9.345c0 .29.053.515.139.687.096.168.321.252.671.244 1.073-.019 1.614-.028 2.692-.038.326-.007.556-.062.666-.168.12-.105.177-.342.177-.711z" clip-path="url(#L)" transform="matrix(1.333333 0 0 -1.333333 687.6755 84.3724)"/>
  <path fill="#fff" d="M0 0c-.067 1.26-.403 2.237-1.006 2.93-.599.689-1.289 1.034-2.065 1.03-.618-.003-1.15-.147-1.59-.436-.446-.293-.82-.669-1.117-1.141-.292-.474-.527-1.025-.685-1.655-.163-.632-.278-1.289-.326-1.971C-4.072-.757-2.712-.515 0 0m-6.607-3.687c.144-1.37.403-2.471.781-3.315.379-.84.796-1.499 1.256-1.971.455-.47.943-.791 1.446-.958.508-.17.968-.252 1.394-.247.944.005 1.754.278 2.449.812.694.529 1.303 1.138 1.753 1.825.283.436.494.755.632.916.144.16.331.246.561.248.239.005.455-.095.642-.304.187-.208.283-.515.283-.91 0-.184-.048-.472-.139-.882-.096-.409-.249-.871-.451-1.389-.196-.512-.469-1.049-.819-1.59-.355-.542-.8-1.042-1.308-1.493-.522-.45-1.131-.821-1.839-1.116-.705-.295-1.519-.452-2.434-.457-1.179-.008-2.252.229-3.215.704-.963.472-1.801 1.164-2.491 2.072-.695.913-1.236 2.034-1.624 3.375-.388 1.341-.58 2.884-.58 4.621 0 1.966.23 3.626.704 4.975.47 1.351 1.083 2.446 1.835 3.281.753.839 1.605 1.45 2.544 1.828.949.379 1.878.575 2.827.58 1.365.01 2.491-.278 3.373-.86.881-.58 1.576-1.274 2.093-2.077.522-.812.872-1.626 1.064-2.453.187-.824.278-1.47.278-1.945 0-.685-.154-1.111-.451-1.284-.311-.174-.565-.282-.776-.311-3.914-.702-5.874-1.033-9.788-1.675" clip-path="url(#M)" transform="matrix(1.333333 0 0 -1.333333 711.1696 88.9014)"/>
  <path fill="#fff" d="M0 0c-2.779-7.816-4.168-11.716-6.961-19.501-.134-.347-.259-.584-.359-.709-.11-.125-.292-.194-.556-.211-.254-.014-.455.041-.599.161-.139.124-.268.352-.383.685-2.788 7.442-4.178 11.172-6.956 18.648v-18.919c0-.34-.058-.568-.173-.671-.12-.11-.311-.17-.575-.182-.848-.036-1.265-.057-2.117-.093-.302-.012-.503.038-.594.156-.101.115-.139.361-.139.728V6.178c0 .316.043.531.153.654.105.122.302.189.58.199 1.341.052 2.017.081 3.363.143.326.012.546-.024.671-.112.115-.089.244-.309.378-.669 2.745-7.059 4.111-10.58 6.856-17.604C-4.757-3.881-3.43-.208-.776 7.155c.139.378.268.623.388.733.12.115.34.187.671.211 1.375.1 2.055.156 3.425.266.283.024.479-.005.585-.072.105-.07.158-.271.158-.616v-26.244c0-.369-.053-.61-.178-.711-.11-.098-.335-.156-.67-.185-1.126-.093-1.696-.139-2.832-.222-.321-.027-.536.021-.632.129-.096.115-.139.357-.139.723Z" clip-path="url(#N)" transform="matrix(1.333333 0 0 -1.333333 759.8438 79.2686)"/>
  <path fill="#fff" d="M0 0c-.675-.312-1.327-.623-1.945-.934-.618-.314-1.164-.671-1.629-1.057-.47-.388-.834-.84-1.102-1.363-.278-.529-.412-1.161-.412-1.897 0-1.001.254-1.784.752-2.369.503-.58 1.227-.826 2.166-.73.536.052.953.191 1.241.407.287.215.507.464.646.757.139.287.225.584.249.891.024.302.034.563.034.771Zm4.173-5.684c-.029-.87-.13-1.584-.288-2.123-.162-.543-.589-1.066-1.269-1.564-.475-.343-.973-.62-1.5-.836-.531-.215-1.049-.388-1.538-.522-.493-.129-.939-.228-1.327-.278-.388-.053-.661-.084-.824-.1-.191-.02-.493-.044-.9-.072-.417-.027-.877-.017-1.38.04-.508.055-1.035.173-1.576.343-.537.172-1.03.443-1.481.812-.445.364-.809.858-1.092 1.475-.283.618-.426 1.385-.426 2.307 0 .448.086 1.045.249 1.794.163.748.613 1.543 1.308 2.365.373.45.809.862 1.303 1.224.493.359 1.059.711 1.691 1.032.637.328 1.365.652 2.161.982.8.331 1.705.69 2.716 1.09v2.007c0 .367-.01.765-.034 1.177-.024.419-.11.802-.249 1.142-.144.338-.364.606-.656.81-.292.208-.695.285-1.212.232-.426-.043-.776-.158-1.059-.342-.283-.185-.522-.408-.709-.647-.192-.24-.335-.494-.441-.75-.105-.263-.196-.486-.263-.675-.173-.504-.369-.99-.623-1.418-.244-.432-.699-.681-1.351-.743-.546-.05-.996.101-1.361.45-.359.345-.555.839-.555 1.469 0 .606.167 1.197.498 1.794.335.591.805 1.147 1.418 1.648.609.503 1.351.936 2.223 1.298.862.359 1.835.592 2.894.702 1.413.146 2.5.045 3.267-.319.762-.361 1.317-.864 1.677-1.506.354-.647.555-1.363.613-2.154.062-.795.096-1.559.096-2.295Z" clip-path="url(#O)" transform="matrix(1.333333 0 0 -1.333333 782.252 89.805)"/>
  <path fill="#fff" d="M0 0c0 .424.005.766.034 1.042.019.28.062.517.105.721.048.206.134.395.268.568.12.177.288.371.503.575.345.333.796.637 1.313.915.517.275 1.045.52 1.6.735.551.22 1.097.398 1.639.539.541.137 1.02.23 1.447.292.871.118 1.614.146 2.237.079.627-.067 1.145-.184 1.571-.359.422-.175.767-.378 1.021-.604.263-.222.584-.575.637-.575.115.01.589.686.987 1.074.397.39.996.781 1.796 1.169.498.237 1.001.426 1.519.572.517.151 1.044.261 1.576.35.757.124 1.504.163 2.228.115.733-.048 1.399-.28 1.978-.704.417-.312.752-.698.982-1.131.235-.431.403-.877.513-1.332.105-.453.173-.898.197-1.339.019-.445.038-.826.038-1.145v-13.553c0-.283-.048-.508-.144-.656-.096-.146-.278-.24-.56-.29-1.16-.204-1.744-.305-2.904-.499-.306-.055-.503-.023-.603.075-.091.105-.134.321-.134.661V.184c0 .425-.024.875-.058 1.371-.033.493-.139.936-.321 1.324-.172.391-.455.7-.829.911-.383.213-.915.263-1.6.153-.474-.077-.881-.221-1.217-.429-.33-.211-.589-.453-.781-.673-.369-.431-.627-.867-.685-1.31-.062-.443-.096-.98-.096-1.612v-13.52c0-.311-.038-.539-.114-.683-.087-.146-.274-.234-.58-.282-1.116-.173-1.682-.262-2.803-.427-.283-.038-.493-.026-.632.043-.144.072-.211.295-.211.664v13.165c0 .319-.01.699-.038 1.159-.019.456-.12.882-.297 1.294-.178.407-.46.742-.839 1.001-.373.264-.905.345-1.595.249-.139-.014-.412-.086-.8-.206-.393-.119-.776-.402-1.159-.845-.398-.472-.647-.956-.729-1.435-.081-.484-.119-1.018-.119-1.596v-13.521c0-.369-.048-.609-.159-.724-.105-.117-.311-.196-.617-.237-1.117-.148-1.677-.216-2.798-.359-.331-.041-.532-.003-.628.12-.096.119-.139.323-.139.61Z" clip-path="url(#P)" transform="matrix(1.333333 0 0 -1.333333 792.5168 80.4792)"/>
  <path fill="#fff" d="M0 0c-.12-.129-.249-.264-.388-.398-.144-.131-.302-.217-.494-.256-.191-.038-.378.007-.57.125-.187.117-.278.361-.278.73 0 .395.163.817.494 1.246C-.125 3.011.436 3.792 1.552 5.361c.115.182.278.376.465.589.187.209.412.34.671.391.33.071.598-.022.824-.278.22-.252.335-.599.335-1.049 0-.422-.077-.755-.235-1.009-.148-.256-.307-.486-.474-.68C1.883 1.991 1.26 1.325 0 0m1.198-12.284c-.681-.376-1.323-.752-1.945-1.123-.619-.376-1.165-.781-1.634-1.217-.465-.433-.834-.929-1.102-1.475-.264-.559-.402-1.198-.402-1.933 0-1.004.254-1.766.752-2.295.503-.532 1.221-.707 2.156-.522.536.107.958.287 1.245.531.292.242.513.52.652.827.139.304.22.603.239.912.029.304.039.561.039.774zm4.168-5.272c-.024-.872-.12-1.593-.283-2.151-.168-.56-.589-1.121-1.274-1.689-.47-.388-.968-.718-1.5-.984-.527-.271-1.039-.494-1.533-.673-.493-.18-.934-.316-1.317-.407-.393-.091-.671-.154-.834-.187-.192-.036-.489-.089-.905-.156-.408-.069-.868-.103-1.371-.091-.507.002-1.039.067-1.576.187-.541.117-1.035.338-1.48.666-.446.323-.81.781-1.097 1.372-.283.59-.422 1.344-.422 2.264 0 .448.077 1.051.245 1.818.162.764.613 1.6 1.303 2.491.383.484.814.939 1.307 1.349.494.407 1.059.814 1.701 1.2.633.388 1.351.781 2.151 1.19.8.41 1.706.858 2.717 1.354v2.012c0 .369-.01.759-.039 1.171-.019.42-.1.791-.244 1.117-.139.325-.355.572-.652.749-.297.175-.699.211-1.216.106-.422-.084-.777-.228-1.059-.441-.283-.211-.518-.453-.709-.714-.182-.256-.331-.527-.436-.795-.106-.273-.206-.503-.268-.7-.178-.517-.374-1.027-.619-1.482-.249-.453-.699-.743-1.355-.867-.546-.101-.997 0-1.361.311s-.551.786-.551 1.416c0 .606.173 1.219.503 1.849.326.625.791 1.217 1.409 1.777.608.561 1.355 1.068 2.223 1.517.871.445 1.835.773 2.893.986 1.414.288 2.501.295 3.268.008.761-.285 1.327-.736 1.676-1.342.355-.611.556-1.305.618-2.091.053-.788.087-1.552.087-2.29z" clip-path="url(#Q)" transform="matrix(1.333333 0 0 -1.333333 839.4987 64.3022)"/>
</svg>
