<svg xmlns="http://www.w3.org/2000/svg" viewBox="0 0 202.98265 181.89558">
  <defs>
    <clipPath id="a" clipPathUnits="userSpaceOnUse">
      <path d="M-172.3164 211.0166h1080v-1920h-1080Z"/>
    </clipPath>
  </defs>
  <path fill="#1d4b9a" d="M0 0c-.742-.642-1.35-.139-1.57.196-3.16 4.803-4.242 9.859-4.612 13.028-.238 2.032-1.375 8.314-13.177 8.314-10.252 0-11.151-8.448-11.282-10.028-.728-8.84 3.831-17.309 9.877-23.722.608-.645.195-.979-.076-1.081-23.757-7.118-28.411 5.801-29.131 8.04C-51.859.618-52.3 7.627-52.3 12.674c0 23.024 2.219 50.891 41.796 50.891 5.755 0 22.012.53 28.903-10.883C27.11 38.249 16.795 15.6 0 0m50.491-11.41c-2.701-1.029-17.484-4.495-33.556-.473-.664.165-.315.562-.105.751C31.919 2.65 40.352 19.415 40.352 36.448c0 5.827-.915 12.094-3.735 17.859.018-.02.038-.039.055-.058-2.708 5.567-11.909 21.002-47.393 21.002-.065 0-.123.002-.188.002.002 0 .002-.001.004-.001-7.846-.061-16.059-.491-24.539-1.305-.741-.042-1.114.209-.663 1.132 6.016 11.135 13.243 20.53 20.997 27.583.514.499.062 1.046-.257 1.261-4.056 2.715-12.543 2.355-21.213-1.296-5.765-2.428-10.428-5.813-13.172-9.22-5.021-6.728-9.626-14.319-13.579-22.626-.324-.694-.892-.935-1.141-.983-8.94-1.693-17.582-3.715-25.831-6.004-2.558-.875-3.355-1.966-3.695-2.605-.667-1.256-1.294-2.583-1.86-3.979-4.106-10.078-3.817-19.864.476-22.774 1.367-.694 2.61.119 3.349.49 5.916 2.97 12.109 5.831 18.552 8.544.182.078.465.167.422-.307-1.906-8.246-2.851-16.246-2.851-23.717 0-38.837 22.731-50.165 46.14-50.165 1.966 0 3.959.113 5.968.328-.056.006-.226.03-.49.08l.49-.08c7.177.769 14.583 2.919 21.792 6.409.466.245.915.161 1.113.116 24.536-5.546 41.616.812 49.707 5.425 6.206 3.539 4.382 8.059 1.681 7.031" clip-path="url(#a)" transform="matrix(1.333333 0 0 -1.333333 131.701535 140.93692)"/>
</svg>
