<svg xmlns="http://www.w3.org/2000/svg" xml:space="preserve" id="Capa_2" data-name="Capa 2" version="1.1" viewBox="0 0 721.49 285.39">
  <defs id="defs23">
    <radialGradient id="paint0_radial" cx="0" cy="0" r="1" gradientTransform="matrix(12.46295 -7.0248 5.57245 9.88628 9.38479 8.34769)" gradientUnits="userSpaceOnUse">
      <stop id="stop7-3" offset=".2479" stop-color="red"/>
      <stop id="stop8-6" offset=".8639" stop-color="#C20000"/>
    </radialGradient>
    <radialGradient id="paint1_radial" cx="0" cy="0" r="1" gradientTransform="matrix(10.73016 -6.0481 4.7977 8.51177 9.7385 7.47018)" gradientUnits="userSpaceOnUse">
      <stop id="stop9-7" offset=".2479" stop-color="red"/>
      <stop id="stop10-5" offset="1" stop-color="#C20000"/>
    </radialGradient>
    <radialGradient id="paint2_radial" cx="0" cy="0" r="1" gradientTransform="matrix(12.46295 -7.0248 5.57245 9.88628 9.38479 8.34769)" gradientUnits="userSpaceOnUse">
      <stop id="stop11-3" stop-color="#fff" stop-opacity=".25"/>
      <stop id="stop12-5" offset="1" stop-color="#fff" stop-opacity="0"/>
    </radialGradient>
    <radialGradient id="paint3_radial" cx="0" cy="0" r="1" gradientTransform="matrix(9.36242 -4.62638 2.2861 4.62637 14.5277 13.2044)" gradientUnits="userSpaceOnUse">
      <stop id="stop13-6" stop-color="#BD2719" stop-opacity=".25"/>
      <stop id="stop14-2" offset="1" stop-color="#BD2719" stop-opacity="0"/>
    </radialGradient>
    <radialGradient id="paint4_radial" cx="0" cy="0" r="1" gradientTransform="matrix(3.44964 -1.37214 .85235 2.14287 7.34746 7.19453)" gradientUnits="userSpaceOnUse">
      <stop id="stop15-9" stop-color="#fff"/>
      <stop id="stop16-1" offset="1" stop-color="#fff" stop-opacity="0"/>
    </radialGradient>
    <radialGradient id="paint5_radial" cx="0" cy="0" r="1" gradientTransform="matrix(2.3281 -2.00697 1.24678 1.44628 14.6004 6.84619)" gradientUnits="userSpaceOnUse">
      <stop id="stop17-2" stop-color="#fff"/>
      <stop id="stop18-7" offset="1" stop-color="#fff" stop-opacity="0"/>
    </radialGradient>
    <linearGradient id="Degradado_sin_nombre_11" x1="-3516.47" x2="-2812.82" y1="236.24" y2="236.24" data-name="Degradado sin nombre 11" gradientTransform="matrix(-1 0 0 1 -2812.82 0)" gradientUnits="userSpaceOnUse">
      <stop id="stop1" offset="0" stop-color="#92cdf1" stop-opacity="0"/>
      <stop id="stop2" offset=".01" stop-color="#8bc6ed" stop-opacity=".14"/>
      <stop id="stop3" offset=".04" stop-color="#7fbde7" stop-opacity=".36"/>
      <stop id="stop4" offset=".06" stop-color="#75b4e3" stop-opacity=".56"/>
      <stop id="stop5" offset=".09" stop-color="#6daddf" stop-opacity=".72"/>
      <stop id="stop6" offset=".12" stop-color="#67a7db" stop-opacity=".84"/>
      <stop id="stop7" offset=".14" stop-color="#62a4d9" stop-opacity=".93"/>
      <stop id="stop8" offset=".17" stop-color="#5fa1d8" stop-opacity=".98"/>
      <stop id="stop9" offset=".2" stop-color="#5fa1d8"/>
      <stop id="stop10" offset=".8" stop-color="#5fa1d8"/>
      <stop id="stop11" offset="1" stop-color="#92cdf1" stop-opacity="0"/>
    </linearGradient>
    <linearGradient id="Degradado_sin_nombre_9" x1="-.56" x2="703.09" y1="228.63" y2="228.63" data-name="Degradado sin nombre 9" gradientUnits="userSpaceOnUse">
      <stop id="stop12" offset="0" stop-color="#1f3664" stop-opacity="0"/>
      <stop id="stop13" offset=".04" stop-color="#1f3664" stop-opacity=".34"/>
      <stop id="stop14" offset=".08" stop-color="#1f3664" stop-opacity=".63"/>
      <stop id="stop15" offset=".12" stop-color="#1f3664" stop-opacity=".83"/>
      <stop id="stop16" offset=".16" stop-color="#1f3664" stop-opacity=".96"/>
      <stop id="stop17" offset=".2" stop-color="#1f3664"/>
      <stop id="stop18" offset=".8" stop-color="#1f3664"/>
      <stop id="stop19" offset=".84" stop-color="#1f3664" stop-opacity=".96"/>
      <stop id="stop20" offset=".88" stop-color="#1f3664" stop-opacity=".83"/>
      <stop id="stop21" offset=".92" stop-color="#1f3664" stop-opacity=".63"/>
      <stop id="stop22" offset=".96" stop-color="#1f3664" stop-opacity=".34"/>
      <stop id="stop23" offset="1" stop-color="#1f3664" stop-opacity="0"/>
    </linearGradient>
    <linearGradient id="paint6_linear" x1="13.8868" x2="15.6583" y1="26.8498" y2="2.96408" gradientUnits="userSpaceOnUse">
      <stop id="stop19-0" stop-color="#860805"/>
      <stop id="stop20-9" offset="1" stop-color="#BD2719" stop-opacity="0"/>
    </linearGradient>
    <style id="style23">
      .cls-4{fill:#e4c7ac}.cls-10,.cls-11,.cls-12,.cls-13,.cls-14,.cls-15,.cls-16,.cls-17,.cls-18,.cls-20,.cls-21,.cls-22,.cls-23,.cls-24,.cls-25,.cls-28,.cls-29,.cls-30,.cls-31,.cls-32,.cls-33,.cls-35,.cls-36,.cls-37,.cls-39,.cls-4,.cls-41,.cls-43,.cls-44,.cls-45,.cls-46,.cls-48,.cls-49,.cls-6,.cls-7,.cls-8,.cls-9{fill-rule:evenodd}.cls-53{fill:#1f3664}.cls-6{fill:#ecd7c3}.cls-7{fill:#e9d1b9}.cls-8{fill:#ebd6c1}.cls-9{fill:#e8cfb7}.cls-10{fill:#e5c8ad}.cls-11{fill:#efddcb}.cls-71{fill:#fff}.cls-12{fill:#ead3bd}.cls-13{fill:#edd9c5}.cls-14{fill:#efdecd}.cls-15{fill:#ead4be}.cls-16{fill:#e7cdb4}.cls-17{fill:#eedcca}.cls-18{fill:#eedbc8}.cls-20{fill:#e4c6ab}.cls-21{fill:#e5c8ae}.cls-22{fill:#edd9c6}.cls-23{fill:#eddac7}.cls-24{fill:#ecd8c4}.cls-25{fill:#efddcc}.cls-28{fill:#eedbc9}.cls-29{fill:#e9d2bb}.cls-30{fill:#e6cab1}.cls-31{fill:#e9d1ba}.cls-32{fill:#ebd5bf}.cls-33{fill:#e6cbb2}.cls-35{fill:#ead3bc}.cls-36{fill:#e7ccb3}.cls-37{fill:#e6cab0}.cls-39{fill:#ebd5c0}.cls-41{fill:#e5c9af}.cls-43{fill:#e8ceb5}.cls-44{fill:#ecd7c2}.cls-45{fill:#e8d0b8}.cls-46{fill:#f0dfce}.cls-48{fill:#e7ccb2}.cls-49{fill:#e8cfb6}
    </style>
  </defs>
  <g id="Arte">
    <path id="path239" d="M711.97 42.34c-5.04 0-9.53-3.49-9.53-9.49s4.49-9.49 9.53-9.49 9.51 3.49 9.51 9.49-4.49 9.49-9.51 9.49Zm0-16.77c-3.77 0-6.81 2.91-6.81 7.27s3.04 7.31 6.81 7.28v.03c3.66 0 6.77-2.94 6.77-7.31s-3.12-7.27-6.77-7.27Zm-1.58 12.37h-2.18V27.73h3.81c2.63 0 4.19.75 4.19 3.09 0 1.88-1.11 2.56-2.45 2.66l2.6 4.46h-2.58l-2.35-4.29h-1.03v4.29Zm1.94-6.03c.98 0 1.55-.19 1.55-1.33 0-1.06-1.13-1.12-1.96-1.12h-1.53v2.45h1.94Z" class="cls-53"/>
    <path id="path240" fill="#5fa1d8" d="M179.09 33.55c-12.54 0-22.9 12.14-22.9 33.96 0 26.58 13.36 41.46 29.32 41.46 8.59 0 14.33-4.09 16.5-5.59 2.73-1.91 3.41-2.45 5.04-2.45 2.31 0 4.36 1.77 4.36 4.49 0 5.86-10.64 17.59-30.4 17.59-30.69 0-44.47-24.68-44.47-50.86s15.95-49.79 44.05-49.79c19.92 0 31.92 11.74 31.92 19.91 0 4.64-3.69 7.91-8.18 7.91-3.42 0-5.59-1.5-7.23-4.09-3.96-5.99-8.18-12.55-18.01-12.55Zm59.31 84.42c-.13 2.18-.54 2.86-2.86 2.86h-11.19c-2.31 0-2.99-.54-2.99-2.86v-57c0-4.22.55-6 3.95-7.77 4.63-2.59 14.44-4.78 24.95-4.78 8.45 0 16.35 2.19 16.35 10.23 0 4.09-2.85 7.37-7.21 7.37-3.68 0-4.9-2.05-6.95-5.18-1.22-1.64-2.73-3.82-6.82-3.82-7.09 0-7.23 4.77-7.23 8.19v52.77Zm45.55-32.87c2.31 18.82 12.27 22.5 18.82 22.5 7.23 0 12.68-4.36 16.23-8.99 2.18-3.14 2.86-3.95 4.64-3.95s3.55 1.5 3.55 4.22c0 3.81-5.6 23.72-27 23.72-18 0-30.55-13.09-30.55-37.22 0-27.14 15.96-36.97 30.55-36.97 21.27 0 26.32 19.1 26.32 25.65 0 4.77-3.13 5.18-4.77 5.44l-37.77 5.6Zm25.5-12.68c-.55-8.73-5.86-13.78-11.86-13.78-9.41 0-13.63 8.6-14.32 18.01l26.19-4.23Zm28.24-8.46c.14-5.73.14-7.22 3.55-9.68 5.59-4.09 16.77-5.87 23.18-5.87 13.64 0 18.55 5.19 21.14 7.78 2.05-2.04 4.64-4.5 10.77-6.27 3.82-1.09 7.91-1.5 12-1.5 5.86 0 11.72.95 16.23 4.5 6.54 5.32 6.68 13.64 6.68 18.14v46.91c0 2.04-.54 2.86-2.72 2.86h-11.33c-2.32 0-2.86-.68-2.86-2.99v-44.6c0-5.86-.14-14.6-10.78-14.6-3.68 0-6.13 1.37-7.64 2.73-2.99 2.59-2.99 5.32-2.99 9.69v46.78c0 2.17-.41 2.99-2.73 2.99h-10.91c-2.19 0-3.28-.27-3.28-2.86V72.42c0-4.23 0-14.19-10.63-14.19-1.09 0-4.64 0-7.51 2.73-3.13 2.86-3.28 6.14-3.28 10.09v46.78c0 2.45-.68 2.99-3 2.99h-10.91c-2.59 0-3-.82-3-2.86V63.95Zm156.84 42.42c-.13 5.99-.68 9.27-5.99 12.14-7.1 3.95-17.6 4.09-20.05 4.09-4.37 0-26.45 0-26.45-19.22 0-2.99.54-8.72 5.99-13.91 5.99-5.86 14.87-8.18 30.41-12.28v-6.95c0-5.05-.13-12.42-8.31-12.42-6.55 0-8.46 5.06-9.57 7.51-1.22 3.4-2.44 6.82-7.63 6.82-4.09 0-7.36-2.87-7.36-7.23 0-8.33 10.64-16.51 27.14-16.51 21.95 0 21.82 13.78 21.82 23.87v34.1ZM478.44 85.1c-10.63 3.28-19.78 6.14-19.78 16.37 0 6.82 4.1 11.73 11.33 11.73 8.32 0 8.45-6 8.45-9V85.1Zm115.74 2.87v-60.7c0-2.05.55-2.73 2.74-2.73h8.58c2.18-.13 2.74.55 2.74 2.73v90.83c0 2.32-.82 2.73-2.87 2.73h-7.64c-1.63-.27-2.05-.68-3.55-2.86l-46.92-66.14v66.01c0 2.17-.4 2.99-2.72 2.99h-8.59c-2.18 0-3-.27-3-2.73V27.41c0-2.59 1.1-2.87 3-2.87h10.36c2.33 0 2.87.27 4.38 2.46l43.49 60.96Zm104.61 11.86v18.95c0 1.91-.13 2.87-2.85 2.87h-11.06c-2.05 0-2.45-.55-2.45-2.73V99.83H652.7c-1.77 0-5.59 0-5.59-4.37 0-1.64.68-2.73 2.31-5.59l38.19-62.74c.96-1.5 2.32-3.81 5.86-3.81 5.18 0 5.32 3.81 5.32 6.14v60.41h6.96c2.05 0 2.87.28 2.87 2.46 0 .82 0 5.72-.14 6.13-.27 1.23-.96 1.37-2.58 1.37h-7.1Zm-15.82-9.96V50.33l-21.83 39.54h21.83Z"/>
    <path id="path241" d="M175.2 31.54c-12.55 0-22.92 12.14-22.92 33.96 0 26.59 13.36 41.45 29.33 41.45 8.59 0 14.32-4.08 16.5-5.58 2.72-1.92 3.4-2.45 5.04-2.45 2.32 0 4.36 1.78 4.36 4.5 0 5.86-10.63 17.59-30.41 17.59-30.68 0-44.46-24.67-44.46-50.86s15.97-49.77 44.05-49.77c19.92 0 31.91 11.72 31.91 19.91 0 4.63-3.68 7.91-8.19 7.91-3.4 0-5.59-1.51-7.22-4.09-3.96-6-8.18-12.55-18-12.55Zm59.3 84.43c-.14 2.17-.54 2.87-2.86 2.87h-11.17c-2.33 0-3-.55-3-2.87V58.96c0-4.23.54-6 3.96-7.78 4.62-2.59 14.44-4.77 24.94-4.77 8.45 0 16.36 2.18 16.36 10.22 0 4.09-2.86 7.38-7.23 7.38-3.68 0-4.91-2.06-6.95-5.19-1.23-1.63-2.73-3.82-6.82-3.82-7.09 0-7.22 4.77-7.22 8.18v52.78Zm45.55-32.87c2.31 18.82 12.27 22.5 18.82 22.5 7.22 0 12.69-4.37 16.23-8.99 2.18-3.14 2.86-3.96 4.63-3.96s3.54 1.51 3.54 4.23c0 3.82-5.58 23.73-26.99 23.73-18.01 0-30.55-13.08-30.55-37.22 0-27.15 15.95-36.96 30.55-36.96 21.27 0 26.32 19.09 26.32 25.64 0 4.78-3.13 5.18-4.77 5.45l-37.78 5.59Zm25.5-12.69c-.55-8.72-5.86-13.77-11.86-13.77-9.41 0-13.63 8.59-14.31 18.01l26.18-4.24Zm28.23-8.46c.14-5.73.14-7.23 3.55-9.68 5.59-4.09 16.77-5.86 23.18-5.86 13.65 0 18.55 5.17 21.14 7.77 2.06-2.05 4.64-4.51 10.78-6.27 3.82-1.1 7.91-1.5 12-1.5 5.86 0 11.74.95 16.23 4.49 6.55 5.32 6.69 13.64 6.69 18.14v46.92c0 2.04-.55 2.87-2.73 2.87H413.3c-2.32 0-2.86-.69-2.86-3.01V71.23c0-5.86-.14-14.59-10.77-14.59-3.68 0-6.14 1.36-7.64 2.72-3.01 2.59-3.01 5.32-3.01 9.68v46.77c0 2.19-.41 3.01-2.73 3.01h-10.91c-2.18 0-3.27-.29-3.27-2.87V70.39c0-4.23 0-14.18-10.64-14.18-1.1 0-4.64 0-7.51 2.73-3.13 2.86-3.27 6.14-3.27 10.09v46.77c0 2.46-.67 3.01-3 3.01h-10.91c-2.6 0-3.01-.82-3.01-2.87V61.93Zm156.85 42.42c-.14 6-.69 9.28-6 12.14-7.09 3.95-17.59 4.09-20.05 4.09-4.35 0-26.44 0-26.44-19.23 0-3 .54-8.73 5.99-13.9 6-5.88 14.88-8.2 30.42-12.29v-6.95c0-5.05-.13-12.42-8.32-12.42-6.54 0-8.46 5.05-9.54 7.51-1.24 3.41-2.46 6.82-7.65 6.82-4.09 0-7.37-2.86-7.37-7.22 0-8.32 10.65-16.5 27.14-16.5 21.96 0 21.83 13.77 21.83 23.87v34.09Zm-16.1-21.27c-10.63 3.27-19.77 6.13-19.77 16.35 0 6.83 4.09 11.74 11.32 11.74 8.32 0 8.45-6 8.45-9V83.1Zm115.74 2.86V25.28c0-2.05.55-2.73 2.73-2.73h8.59c2.18-.14 2.73.54 2.73 2.73v90.82c0 2.32-.82 2.73-2.87 2.73h-7.64c-1.63-.29-2.04-.69-3.54-2.87l-46.91-66.14v66c0 2.19-.42 3.01-2.73 3.01h-8.59c-2.19 0-3.01-.29-3.01-2.73V25.4c0-2.59 1.1-2.86 3.01-2.86h10.37c2.31 0 2.86.27 4.36 2.45l43.5 60.97Zm104.61 11.86v18.96c0 1.91-.13 2.86-2.86 2.86h-11.04c-2.05 0-2.46-.55-2.46-2.73v-19.1h-29.73c-1.77 0-5.59 0-5.59-4.36 0-1.64.68-2.73 2.31-5.59l38.19-62.74c.96-1.51 2.31-3.82 5.86-3.82 5.18 0 5.32 3.82 5.32 6.14v60.42h6.96c2.05 0 2.86.27 2.86 2.45 0 .81 0 5.72-.12 6.13-.28 1.23-.98 1.36-2.61 1.36h-7.09Zm-15.81-9.95V48.31l-21.83 39.56h21.83Z" class="cls-53"/>
    <path id="path242" d="M102.48 67.49c1.97-2.92 15.11-4.01 16.56 11.46.34 3.63-.68 10.4-6.15 14.17.5 10.6.79 21.41-7.26 35.21-5.22 8.94-15.66 17.23-29.2 20.01-11.59 2.35-34.99 1.9-52.5-19.41-12.51-.57-15.89-6.33-17.43-9.99-5.31-12.71 2.32-15.65 5.09-16.73C7.57 92.04 2.96 72.02 2.86 67.3c-.33-16.94 5.47-37.41 29.87-45.24 10.65-3.41 26.21-2.98 36.52.14 17.44 5.3 25.89 22.19 27.11 25.34 2.68 6.93 5.51 18.48 6.14 19.94Z" class="cls-20"/>
    <path id="path243" d="M102.42 67.78c1.97-2.91 14.97-4.06 16.4 11.19.34 3.62-.67 10.36-6.13 14.12.5 10.56.78 21.33-7.24 35.09-5.2 8.91-15.54 17.18-29.04 19.92-11.61 2.34-35.38 1.63-52.28-19.39-12.35-.4-15.93-6.26-17.46-9.9-5.23-12.42 2.32-15.45 5.17-16.45-4.01-10.13-8.7-30.3-8.8-35.01-.33-16.88 5.54-37.3 29.86-45.07 10.91-3.46 26.17-2.98 36.42.21 17.33 5.39 25.67 22.04 26.88 25.18 2.67 6.91 5.59 18.65 6.21 20.11Z" class="cls-4"/>
    <path id="path244" d="M102.36 68.07c1.96-2.9 14.84-4.1 16.25 10.92.35 3.61-.67 10.32-6.11 14.07.5 10.52.78 21.26-7.21 34.96-5.18 8.88-15.42 17.12-28.88 19.84-11.64 2.32-35.78 1.36-52.06-19.36-12.19-.23-15.96-6.18-17.5-9.81-5.13-12.14 2.32-15.25 5.25-16.17-3.99-10.1-8.77-30.42-8.87-35.11C2.9 50.59 8.84 30.22 33.08 22.5c11.16-3.52 26.12-2.97 36.33.27 17.22 5.48 25.45 21.89 26.66 25.02 2.66 6.88 5.66 18.81 6.29 20.27Z" class="cls-10"/>
    <path id="path245" fill="#e5c9ae" fill-rule="evenodd" d="M102.3 68.36c1.95-2.89 14.7-4.15 16.1 10.65.35 3.6-.67 10.29-6.09 14.02.5 10.48.78 21.18-7.19 34.84-5.16 8.85-15.31 17.06-28.72 19.75-11.66 2.31-36.17 1.09-51.84-19.33-12.04-.06-16-6.11-17.53-9.72-5.04-11.87 2.32-15.04 5.33-15.89-3.98-10.06-8.84-30.54-8.94-35.21-.33-16.76 5.68-37.08 29.85-44.75 11.42-3.58 26.07-2.97 36.24.34 17.12 5.57 25.23 21.74 26.43 24.86 2.66 6.86 5.74 18.98 6.36 20.43Z"/>
    <path id="path246" fill="#e5caaf" fill-rule="evenodd" d="M102.24 68.65c1.95-2.88 14.56-4.2 15.94 10.37.35 3.58-.67 10.25-6.07 13.98.5 10.45.78 21.11-7.16 34.72-5.14 8.82-15.19 17-28.55 19.67-11.68 2.3-36.56.81-51.62-19.3-11.88.11-16.03-6.03-17.57-9.63-4.94-11.59 2.32-14.84 5.41-15.61-3.97-10.03-8.91-30.65-9-35.31-.33-16.7 5.74-37.02 29.84-44.58 11.66-3.66 26.03-2.97 36.14.4 17.01 5.66 25 21.6 26.21 24.69 2.65 6.83 5.82 19.15 6.43 20.6Z"/>
    <path id="path247" d="M102.18 68.94c1.94-2.87 14.42-4.25 15.79 10.1.35 3.57-.67 10.21-6.05 13.93.5 10.41.77 21.03-7.14 34.59-5.12 8.79-15.07 16.95-28.39 19.59-11.7 2.28-36.96.54-51.41-19.27-11.72.27-16.07-5.96-17.6-9.54-4.84-11.31 2.32-14.64 5.5-15.33-3.95-9.99-8.97-30.77-9.07-35.41-.33-16.64 5.81-36.91 29.83-44.42 11.92-3.72 25.98-2.96 36.05.47 16.9 5.75 24.78 21.45 25.98 24.53 2.64 6.81 5.89 19.32 6.51 20.76Z" class="cls-37"/>
    <path id="path248" fill="#e6cbb1" fill-rule="evenodd" d="M102.12 69.23c1.93-2.86 14.29-4.3 15.64 9.83.35 3.56-.66 10.18-6.03 13.88.49 10.37.77 20.96-7.11 34.47-5.11 8.76-14.95 16.89-28.23 19.5-11.73 2.27-37.35.27-51.19-19.25-11.57.44-16.1-5.89-17.63-9.45-4.75-11.04 2.32-14.43 5.58-15.05-3.94-9.96-9.04-30.89-9.14-35.51-.33-16.58 5.87-36.81 29.82-44.25 12.17-3.78 25.94-2.96 35.95.54 16.79 5.84 24.56 21.3 25.75 24.37 2.63 6.78 5.97 19.49 6.58 20.92Z"/>
    <path id="path249" d="M102.06 69.53c1.93-2.85 14.15-4.35 15.48 9.55.35 3.54-.66 10.14-6 13.83.49 10.33.77 20.88-7.09 34.35-5.09 8.73-14.84 16.83-28.07 19.42-11.75 2.26-37.74 0-50.97-19.22-11.41.61-16.13-5.81-17.67-9.36-4.65-10.76 2.32-14.23 5.66-14.76-3.92-9.92-9.11-31-9.21-35.61-.33-16.52 5.94-36.7 29.82-44.09 12.43-3.85 25.89-2.95 35.86.6 16.68 5.93 24.34 21.15 25.53 24.21 2.62 6.76 6.04 19.65 6.65 21.08Z" class="cls-36"/>
    <path id="path250" d="M102 69.82c1.92-2.84 14.01-4.4 15.33 9.28.35 3.53-.66 10.1-5.98 13.78.49 10.29.77 20.81-7.06 34.22-5.07 8.69-14.72 16.78-27.91 19.33-11.77 2.24-38.14-.27-50.75-19.19-11.26.78-16.17-5.74-17.7-9.27-4.55-10.48 2.33-14.03 5.74-14.48-3.91-9.89-9.18-31.12-9.28-35.71-.33-16.47 6.01-36.59 29.81-43.93 12.68-3.91 25.84-2.95 35.77.67 16.58 6.02 24.12 21 25.3 24.05 2.61 6.74 6.12 19.82 6.73 21.25Z" class="cls-16"/>
    <path id="path251" fill="#e7cdb5" fill-rule="evenodd" d="M101.94 70.11c1.91-2.83 13.87-4.45 15.18 9.01.35 3.52-.66 10.07-5.96 13.73.49 10.26.76 20.73-7.04 34.1-5.05 8.66-14.6 16.72-27.74 19.25-11.79 2.23-38.53-.55-50.53-19.16-11.1.94-16.2-5.67-17.73-9.18-4.45-10.21 2.33-13.83 5.82-14.2-3.9-9.85-9.25-31.24-9.35-35.81-.32-16.41 6.08-36.49 29.8-43.76 12.93-3.97 25.8-2.94 35.67.73 16.47 6.11 23.9 20.85 25.08 23.89 2.6 6.71 6.2 19.99 6.8 21.41Z"/>
    <path id="path252" fill="#e8ceb6" fill-rule="evenodd" d="M101.88 70.4c1.91-2.82 13.74-4.5 15.02 8.74.35 3.51-.65 10.03-5.94 13.68.49 10.22.76 20.66-7.01 33.97-5.03 8.63-14.48 16.66-27.58 19.16-11.82 2.22-38.92-.82-50.31-19.13-10.94 1.11-16.23-5.59-17.77-9.1-4.35-9.93 2.33-13.62 5.9-13.92-3.88-9.82-9.32-31.35-9.41-35.91-.32-16.35 6.15-36.38 29.79-43.6 13.19-4.03 25.75-2.94 35.58.8 16.36 6.2 23.68 20.7 24.85 23.73 2.59 6.69 6.27 20.16 6.88 21.57Z"/>
    <path id="path253" d="M101.83 70.69c1.9-2.81 13.6-4.54 14.87 8.46.35 3.49-.65 9.99-5.92 13.63.49 10.18.76 20.58-6.98 33.85-5.01 8.6-14.37 16.61-27.42 19.08-11.84 2.2-39.31-1.09-50.09-19.11-10.79 1.28-16.27-5.52-17.8-9.01-4.25-9.66 2.33-13.42 5.98-13.64-3.87-9.78-9.38-31.47-9.48-36.01-.32-16.29 6.22-36.27 29.79-43.44 13.44-4.09 25.71-2.94 35.49.87 16.25 6.3 23.46 20.55 24.63 23.57 2.58 6.66 6.35 20.32 6.95 21.74Z" class="cls-9"/>
    <path id="path254" d="M101.77 70.98c1.89-2.8 13.46-4.59 14.72 8.19.35 3.48-.65 9.96-5.9 13.58.48 10.14.75 20.51-6.96 33.73-4.99 8.57-14.25 16.55-27.26 19-11.86 2.19-39.71-1.36-49.87-19.08-10.63 1.45-16.3-5.45-17.83-8.92-4.15-9.38 2.33-13.22 6.06-13.36-3.85-9.75-9.45-31.59-9.55-36.11-.32-16.23 6.29-36.16 29.78-43.27 13.7-4.15 25.66-2.93 35.39.93 16.14 6.39 23.23 20.4 24.4 23.41 2.57 6.64 6.42 20.49 7.02 21.9Z" class="cls-45"/>
    <path id="path255" d="M101.71 71.28c1.89-2.79 13.32-4.64 14.56 7.92.35 3.47-.65 9.92-5.88 13.53.48 10.11.75 20.43-6.93 33.6-4.98 8.54-14.13 16.49-27.1 18.91-11.88 2.18-40.1-1.63-49.66-19.05-10.48 1.62-16.33-5.37-17.87-8.83-4.05-9.11 2.33-13.01 6.14-13.08-3.84-9.71-9.52-31.7-9.62-36.21-.32-16.17 6.36-36.05 29.77-43.11 13.95-4.21 25.62-2.93 35.3 1 16.04 6.48 23.01 20.25 24.17 23.24 2.56 6.61 6.5 20.66 7.1 22.06Z" class="cls-7"/>
    <path id="path256" d="M101.65 71.57c1.88-2.78 13.19-4.69 14.41 7.65.35 3.46-.65 9.88-5.86 13.49.48 10.07.75 20.35-6.91 33.48-4.96 8.51-14.01 16.43-26.93 18.83-11.91 2.16-40.49-1.91-49.44-19.02-10.32 1.78-16.36-5.3-17.9-8.74-3.94-8.83 2.33-12.81 6.22-12.8-3.83-9.68-9.59-31.82-9.69-36.31-.32-16.11 6.43-35.94 29.76-42.94 14.2-4.26 25.57-2.92 35.21 1.07 15.93 6.57 22.79 20.1 23.95 23.08 2.55 6.59 6.58 20.83 7.17 22.23Z" class="cls-31"/>
    <path id="path257" fill="#ead2bc" fill-rule="evenodd" d="M101.59 71.86c1.87-2.77 13.05-4.74 14.26 7.37.35 3.44-.64 9.85-5.83 13.44.48 10.03.75 20.28-6.88 33.35-4.94 8.48-13.9 16.38-26.77 18.74-11.93 2.15-40.89-2.18-49.22-18.99-10.16 1.95-16.4-5.23-17.93-8.65-3.84-8.56 2.33-12.61 6.3-12.52-3.81-9.64-9.66-31.94-9.75-36.41-.32-16.05 6.5-35.83 29.76-42.78 14.46-4.32 25.52-2.92 35.11 1.13 15.82 6.66 22.57 19.95 23.72 22.92 2.54 6.57 6.65 20.99 7.25 22.39Z"/>
    <path id="path258" d="M101.53 72.15c1.87-2.76 12.91-4.79 14.1 7.1.35 3.43-.64 9.81-5.81 13.39.48 9.99.74 20.2-6.86 33.23-4.92 8.45-13.78 16.32-26.61 18.66-11.95 2.14-41.28-2.45-49-18.96-10.01 2.12-16.43-5.15-17.97-8.56-3.74-8.28 2.34-12.4 6.38-12.24-3.8-9.61-9.73-32.05-9.82-36.51-.32-15.99 6.57-35.72 29.75-42.62 14.71-4.38 25.48-2.91 35.02 1.2 15.71 6.75 22.35 19.8 23.5 22.76 2.53 6.54 6.73 21.16 7.32 22.55Z" class="cls-12"/>
    <path id="path259" d="M101.47 72.44c1.86-2.75 12.77-4.84 13.95 6.83.35 3.42-.64 9.77-5.79 13.34.48 9.95.74 20.13-6.83 33.11-4.9 8.41-13.66 16.26-26.45 18.57-11.97 2.12-41.67-2.72-48.78-18.94-9.85 2.29-16.46-5.08-18-8.47-3.63-8.01 2.34-12.2 6.46-11.96-3.78-9.57-9.8-32.17-9.89-36.61-.32-15.93 6.64-35.6 29.74-42.45 14.97-4.44 25.43-2.91 34.92 1.26 15.6 6.84 22.13 19.65 23.27 22.6 2.52 6.52 6.8 21.33 7.39 22.71Z" class="cls-15"/>
    <path id="path260" d="M101.41 72.73c1.85-2.74 12.64-4.89 13.8 6.56.35 3.4-.64 9.74-5.77 13.29.47 9.92.74 20.05-6.81 32.98-4.88 8.38-13.54 16.21-26.29 18.49-12 2.11-42.07-2.99-48.56-18.91-9.7 2.45-16.49-5.01-18.03-8.38-3.53-7.73 2.34-12 6.54-11.68-3.77-9.54-9.86-32.29-9.96-36.71-.31-15.87 6.71-35.49 29.73-42.29 15.22-4.5 25.39-2.91 34.83 1.33 15.5 6.93 21.91 19.5 23.04 22.44 2.51 6.49 6.88 21.5 7.47 22.88Z" class="cls-32"/>
    <path id="path261" d="M101.35 73.02c1.85-2.73 12.5-4.93 13.64 6.28.35 3.39-.63 9.7-5.75 13.24.47 9.88.74 19.98-6.78 32.86-4.86 8.35-13.43 16.15-26.13 18.41-12.02 2.1-42.46-3.27-48.34-18.88-9.54 2.62-16.52-4.93-18.07-8.29-3.43-7.46 2.34-11.8 6.63-11.4-3.76-9.5-9.93-32.4-10.03-36.81-.31-15.81 6.78-35.38 29.73-42.13 15.48-4.55 25.34-2.9 34.74 1.4 15.39 7.02 21.68 19.35 22.82 22.28 2.5 6.47 6.96 21.67 7.54 23.04Z" class="cls-39"/>
    <path id="path262" d="M101.29 73.32c1.84-2.72 12.36-4.98 13.49 6.01.35 3.38-.63 9.66-5.73 13.19.47 9.84.73 19.9-6.76 32.74-4.85 8.32-13.31 16.09-25.96 18.32-12.04 2.08-42.85-3.54-48.13-18.85-9.38 2.79-16.56-4.86-18.1-8.2-3.32-7.19 2.34-11.59 6.71-11.11-3.74-9.47-10-32.52-10.09-36.91-.31-15.76 6.86-35.26 29.72-41.96 15.73-4.61 25.3-2.9 34.64 1.46 15.28 7.11 21.46 19.2 22.59 22.12 2.49 6.45 7.03 21.83 7.61 23.2Z" class="cls-8"/>
    <path id="path263" d="M101.23 73.61c1.83-2.71 12.22-5.03 13.34 5.74.36 3.37-.63 9.63-5.71 13.14.47 9.8.73 19.83-6.73 32.61-4.83 8.29-13.19 16.04-25.8 18.24-12.06 2.07-43.25-3.81-47.91-18.82-9.23 2.96-16.59-4.79-18.13-8.11-3.21-6.91 2.34-11.39 6.79-10.83-3.73-9.43-10.07-32.64-10.16-37.01-.31-15.7 6.93-35.15 29.71-41.8 15.99-4.67 25.25-2.89 34.55 1.53 15.17 7.21 21.24 19.05 22.37 21.96 2.48 6.42 7.11 22 7.69 23.37Z" class="cls-44"/>
    <path id="path264" d="M101.17 73.9c1.82-2.7 12.08-5.08 13.19 5.46.36 3.35-.63 9.59-5.69 13.09.47 9.77.73 19.75-6.71 32.49-4.81 8.26-13.07 15.98-25.64 18.15-12.09 2.06-43.64-4.08-47.69-18.8-9.07 3.13-16.62-4.71-18.17-8.03-3.11-6.64 2.34-11.19 6.87-10.55C13.62 96.31 7.19 72.96 7.1 68.6c-.31-15.64 7-35.03 29.7-41.63 16.24-4.72 25.2-2.89 34.46 1.59 15.06 7.3 21.02 18.9 22.14 21.8 2.47 6.4 7.18 22.17 7.76 23.53Z" class="cls-24"/>
    <path id="path265" d="M101.12 74.19c1.82-2.69 11.95-5.13 13.03 5.19.36 3.34-.62 9.55-5.66 13.04.47 9.73.73 19.68-6.68 32.36-4.79 8.23-12.96 15.92-25.48 18.07-12.11 2.04-44.03-4.36-47.47-18.77-8.91 3.29-16.65-4.64-18.2-7.94-3-6.37 2.34-10.98 6.95-10.27C13.91 96.51 7.4 73 7.31 68.66 7 53.08 14.38 33.74 37.01 27.19c16.5-4.78 25.16-2.88 34.36 1.66 14.96 7.39 20.8 18.75 21.92 21.63 2.46 6.37 7.26 22.34 7.84 23.69Z" class="cls-13"/>
    <path id="path266" d="M101.06 74.48c1.81-2.68 11.81-5.18 12.88 4.92.36 3.33-.62 9.52-5.64 13 .46 9.69.72 19.6-6.66 32.24-4.77 8.2-12.84 15.87-25.32 17.98-12.13 2.03-44.43-4.63-47.25-18.74-8.76 3.46-16.68-4.57-18.23-7.85-2.89-6.09 2.35-10.78 7.03-9.99C14.19 96.71 7.6 73.05 7.5 68.73c-.31-15.52 7.15-34.76 29.69-41.31 16.76-4.8 25.11-2.88 34.27 1.73 14.85 7.48 20.58 18.61 21.69 21.47 2.45 6.35 7.34 22.5 7.91 23.86Z" class="cls-22"/>
    <path id="path267" d="M101 74.77c1.8-2.67 11.67-5.23 12.73 4.65.36 3.31-.62 9.48-5.62 12.95.46 9.65.72 19.53-6.63 32.12-4.75 8.17-12.72 15.81-25.15 17.9-12.15 2.02-44.82-4.9-47.03-18.71-8.6 3.63-16.71-4.5-18.27-7.76-2.79-5.82 2.35-10.58 7.11-9.71C14.47 96.92 7.8 73.11 7.7 68.8c-.31-15.46 7.22-34.65 29.68-41.14 17.02-4.86 25.07-2.88 34.18 1.79 14.74 7.57 20.36 18.46 21.46 21.31 2.44 6.32 7.41 22.67 7.98 24.02Z" class="cls-23"/>
    <path id="path268" d="M100.94 75.07c1.8-2.66 11.53-5.28 12.57 4.37.36 3.3-.62 9.44-5.6 12.9.46 9.61.72 19.45-6.6 31.99-4.73 8.13-12.6 15.75-24.99 17.82-12.18 2-45.21-5.17-46.81-18.68-8.45 3.8-16.74-4.43-18.3-7.67-2.68-5.55 2.35-10.38 7.19-9.43-3.66-9.26-10.41-33.22-10.5-37.51-.31-15.4 7.29-34.54 29.67-40.98 17.27-4.91 25.02-2.87 34.08 1.86 14.63 7.66 20.13 18.31 21.24 21.15 2.43 6.3 7.49 22.84 8.06 24.18Z" class="cls-18"/>
    <path id="path269" fill="#eedcc9" fill-rule="evenodd" d="M100.88 75.36c1.79-2.65 11.4-5.33 12.42 4.1.36 3.29-.62 9.41-5.58 12.85.46 9.58.72 19.38-6.58 31.87-4.72 8.1-12.49 15.69-24.83 17.73-12.2 1.99-45.6-5.44-46.59-18.66-8.29 3.97-16.77-4.35-18.34-7.58-2.57-5.28 2.35-10.17 7.27-9.15C15.01 97.3 8.17 73.18 8.08 68.91c-.3-15.34 7.36-34.43 29.67-40.82 17.53-4.97 24.98-2.87 33.99 1.93 14.52 7.75 19.91 18.16 21.01 20.99 2.42 6.28 7.56 23.01 8.13 24.34Z"/>
    <path id="path270" d="M100.82 75.65c1.78-2.64 11.26-5.37 12.27 3.83.36 3.28-.61 9.37-5.56 12.8.46 9.54.71 19.3-6.55 31.75-4.7 8.07-12.37 15.64-24.67 17.65-12.22 1.98-46-5.72-46.38-18.63-8.13 4.13-16.79-4.28-18.37-7.49-2.46-5.01 2.35-9.97 7.35-8.87C15.28 97.5 8.36 73.24 8.27 68.98c-.3-15.28 7.43-34.32 29.66-40.65 17.78-5.03 24.93-2.86 33.89 1.99 14.42 7.84 19.69 18.01 20.79 20.83 2.41 6.25 7.64 23.17 8.21 24.51Z" class="cls-17"/>
    <path id="path271" d="M100.76 75.94c1.78-2.63 11.12-5.42 12.11 3.56.36 3.26-.61 9.33-5.54 12.75.46 9.5.71 19.22-6.53 31.62-4.68 8.04-12.25 15.58-24.51 17.56-12.25 1.96-46.39-5.99-46.16-18.6-7.98 4.3-16.82-4.21-18.4-7.4-2.35-4.74 2.35-9.77 7.43-8.59-3.61-9.15-10.62-33.57-10.71-37.81-.3-15.22 7.5-34.21 29.65-40.49 18.04-5.09 24.88-2.86 33.8 2.06 14.31 7.93 19.47 17.86 20.56 20.67 2.4 6.23 7.72 23.34 8.28 24.67Z" class="cls-25"/>
    <path id="path272" d="M100.7 76.23c1.77-2.62 10.98-5.47 11.96 3.28.36 3.25-.61 9.3-5.52 12.7.45 9.46.71 19.15-6.5 31.5-4.66 8.01-12.13 15.52-24.34 17.48-12.27 1.95-46.78-6.26-45.94-18.57-7.82 4.47-16.84-4.14-18.44-7.31-2.23-4.47 2.35-9.56 7.51-8.31-3.6-9.12-10.69-33.69-10.78-37.91-.3-15.16 7.57-34.1 29.64-40.32 18.29-5.15 24.84-2.85 33.71 2.12C86.2 38.91 91.25 48.6 92.34 51.4c2.39 6.2 7.79 23.51 8.35 24.83Z" class="cls-14"/>
    <path id="path273" d="M100.64 76.52c1.76-2.61 10.85-5.52 11.81 3.01.36 3.24-.61 9.26-5.49 12.65.45 9.43.71 19.07-6.48 31.37-4.64 7.98-12.02 15.47-24.18 17.39-12.29 1.94-47.18-6.53-45.72-18.54-7.67 4.64-16.88-4.07-18.47-7.22-2.13-4.19 2.35-9.36 7.59-8.03-3.59-9.08-10.75-33.8-10.84-38.01-.3-15.1 7.64-33.99 29.64-40.16 18.54-5.2 24.79-2.85 33.61 2.19 14.09 8.11 19.03 17.56 20.11 20.35 2.39 6.18 7.87 23.68 8.43 25Z" class="cls-46"/>
    <path id="path274" d="M102.36 106.46c.3 6.26-4.17 11.56-9.96 11.84-5.81.27-10.75-4.58-11.05-10.84-.3-6.26 4.16-11.57 9.97-11.84 5.79-.27 10.73 4.58 11.03 10.84Z" class="cls-46"/>
    <path id="path275" d="M102.24 106.47c.3 6.18-4.12 11.42-9.84 11.69-5.74.27-10.62-4.52-10.91-10.71-.3-6.18 4.11-11.43 9.85-11.7 5.72-.27 10.6 4.52 10.9 10.71Z" class="cls-14"/>
    <path id="path276" d="M102.11 106.48c.29 6.1-4.07 11.28-9.71 11.55-5.67.27-10.49-4.46-10.78-10.58-.3-6.11 4.06-11.29 9.73-11.55 5.65-.26 10.47 4.47 10.76 10.58Z" class="cls-25"/>
    <path id="path277" d="M101.98 106.48c.29 6.03-4.01 11.14-9.59 11.41-5.6.27-10.36-4.41-10.65-10.45-.29-6.03 4.01-11.15 9.61-11.41 5.58-.26 10.34 4.41 10.63 10.45Z" class="cls-11"/>
    <path id="path278" d="M101.85 106.49c.29 5.95-3.96 11-9.47 11.26-5.53.26-10.23-4.35-10.51-10.32-.29-5.95 3.96-11.01 9.49-11.26 5.51-.26 10.21 4.36 10.5 10.32Z" class="cls-17"/>
    <path id="path279" d="M101.73 106.5c.28 5.87-3.91 10.86-9.35 11.12-5.46.26-10.1-4.3-10.38-10.18-.28-5.88 3.91-10.87 9.37-11.12 5.44-.26 10.08 4.3 10.36 10.19Z" class="cls-28"/>
    <path id="path280" d="M101.6 106.5c.28 5.8-3.86 10.72-9.23 10.97-5.39.26-9.97-4.24-10.24-10.05-.28-5.8 3.86-10.73 9.24-10.98 5.37-.25 9.95 4.24 10.23 10.05Z" class="cls-18"/>
    <path id="path281" d="M101.47 106.51c.27 5.72-3.81 10.58-9.11 10.83-5.32.25-9.84-4.19-10.11-9.92-.28-5.73 3.81-10.58 9.12-10.83 5.3-.25 9.81 4.19 10.09 9.92Z" class="cls-23"/>
    <path id="path282" d="M101.34 106.51c.27 5.65-3.76 10.44-8.99 10.69-5.25.25-9.71-4.13-9.98-9.79-.27-5.65 3.76-10.44 9-10.69 5.23-.25 9.68 4.13 9.96 9.79Z" class="cls-22"/>
    <path id="path283" d="M101.21 106.52c.27 5.57-3.71 10.29-8.86 10.54-5.18.25-9.58-4.07-9.84-9.66-.27-5.57 3.71-10.3 8.88-10.54 5.16-.24 9.55 4.08 9.82 9.66Z" class="cls-13"/>
    <path id="path284" d="M101.09 106.53c.26 5.49-3.66 10.15-8.74 10.4-5.11.24-9.45-4.02-9.71-9.53-.27-5.5 3.66-10.16 8.76-10.4 5.09-.24 9.42 4.02 9.69 9.53Z" class="cls-24"/>
    <path id="path285" d="M100.96 106.53c.26 5.42-3.61 10.01-8.62 10.25-5.04.24-9.32-3.96-9.57-9.39-.26-5.42 3.61-10.02 8.64-10.26 5.02-.24 9.29 3.97 9.56 9.4Z" class="cls-6"/>
    <path id="path286" d="M100.83 106.54c.26 5.34-3.56 9.87-8.5 10.11-4.97.24-9.19-3.91-9.44-9.26-.26-5.35 3.56-9.88 8.52-10.11 4.95-.23 9.16 3.91 9.42 9.27Z" class="cls-44"/>
    <path id="path287" d="M100.7 106.55c.25 5.26-3.5 9.73-8.38 9.96-4.9.23-9.05-3.85-9.31-9.13-.25-5.27 3.51-9.74 8.4-9.97 4.88-.23 9.03 3.86 9.29 9.13Z" class="cls-8"/>
    <path id="path288" d="M100.58 106.55c.25 5.19-3.45 9.59-8.26 9.82-4.83.23-8.92-3.8-9.17-9-.25-5.19 3.46-9.6 8.28-9.82 4.81-.23 8.9 3.8 9.15 9Z" class="cls-39"/>
    <path id="path289" d="M100.45 106.56c.25 5.11-3.4 9.45-8.14 9.68-4.76.23-8.79-3.74-9.04-8.87-.25-5.12 3.41-9.46 8.15-9.68 4.74-.22 8.77 3.75 9.02 8.87Z" class="cls-32"/>
    <path id="path290" d="M100.32 106.57c.24 5.03-3.35 9.31-8.01 9.53-4.68.22-8.66-3.68-8.9-8.74-.24-5.04 3.36-9.32 8.03-9.54 4.67-.22 8.64 3.69 8.88 8.74Z" class="cls-15"/>
    <path id="path291" d="M100.19 106.57c.24 4.96-3.3 9.17-7.89 9.39-4.61.22-8.53-3.63-8.77-8.6-.24-4.97 3.31-9.18 7.91-9.39 4.6-.22 8.51 3.63 8.75 8.61Z" class="cls-12"/>
    <path id="path292" d="M100.06 106.58c.24 4.88-3.25 9.03-7.77 9.24-4.54.22-8.4-3.57-8.64-8.47-.23-4.89 3.26-9.03 7.79-9.25 4.53-.22 8.38 3.58 8.62 8.48Z" class="cls-35"/>
    <path id="path293" d="M99.94 106.58c.23 4.8-3.2 8.89-7.65 9.1-4.47.22-8.27-3.52-8.5-8.34-.23-4.81 3.2-8.89 7.67-9.1 4.45-.21 8.25 3.52 8.48 8.34Z" class="cls-29"/>
    <path id="path294" d="M99.81 106.59c.23 4.73-3.15 8.75-7.53 8.96-4.4.21-8.14-3.46-8.37-8.21-.23-4.74 3.15-8.75 7.55-8.96 4.38-.21 8.12 3.47 8.35 8.21Z" class="cls-31"/>
    <path id="path295" d="M99.68 106.6c.23 4.65-3.1 8.61-7.41 8.81-4.33.21-8.01-3.41-8.23-8.08-.22-4.66 3.1-8.61 7.43-8.82 4.31-.21 7.99 3.41 8.21 8.08Z" class="cls-7"/>
    <path id="path296" d="M99.55 106.6c.22 4.58-3.05 8.47-7.29 8.67-4.26.21-7.88-3.35-8.1-7.94-.22-4.59 3.05-8.47 7.31-8.67 4.24-.2 7.86 3.36 8.08 7.95Z" class="cls-45"/>
    <path id="path297" d="M99.42 106.61c.22 4.5-2.99 8.33-7.17 8.52-4.19.2-7.75-3.3-7.97-7.81-.22-4.51 3-8.33 7.19-8.53 4.17-.2 7.73 3.3 7.94 7.82Z" class="cls-9"/>
    <path id="path298" d="M99.3 106.62c.21 4.42-2.94 8.19-7.04 8.38-4.12.2-7.62-3.24-7.83-7.68-.21-4.43 2.95-8.19 7.07-8.38 4.1-.2 7.6 3.25 7.81 7.69Z" class="cls-49"/>
    <path id="path299" d="M99.17 106.62c.21 4.35-2.89 8.05-6.92 8.23-4.05.2-7.49-3.18-7.7-7.55-.21-4.36 2.9-8.05 6.94-8.24 4.03-.19 7.47 3.19 7.68 7.55Z" class="cls-43"/>
    <path id="path300" d="M99.04 106.63c.21 4.27-2.84 7.9-6.8 8.09-3.98.19-7.36-3.13-7.56-7.42-.2-4.28 2.85-7.91 6.82-8.1 3.96-.19 7.34 3.13 7.54 7.42Z" class="cls-16"/>
    <path id="path301" d="M98.91 106.64c.2 4.19-2.79 7.76-6.68 7.95-3.91.19-7.23-3.07-7.43-7.29-.2-4.21 2.8-7.77 6.7-7.95 3.89-.19 7.21 3.08 7.41 7.29Z" class="cls-36"/>
    <path id="path302" d="M98.79 106.64c.2 4.12-2.74 7.62-6.56 7.8-3.84.19-7.1-3.02-7.3-7.15-.2-4.13 2.75-7.63 6.58-7.81 3.82-.18 7.08 3.02 7.27 7.16Z" class="cls-48"/>
    <path id="path303" d="M98.66 106.65c.2 4.04-2.69 7.48-6.44 7.66-3.77.18-6.97-2.96-7.16-7.02-.19-4.05 2.7-7.49 6.46-7.66 3.75-.18 6.95 2.97 7.14 7.03Z" class="cls-33"/>
    <path id="path304" d="M98.53 106.65c.19 3.96-2.64 7.34-6.32 7.51-3.7.18-6.84-2.91-7.03-6.89-.19-3.98 2.65-7.34 6.34-7.52 3.68-.18 6.82 2.91 7.01 6.9Z" class="cls-30"/>
    <path id="path305" d="M98.4 106.66c.19 3.89-2.59 7.2-6.19 7.37-3.63.18-6.7-2.85-6.89-6.76-.19-3.9 2.6-7.2 6.22-7.38 3.61-.18 6.69 2.86 6.87 6.77Z" class="cls-37"/>
    <path id="path306" d="M98.27 106.67c.19 3.81-2.54 7.06-6.07 7.23-3.56.17-6.57-2.79-6.76-6.63-.18-3.83 2.55-7.06 6.1-7.23 3.54-.17 6.56 2.8 6.74 6.63Z" class="cls-41"/>
    <path id="path307" d="M98.15 106.67c.18 3.73-2.48 6.92-5.95 7.08-3.48.17-6.44-2.74-6.63-6.5-.18-3.75 2.5-6.92 5.98-7.09 3.47-.17 6.42 2.75 6.6 6.5Z" class="cls-21"/>
    <path id="path308" d="M98.02 106.68c.18 3.66-2.43 6.78-5.83 6.94-3.41.17-6.31-2.68-6.49-6.36-.17-3.67 2.45-6.78 5.85-6.94 3.4-.17 6.29 2.69 6.47 6.37Z" class="cls-10"/>
    <path id="path309" d="M97.89 106.69c.18 3.58-2.38 6.64-5.71 6.79-3.34.17-6.18-2.63-6.36-6.23-.17-3.6 2.4-6.64 5.73-6.8 3.33-.16 6.16 2.64 6.33 6.24Z" class="cls-4"/>
    <path id="path310" d="M97.76 106.69c.17 3.5-2.33 6.5-5.59 6.65-3.27.16-6.05-2.57-6.22-6.1-.17-3.52 2.35-6.5 5.61-6.65 3.26-.16 6.03 2.58 6.2 6.11Z" class="cls-20"/>
    <path id="path311" d="M61.17 111.74c.31 6.26-4.15 11.57-9.95 11.84-5.8.29-10.75-4.58-11.04-10.84-.3-6.27 4.16-11.57 9.96-11.84 5.79-.29 10.74 4.57 11.03 10.83Z" class="cls-46"/>
    <path id="path312" d="M61.04 111.74c.3 6.18-4.1 11.43-9.83 11.7-5.73.28-10.62-4.52-10.91-10.7-.29-6.19 4.11-11.42 9.84-11.69 5.72-.27 10.61 4.52 10.9 10.7Z" class="cls-14"/>
    <path id="path313" d="M60.91 111.75c.3 6.11-4.05 11.29-9.71 11.56-5.66.28-10.49-4.47-10.77-10.57-.29-6.12 4.06-11.28 9.72-11.55s10.48 4.46 10.76 10.57Z" class="cls-25"/>
    <path id="path314" d="M60.79 111.76c.3 6.03-4 11.15-9.59 11.41-5.59.28-10.36-4.41-10.64-10.44-.29-6.04 4.01-11.14 9.6-11.41s10.35 4.4 10.63 10.44Z" class="cls-11"/>
    <path id="path315" d="M60.66 111.76c.29 5.96-3.95 11.01-9.47 11.27-5.52.27-10.23-4.36-10.5-10.31-.28-5.96 3.96-11 9.48-11.26 5.51-.26 10.22 4.35 10.49 10.3Z" class="cls-17"/>
    <path id="path316" d="M60.53 111.77c.29 5.88-3.9 10.87-9.35 11.12-5.45.27-10.09-4.3-10.37-10.18-.28-5.89 3.91-10.86 9.36-11.12s10.09 4.29 10.36 10.17Z" class="cls-28"/>
    <path id="path317" d="M60.4 111.77c.28 5.8-3.85 10.73-9.23 10.98-5.38.27-9.96-4.24-10.24-10.05-.28-5.81 3.85-10.72 9.24-10.97s9.96 4.24 10.23 10.04Z" class="cls-18"/>
    <path id="path318" d="M60.28 111.78c.28 5.73-3.8 10.59-9.11 10.84-5.31.26-9.83-4.19-10.1-9.92-.27-5.74 3.8-10.58 9.12-10.83s9.83 4.18 10.09 9.91Z" class="cls-23"/>
    <path id="path319" d="M60.15 111.79c.28 5.65-3.75 10.45-8.99 10.69-5.24.26-9.7-4.13-9.97-9.78-.27-5.66 3.75-10.44 9-10.69s9.69 4.13 9.96 9.78Z" class="cls-22"/>
    <path id="path320" d="M60.02 111.79c.27 5.58-3.7 10.31-8.87 10.55-5.17.25-9.57-4.08-9.83-9.65-.26-5.58 3.7-10.3 8.87-10.54s9.56 4.07 9.83 9.65Z" class="cls-13"/>
    <path id="path321" d="M59.89 111.8c.27 5.5-3.65 10.17-8.75 10.41-5.1.25-9.44-4.02-9.7-9.52-.26-5.51 3.65-10.16 8.75-10.4s9.43 4.02 9.69 9.51Z" class="cls-24"/>
    <path id="path322" d="M59.77 111.8c.26 5.43-3.6 10.03-8.62 10.26-5.02.25-9.31-3.97-9.57-9.39-.26-5.43 3.6-10.03 8.63-10.26 5.02-.25 9.3 3.96 9.56 9.38Z" class="cls-6"/>
    <path id="path323" d="M59.64 111.81c.26 5.35-3.55 9.89-8.5 10.12-4.95.24-9.18-3.91-9.43-9.26s3.55-9.89 8.51-10.11c4.95-.24 9.17 3.91 9.42 9.25Z" class="cls-44"/>
    <path id="path324" d="M59.51 111.82c.26 5.27-3.5 9.75-8.38 9.97-4.88.24-9.05-3.86-9.3-9.13-.25-5.28 3.5-9.75 8.39-9.97 4.88-.24 9.04 3.85 9.29 9.12Z" class="cls-8"/>
    <path id="path325" d="M59.38 111.82c.25 5.2-3.45 9.61-8.26 9.83-4.81.24-8.91-3.8-9.16-8.99-.25-5.2 3.45-9.61 8.27-9.82 4.81-.24 8.91 3.79 9.16 8.99Z" class="cls-39"/>
    <path id="path326" d="M59.26 111.83c.25 5.12-3.4 9.47-8.14 9.69-4.74.23-8.78-3.75-9.03-8.86-.24-5.13 3.4-9.46 8.15-9.68 4.74-.23 8.78 3.74 9.02 8.86Z" class="cls-32"/>
    <path id="path327" d="M59.13 111.83c.24 5.05-3.35 9.32-8.02 9.54-4.67.23-8.65-3.69-8.89-8.73-.24-5.05 3.35-9.32 8.03-9.54 4.67-.23 8.65 3.68 8.89 8.72Z" class="cls-15"/>
    <path id="path328" d="M59 111.84c.24 4.97-3.3 9.18-7.9 9.4-4.6.23-8.52-3.63-8.76-8.6-.24-4.97 3.3-9.18 7.91-9.39 4.6-.22 8.52 3.63 8.75 8.59Z" class="cls-12"/>
    <path id="path329" d="M58.87 111.85c.24 4.89-3.25 9.04-7.78 9.26-4.53.22-8.39-3.58-8.63-8.47-.23-4.9 3.25-9.04 7.79-9.25 4.53-.22 8.39 3.57 8.62 8.46Z" class="cls-35"/>
    <path id="path330" d="M58.75 111.85c.23 4.82-3.19 8.9-7.66 9.11-4.46.22-8.26-3.52-8.49-8.34-.23-4.82 3.2-8.9 7.67-9.11 4.45-.22 8.26 3.52 8.49 8.33Z" class="cls-29"/>
    <path id="path331" d="M58.62 111.86c.23 4.74-3.14 8.76-7.54 8.97-4.39.22-8.13-3.47-8.36-8.2-.23-4.74 3.15-8.76 7.54-8.96 4.38-.21 8.13 3.46 8.35 8.2Z" class="cls-31"/>
    <path id="path332" d="M58.49 111.86c.23 4.67-3.09 8.62-7.42 8.82-4.32.21-8-3.41-8.22-8.07-.22-4.67 3.1-8.62 7.42-8.82 4.31-.21 8 3.41 8.22 8.07Z" class="cls-7"/>
    <path id="path333" d="M58.36 111.87c.22 4.59-3.04 8.48-7.3 8.68-4.25.21-7.87-3.36-8.09-7.94-.22-4.59 3.05-8.48 7.3-8.67 4.24-.21 7.87 3.35 8.08 7.93Z" class="cls-45"/>
    <path id="path334" d="M58.24 111.88c.22 4.51-2.99 8.34-7.18 8.54-4.18.2-7.74-3.3-7.96-7.81-.21-4.51 3-8.34 7.18-8.53 4.17-.2 7.74 3.3 7.95 7.8Z" class="cls-9"/>
    <path id="path335" d="M58.11 111.88c.21 4.44-2.94 8.2-7.06 8.39-4.11.2-7.6-3.25-7.82-7.68-.21-4.44 2.95-8.2 7.06-8.39 4.1-.2 7.6 3.24 7.82 7.67Z" class="cls-49"/>
    <path id="path336" d="M57.98 111.89c.21 4.36-2.89 8.06-6.93 8.25-4.04.2-7.47-3.19-7.69-7.55-.21-4.36 2.9-8.06 6.94-8.24 4.03-.19 7.47 3.19 7.68 7.54Z" class="cls-43"/>
    <path id="path337" d="M57.85 111.9c.21 4.29-2.84 7.92-6.81 8.11-3.97.19-7.34-3.14-7.55-7.41-.2-4.29 2.85-7.92 6.82-8.1 3.96-.19 7.34 3.13 7.55 7.41Z" class="cls-16"/>
    <path id="path338" d="M57.73 111.9c.2 4.21-2.79 7.78-6.69 7.96-3.89.19-7.21-3.08-7.42-7.28-.2-4.21 2.8-7.78 6.7-7.96 3.89-.19 7.21 3.07 7.41 7.28Z" class="cls-36"/>
    <path id="path339" d="M57.6 111.91c.2 4.13-2.74 7.64-6.57 7.82-3.82.19-7.08-3.03-7.29-7.15-.2-4.13 2.75-7.64 6.58-7.81 3.82-.18 7.08 3.02 7.28 7.14Z" class="cls-48"/>
    <path id="path340" d="M57.47 111.91c.19 4.06-2.69 7.5-6.45 7.68-3.75.18-6.95-2.97-7.15-7.02-.19-4.06 2.69-7.5 6.46-7.67 3.75-.18 6.95 2.96 7.15 7.01Z" class="cls-33"/>
    <path id="path341" d="M57.34 111.92c.19 3.98-2.64 7.36-6.33 7.53-3.68.18-6.82-2.91-7.02-6.89-.19-3.98 2.64-7.36 6.34-7.52 3.68-.17 6.82 2.91 7.01 6.88Z" class="cls-30"/>
    <path id="path342" d="M57.22 111.93c.19 3.91-2.59 7.22-6.21 7.39-3.61.18-6.69-2.86-6.88-6.76-.19-3.9 2.59-7.21 6.22-7.38 3.61-.17 6.69 2.85 6.88 6.75Z" class="cls-37"/>
    <path id="path343" d="M57.09 111.93c.18 3.83-2.54 7.08-6.09 7.24-3.54.17-6.56-2.8-6.75-6.63-.18-3.83 2.54-7.07 6.09-7.24 3.54-.17 6.56 2.8 6.74 6.62Z" class="cls-41"/>
    <path id="path344" d="M56.96 111.94c.18 3.75-2.49 6.94-5.97 7.1-3.47.17-6.42-2.75-6.61-6.49-.18-3.75 2.49-6.93 5.97-7.09 3.47-.16 6.43 2.74 6.61 6.49Z" class="cls-21"/>
    <path id="path345" d="M56.83 111.94c.17 3.68-2.44 6.8-5.85 6.96-3.4.17-6.29-2.69-6.48-6.36-.18-3.68 2.44-6.79 5.85-6.95 3.4-.16 6.3 2.69 6.48 6.35Z" class="cls-10"/>
    <path id="path346" d="M56.71 111.95c.17 3.6-2.39 6.66-5.73 6.81-3.33.16-6.16-2.64-6.35-6.23-.17-3.6 2.39-6.65 5.73-6.8 3.33-.16 6.17 2.63 6.34 6.22Z" class="cls-4"/>
    <path id="path347" d="M56.58 111.96c.17 3.53-2.34 6.52-5.61 6.67-3.26.16-6.03-2.58-6.21-6.1-.17-3.52 2.34-6.51 5.61-6.66 3.26-.15 6.04 2.58 6.21 6.09Z" class="cls-20"/>
    <path id="path348" d="M70.36 49.42c-2.47.11-5.17 1.06-6.23 3.24-.43.9 1.84 3.35 3.31 2.24.91-.7 2.58-2.75 6.37-2.05 1.45.27 4.99 2.39 5.02 1.5.02-.53-4.07-5.14-8.46-4.93ZM33.9 84.91c1.06.35 3.59-3.49 4.82-4.29 3.22-2.11 6.03-.94 7.16-.66 1.77.46 2.43-2.59 1.68-3.25-1.83-1.61-4.67-1.42-7-.58-4.12 1.51-7.16 8.63-6.66 8.79Z" class="cls-53"/>
    <path id="path349" d="M38.23 24.12c-6.97.16-10.85-.89-14.88-4.87-4.23-4.2-2.22-13.67.48-19.03-.11-2.09-13.06 11.44-4.6 20.8 7.62 8.41 19.77 4.64 18.99 3.11Zm80.66 49.35c-3.95-11.47-13.34-10.8-15.66-8.02-1.55-7.73-4.42-21.14-14.68-32.05-12.87-13.87-23.94-15.78-42.57-14.88-17.76.84-14.87-15.69-15.88-14.93-1.01.74-3.47 7.83.25 12.71 4.1 5.57 12.33 5.4 15.41 5.04 9.97-1.21 31.1-1.27 44.3 18.28 6.92 9.79 10.41 24.45 11.1 28.08-.98 1.45-1.54 3.71-2.02 5.16-.33.98 2.5 1.27 3.07-.98.74-5.25 5.71-6.78 10.65-3.51 5.98 3.94 5.9 16.82 1.78 21.52-3.48 3.96-8.64 2.59-8.79 3.23-.15.65 2.65 1.52 5.81 1.12 1.67 5.67-.81 22.48-6.64 32.58-13.66 21.05-32.91 23.19-51.55 19.88-17.57-5.04-25.89-16.2-27.61-19.42 1.34-1.11 2.04-2.9 1.77-3.04-.26-.15-2 1.82-5.11 2.49-10.39 1.54-17.45-7.35-15.82-17.2 1.15-6.68 9.15-5.51 10.81-3.66 1.87 1.53 3.47.36 1.47-1.99-2.43-2.5-6.82-2.87-6.82-2.87s-9.64-22.89-6.72-43.4c2.94-20.69 15.21-29.08 17.31-30.35 2.11-1.27-.46-2.1-3.61-.47-1.94 1-15.06 9.96-17.46 32.75-2.01 12.39 3.24 29.18 7.94 41.99-1.56.08-10.04 6.74-3.99 18.85 5.21 10.4 15.15 10.09 17.18 9.13 3.06 5.44 23.25 24.98 50.53 20.78 27.29-4.19 44.04-27.04 40.89-56.71 0 0 9.5-5.99 4.62-20.11Z" class="cls-53"/>
    <path id="path350" d="M52.79 94.54c1.88-.89 3.44-1.44 1.51-1.98-3.58-1.27-11.72-1.29-17.93 2.46-4.1 2.67 6.99-2.25 11.52-1.28-2.89.96-12.88 9.56-14.34 18.89 5.14-9.19 15.95-16.81 19.24-18.09Zm-34.73 21.14c2.59 0 2.15-.92 1.56-1.2-3.08-2.49-6.92-1.65-8.77.1-1.21 1.26 3.96-1.76 5.22-.09-.87.43-4.69 4.52-.62 8.3-.69-5.34 1.76-6.96 2.61-7.12Zm88.75-35.44c-2.04 1.57-2.26.6-1.97 0 .9-3.85 4.44-5.56 6.97-5.3 1.74.23-4.2 1.05-4.16 3.12.95-.17 6.46.71 5.6 6.19-2.75-4.64-5.67-4.43-6.45-4.01Zm-18.94-2.2c2.19 7.65-.32 15.07-5.58 16.56-5.26 1.52-11.74-3.99-13.92-11.64-2.19-7.66.63-14.93 5.9-16.44 5.26-1.5 11.41 3.86 13.6 11.52Z" class="cls-53"/>
    <path id="path351" d="M86.07 77.81c1.93 6.73.15 13.1-4.45 14.41-4.62 1.31-9.62-3.16-11.53-9.9-1.93-6.73.23-12.93 4.84-14.25 4.6-1.31 9.22 2.99 11.15 9.73Z" class="cls-71"/>
    <path id="path352" d="M87.15 78.48c1.73 5.63-.6 12.02-3.96 13.05-2.04.64-6.26-3.06-7.97-8.7-1.72-5.64-.04-11.16 3.29-12.29 4.22-1.42 6.94 2.3 8.65 7.94Z" class="cls-53"/>
    <path id="path353" d="M77.2 73.74c-1.25.08-2.22 1.37-2.15 2.91.07 1.54 1.16 2.74 2.41 2.67 1.27-.06 2.24-1.35 2.16-2.9-.07-1.53-1.15-2.73-2.42-2.68Zm3.7 3.39c-.51.03-.89.53-.86 1.14.03.62.46 1.1.97 1.07.49-.02.88-.54.84-1.16-.03-.61-.47-1.07-.96-1.06Z" class="cls-71"/>
    <path id="path354" d="M54.99 112.44s-1.55 3.99-4.96 3.64c-1.6-.16-.47 1.85-.47 1.85s1.27.24 2.18-.18c.5 1.56 2.47 14.62 17.61 16.51 16.71 1.97 20.41-13.65 21.08-17.61 2.64.16 2.1-1.18 2.9-2.7-1.09.52-2.58.75-3.47.41-.96-.39-2.18-.93-3.35-2.3-1.8-2.09.81 2.64 1.58 3.35.78.68-2.14 16.87-16.4 16.59-10.69-.18-16.25-7.06-17.53-15.61.99-.85 1.78-2.47.83-3.94Zm9.71-7.58s1.44-2.95 4.42-3.62c1.5-.33 3.38-.09 5.68 1.38-.56-2.02-2.78-4.47-6.45-3.74-3.65.73-4.27 3.39-3.65 5.98Z" class="cls-53"/>
    <path id="path355" fill="url(#Degradado_sin_nombre_11)" fill-rule="evenodd" d="M703.65 267.4c-234.57 62.32-469.13-62.31-703.65 0v-62.31c234.52-62.31 469.08 62.31 703.65 0v62.31Z"/>
    <path id="path356" fill="url(#Degradado_sin_nombre_9)" fill-rule="evenodd" d="M703.81 259.79c-234.58 62.31-469.14-62.32-703.66 0v-62.32c234.52-62.32 469.08 62.32 703.66 0v62.32Z"/>
    <path id="path357" d="M45.93 208.61c0-.38.03-.66.09-.84.06-.18.22-.35.49-.52.19-.12.52-.28.98-.46.46-.18 1-.35 1.59-.53.6-.18 1.23-.36 1.89-.53.66-.17 1.31-.33 1.94-.45.36-.07.88-.16 1.53-.27.66-.1 1.37-.14 2.14-.12.77.01 1.55.12 2.34.31.79.19 1.51.55 2.16 1.08.65.52 1.17 1.23 1.57 2.12.4.9.6 2.06.6 3.51 0 1.58-.27 2.98-.82 4.21-.55 1.23-1.29 2.28-2.22 3.16-.93.88-2.02 1.6-3.27 2.18-1.25.58-2.57 1.01-3.96 1.28-.39.08-.72.14-.99.18-.27.04-.65.08-1.14.13v10.94c0 .38-.07.64-.2.76s-.33.21-.6.27c-1.34.27-2.01.41-3.34.7-.34.04-.56.02-.66-.08-.1-.1-.14-.32-.14-.64v-26.38Zm4.94 11.21c.44 0 .94-.07 1.51-.18.64-.13 1.3-.33 1.98-.58.69-.26 1.31-.64 1.88-1.14.57-.5 1.03-1.16 1.4-1.98.37-.82.55-1.83.55-3.06 0-1.31-.21-2.29-.65-2.94-.43-.65-.94-1.09-1.54-1.32-.6-.22-1.22-.31-1.86-.27-.64.05-1.15.11-1.54.19-.42.08-.75.16-1.01.24-.26.08-.5.17-.71.27v10.78Zm19.31 10.65c-.03.33-.08.56-.16.7-.08.14-.29.23-.61.28-1.2.2-1.8.29-3 .5-.32.05-.53.03-.64-.06-.11-.09-.16-.31-.16-.67v-17.06c0-.62.06-1.11.18-1.46.12-.35.42-.69.88-1.04.64-.48 1.56-.98 2.76-1.46 1.21-.48 2.52-.84 3.93-1.05.56-.09 1.11-.13 1.65-.11.54.01 1.01.11 1.41.28.4.17.72.44.97.8.24.36.36.84.36 1.43s-.17 1.18-.53 1.65-.82.75-1.41.84c-.49.07-.85-.01-1.1-.26-.24-.25-.49-.62-.77-1.01-.15-.22-.38-.44-.62-.66-.24-.22-.65-.29-1.21-.2-.49.07-.86.22-1.12.41-.25.21-.44.44-.56.71-.12.27-.2.54-.22.83-.02.29-.03.56-.03.8v15.8Zm25.83-13.41c.03 1.49-.14 2.95-.51 4.36-.37 1.42-.92 2.68-1.67 3.79-.74 1.12-1.67 2.06-2.77 2.81-1.11.75-2.37 1.22-3.79 1.39-1.34.17-2.55.04-3.62-.39-1.07-.43-1.99-1.08-2.74-1.97-.75-.89-1.34-1.98-1.74-3.27-.41-1.29-.61-2.73-.61-4.31s.21-3.08.63-4.5c.41-1.42 1-2.68 1.77-3.77.77-1.1 1.69-2.01 2.76-2.7 1.07-.7 2.28-1.13 3.62-1.3 1.48-.18 2.77 0 3.86.53 1.09.54 1.98 1.3 2.67 2.27s1.22 2.08 1.57 3.34c.35 1.25.55 2.5.57 3.72Zm-4.75.28c-.1-2.43-.54-4.26-1.32-5.48-.78-1.21-1.72-1.75-2.81-1.61-.64.08-1.19.35-1.67.8-.48.45-.87 1.04-1.19 1.75-.31.71-.56 1.53-.73 2.47-.17.93-.25 1.92-.25 2.95 0 1.15.1 2.21.31 3.19s.5 1.83.86 2.55c.37.71.81 1.25 1.32 1.62.51.37 1.07.52 1.68.44.59-.07 1.12-.34 1.61-.81.49-.47.9-1.08 1.25-1.86.34-.78.6-1.68.77-2.7.17-1.03.23-2.13.18-3.29Zm12.91-9.17v12.62c0 .3.01.67.04 1.1.02.43.11.84.27 1.24.16.4.41.73.75 1s.83.4 1.43.36c.46-.03.85-.03 1.15.02.3.06.46.35.46.9 0 .3-.11.57-.34.8-.23.24-.52.45-.86.62-.34.18-.72.33-1.14.45-.41.12-.8.2-1.17.23-1 .09-1.84-.01-2.48-.3-.65-.29-1.17-.67-1.53-1.12-.51-.65-.82-1.34-.92-2.03-.1-.7-.15-1.37-.15-2.03V208.6c-.7.07-1.05.1-1.75.18-.35.03-.54-.03-.59-.2s-.07-.62-.07-1.32c0-.44.2-.67.62-.72.72-.07 1.08-.11 1.79-.18v-2.28c0-.38.04-.66.13-.85.08-.19.26-.4.53-.65 1.06-.85 1.59-1.28 2.66-2.13.2-.16.34-.26.43-.31.08-.05.16-.08.24-.08.25-.02.39.09.44.35.05.25.07.5.07.75v4.78c1.11-.1 1.67-.15 2.78-.25.2-.02.36 0 .5.02.13.03.2.19.2.49 0 .76-.02 1.23-.07 1.41s-.23.29-.55.31c-1.14.1-1.71.14-2.85.25Zm8.74 7.49c.15 1.4.42 2.53.81 3.37.39.84.82 1.49 1.3 1.95.48.46.98.76 1.5.9s1 .2 1.44.17c.97-.06 1.82-.39 2.54-.98.71-.59 1.34-1.26 1.81-1.99.3-.46.51-.8.66-.98.14-.17.34-.26.59-.27.24-.01.46.08.66.29.19.21.29.52.29.93 0 .19-.05.5-.15.92-.1.43-.25.91-.46 1.45-.21.54-.5 1.11-.86 1.69-.37.58-.82 1.11-1.36 1.61-.54.49-1.17.91-1.9 1.25-.73.34-1.57.55-2.53.62-1.22.08-2.33-.09-3.33-.51-1-.41-1.86-1.07-2.58-1.95-.72-.88-1.28-2-1.68-3.36-.4-1.36-.61-2.94-.61-4.73 0-2.04.25-3.78.73-5.22.49-1.44 1.12-2.63 1.9-3.56.78-.93 1.66-1.63 2.64-2.09.97-.46 1.95-.73 2.92-.8 1.41-.1 2.58.14 3.49.7.91.55 1.64 1.24 2.17 2.05.54.82.9 1.65 1.1 2.5.19.84.29 1.51.29 2 0 .71-.16 1.16-.48 1.35-.31.19-.58.32-.8.36-4.06.89-6.08 1.36-10.14 2.33Zm6.84-4.27c-.07-1.3-.42-2.3-1.04-2.98-.62-.68-1.34-1-2.14-.94-.64.04-1.18.23-1.64.56-.46.33-.85.75-1.16 1.26-.3.51-.54 1.1-.71 1.77-.17.66-.28 1.35-.33 2.06 2.81-.71 4.21-1.06 7.02-1.74Zm17.48-1.83c-.14-.35-.3-.69-.48-1.04-.17-.35-.37-.67-.59-.94-.21-.28-.49-.5-.8-.67-.32-.16-.69-.24-1.13-.22-.57.02-1.07.21-1.52.57s-.85.83-1.19 1.43c-.34.6-.61 1.3-.79 2.1-.18.8-.28 1.64-.28 2.54 0 1.06.12 2.07.35 3.03.23.96.56 1.79.97 2.51.42.72.92 1.28 1.52 1.68.6.4 1.27.59 2 .56.54-.02 1-.13 1.41-.33.4-.2.74-.45 1.04-.75.29-.29.54-.6.74-.92.21-.32.37-.62.5-.85.2-.38.4-.68.55-.87.15-.19.35-.3.63-.3.27 0 .49.11.67.35.18.24.27.59.27 1.06 0 .6-.12 1.3-.38 2.11-.26.81-.66 1.59-1.21 2.34-.55.75-1.27 1.39-2.14 1.92-.87.53-1.92.81-3.14.86-1.29.05-2.42-.21-3.37-.76-.95-.56-1.74-1.34-2.38-2.33-.63-.99-1.11-2.13-1.42-3.44-.32-1.31-.48-2.68-.48-4.12 0-1.36.15-2.72.46-4.08.3-1.36.78-2.59 1.44-3.68.67-1.1 1.51-2 2.55-2.69 1.04-.69 2.3-1.07 3.79-1.12 1.05-.03 1.96.12 2.74.46.78.34 1.43.78 1.94 1.31s.89 1.1 1.14 1.7c.24.6.36 1.15.36 1.65 0 .73-.2 1.31-.62 1.73-.41.42-.86.64-1.35.65-.27 0-.58-.08-.92-.26-.34-.18-.63-.57-.88-1.16Zm16.76-.3c-.14-.35-.31-.71-.48-1.06-.17-.35-.37-.67-.59-.96-.22-.29-.49-.51-.8-.69-.32-.17-.69-.26-1.14-.25-.56 0-1.07.18-1.52.52-.45.35-.85.81-1.19 1.4-.34.59-.6 1.28-.78 2.07-.18.79-.28 1.64-.28 2.53 0 1.06.12 2.08.35 3.04.23.97.56 1.81.97 2.54.42.73.92 1.3 1.52 1.72.6.42 1.26.62 1.99.62.54 0 1.01-.11 1.41-.3.4-.19.75-.43 1.04-.72.29-.29.55-.58.75-.9.21-.31.37-.61.5-.84.2-.37.4-.66.54-.86.15-.19.36-.28.63-.28s.49.12.68.36c.18.25.28.6.28 1.06 0 .59-.13 1.3-.38 2.1-.26.8-.66 1.57-1.21 2.31-.55.74-1.26 1.36-2.14 1.86-.88.51-1.93.77-3.15.78-1.29.01-2.42-.28-3.37-.86-.95-.58-1.75-1.38-2.38-2.39-.64-1.01-1.11-2.16-1.43-3.47-.32-1.32-.48-2.7-.48-4.14 0-1.36.16-2.72.46-4.07.31-1.36.79-2.57 1.44-3.64.66-1.07 1.5-1.95 2.54-2.62 1.04-.67 2.3-1.01 3.79-1.02 1.05 0 1.96.17 2.74.54.78.36 1.43.81 1.94 1.36s.89 1.13 1.13 1.74c.24.61.36 1.17.36 1.65 0 .74-.2 1.31-.62 1.71-.41.41-.86.61-1.35.61-.27 0-.58-.09-.91-.28-.34-.19-.64-.58-.88-1.18Zm11.56-11.1c.03.76-.19 1.38-.64 1.85-.45.47-1.03.7-1.74.7-.78 0-1.39-.25-1.83-.71-.44-.46-.66-1.05-.66-1.76s.21-1.31.64-1.81c.43-.5 1.04-.75 1.85-.74.78 0 1.36.26 1.76.75.39.5.6 1.07.62 1.72Zm-.08 25.76c0 .32-.04.56-.12.69s-.31.2-.67.2c-1.28-.02-1.92-.02-3.19-.03-.29 0-.47-.06-.53-.19-.06-.12-.09-.35-.09-.67v-19.44c0-.3.04-.52.11-.66.07-.13.27-.2.59-.2 1.25 0 1.87.01 3.11.02.34 0 .55.07.64.19.08.12.14.36.16.71v19.35Zm20.45-9.37c.03 1.49-.14 2.93-.51 4.29-.37 1.36-.92 2.54-1.66 3.55-.74 1.01-1.67 1.8-2.78 2.39-1.11.59-2.37.86-3.79.82-1.34-.04-2.55-.36-3.62-.96-1.08-.6-2-1.4-2.74-2.41-.76-1.01-1.34-2.19-1.74-3.54-.4-1.36-.61-2.83-.61-4.41s.2-3.04.62-4.4c.42-1.36 1-2.52 1.77-3.49.77-.98 1.69-1.74 2.76-2.28 1.07-.53 2.28-.77 3.62-.73 1.48.04 2.77.42 3.86 1.12 1.09.7 1.98 1.59 2.67 2.67.7 1.08 1.22 2.27 1.57 3.57.35 1.31.55 2.58.57 3.8Zm-4.75-.43c-.1-2.44-.54-4.34-1.32-5.68-.78-1.33-1.72-2.02-2.82-2.04-.63-.02-1.19.17-1.66.55-.48.38-.87.9-1.19 1.56-.32.66-.56 1.45-.73 2.35-.17.91-.26 1.87-.26 2.91 0 1.14.11 2.22.31 3.23.21 1.01.5 1.91.86 2.68.37.77.8 1.38 1.32 1.83.51.45 1.07.68 1.68.7.59.01 1.12-.17 1.61-.56s.9-.95 1.25-1.68c.34-.72.6-1.59.77-2.59.17-1 .23-2.09.18-3.26Zm-3.08-12.71c-.12.11-.26.22-.4.32-.15.1-.32.15-.51.15-.2 0-.39-.1-.59-.27-.19-.17-.29-.45-.29-.82 0-.41.17-.8.51-1.17 1.16-1.36 1.73-2.04 2.89-3.39.12-.16.28-.32.48-.49.2-.17.43-.25.69-.24.35.01.63.17.86.49.23.32.35.71.35 1.18 0 .44-.08.76-.24.99-.16.22-.32.42-.5.58-1.3 1.06-1.96 1.6-3.26 2.67Zm26.13 24.05c0 .38-.06.62-.19.7-.12.08-.33.12-.62.1-1.16-.07-1.74-.11-2.9-.17-.36-.02-.59-.12-.67-.28-.08-.17-.12-.4-.12-.7v-13.8c0-.4-.01-.86-.05-1.35-.04-.49-.15-.95-.35-1.37-.2-.42-.51-.78-.94-1.09-.43-.31-1.04-.49-1.83-.53-.74-.04-1.32.07-1.72.32-.41.25-.7.55-.89.91-.19.36-.29.73-.32 1.1-.02.38-.03.69-.03.94v14.5c0 .41-.05.67-.17.78-.12.12-.36.17-.69.15-1.15-.06-1.72-.08-2.86-.13-.29-.01-.49-.08-.6-.19-.1-.11-.16-.34-.16-.7v-16.13c0-.41.01-.77.04-1.09.02-.33.09-.63.2-.89.11-.27.28-.51.51-.73s.56-.44.97-.64c.96-.45 1.98-.73 3.01-.85 1.04-.12 2.09-.16 3.17-.1.9.05 1.68.14 2.32.29.65.14 1.18.32 1.61.51.42.19.77.38 1.03.59.26.21.46.38.61.53.41.41.73.83.94 1.27.22.43.39.86.5 1.29.11.43.17.85.2 1.26.02.4.03.79.03 1.14v14.37Zm16.9-8.63c.14 1.43.41 2.59.8 3.49.39.91.82 1.63 1.3 2.16.48.53.98.9 1.5 1.12.52.22 1 .36 1.44.39.97.09 1.82-.11 2.54-.59.71-.48 1.34-1.06 1.81-1.72.3-.42.51-.73.66-.88.14-.15.34-.21.59-.19.24.02.46.15.66.38.19.24.29.56.29.97 0 .19-.05.49-.15.9-.09.42-.24.88-.45 1.39-.21.51-.5 1.03-.86 1.56-.37.52-.82 1-1.36 1.41-.54.41-1.18.73-1.9.97-.73.24-1.57.31-2.52.23-1.22-.1-2.33-.44-3.34-1.01-1-.58-1.86-1.36-2.58-2.35-.72-1-1.28-2.21-1.68-3.62-.4-1.42-.6-3.04-.6-4.83 0-2.04.24-3.74.73-5.1.49-1.36 1.12-2.45 1.9-3.26.78-.81 1.66-1.37 2.63-1.68.98-.31 1.96-.43 2.93-.35 1.41.12 2.58.53 3.49 1.22.91.69 1.64 1.49 2.17 2.38.54.89.9 1.78 1.1 2.66.19.87.29 1.55.29 2.04 0 .71-.16 1.13-.47 1.28-.32.14-.59.23-.8.24-4.06.3-6.08.46-10.13.8Zm6.83-3.21c-.07-1.32-.42-2.36-1.04-3.14-.62-.77-1.34-1.2-2.14-1.26-.64-.05-1.19.05-1.65.31-.46.26-.84.63-1.15 1.09-.3.47-.54 1.02-.71 1.67-.17.64-.28 1.31-.32 2.01 2.8-.28 4.21-.41 7.02-.67Zm13.03-3.15v17.92c0 .44-.06.7-.2.78-.13.08-.32.1-.57.08-1.17-.12-1.75-.17-2.92-.29-.34 0-.57-.07-.67-.22-.09-.14-.14-.41-.14-.79v-17.93c-.78-.07-1.19-.11-1.98-.18-.27-.02-.45-.08-.57-.14-.11-.07-.16-.27-.16-.63 0-.7.03-1.15.09-1.32.06-.17.27-.25.64-.21.79.07 1.19.11 1.97.18.03-.43.06-.91.09-1.43.04-.53.1-1.08.18-1.68.09-.59.2-1.18.37-1.78.16-.6.37-1.19.64-1.72.21-.41.49-.83.8-1.25.31-.42.68-.78 1.1-1.1.41-.31.88-.56 1.4-.72.53-.17 1.1-.22 1.7-.16.68.07 1.22.31 1.61.72.39.41.59.94.59 1.59s-.18 1.14-.55 1.37c-.37.23-.72.33-1.06.3-.12-.01-.35-.07-.68-.16-.33-.09-.56-.14-.68-.15-.56-.06-1.02.14-1.37.58-.35.44-.53 1.15-.53 2.13 0 .16.01.4.04.72.02.31.06.66.13 1.02.06.36.13.73.23 1.12.1.39.23.73.4 1.02 1.13.11 1.69.17 2.82.29.19.02.37.07.51.13.14.07.22.25.22.55v.78c0 .3-.02.47-.03.53-.06.14-.12.25-.22.28-.1.03-.26.04-.48.02-1.1-.11-1.64-.17-2.74-.28Zm8.33 9.02c.15 1.43.42 2.6.81 3.51.39.92.82 1.65 1.3 2.19.48.55.98.93 1.5 1.16.52.23 1.01.38 1.45.42.97.11 1.82-.07 2.54-.53.71-.46 1.35-1.02 1.81-1.67.29-.41.52-.72.66-.87.14-.15.34-.21.58-.18.24.03.46.16.66.4.2.24.3.57.3.97 0 .19-.05.49-.15.9-.1.41-.25.87-.46 1.38-.21.51-.49 1.02-.86 1.54s-.82.98-1.36 1.38c-.54.4-1.17.7-1.9.92-.73.22-1.57.28-2.52.18-1.22-.14-2.33-.5-3.33-1.1-1-.6-1.86-1.4-2.58-2.41-.72-1.02-1.28-2.24-1.68-3.67-.4-1.43-.6-3.05-.6-4.84 0-2.04.24-3.74.73-5.09.49-1.35 1.12-2.42 1.9-3.2.78-.79 1.66-1.34 2.64-1.62.97-.29 1.95-.38 2.93-.28 1.41.16 2.58.6 3.49 1.31.91.71 1.64 1.52 2.18 2.43.54.91.9 1.8 1.09 2.68.2.88.3 1.57.3 2.05 0 .71-.16 1.13-.48 1.27-.31.14-.59.22-.8.22-4.05.2-6.08.31-10.14.55Zm6.85-3.04c-.07-1.32-.42-2.38-1.05-3.16-.62-.79-1.33-1.23-2.13-1.32-.64-.07-1.19.02-1.65.27-.46.25-.84.61-1.15 1.06-.3.46-.54 1-.71 1.64-.17.63-.28 1.3-.33 2 2.81-.2 4.22-.3 7.03-.49Zm17.48 1.04c-.14-.37-.3-.75-.48-1.12-.17-.37-.36-.72-.59-1.03-.22-.31-.48-.58-.8-.79-.31-.22-.69-.35-1.13-.41-.56-.07-1.07.04-1.52.33-.45.29-.85.7-1.19 1.24-.34.55-.61 1.2-.78 1.97-.18.77-.27 1.6-.27 2.5 0 1.06.11 2.09.35 3.08.23 1 .55 1.88.97 2.67.42.78.92 1.43 1.52 1.92.6.5 1.27.79 2 .88.54.06 1.01.03 1.41-.11.4-.14.75-.33 1.04-.59.29-.25.55-.52.75-.81.2-.29.37-.56.49-.77.2-.35.41-.62.55-.79.14-.17.35-.24.62-.21s.5.19.68.45c.18.27.28.64.28 1.1 0 .6-.13 1.28-.39 2.05-.25.77-.66 1.48-1.21 2.15-.55.67-1.26 1.2-2.14 1.6-.88.39-1.93.52-3.15.37-1.3-.16-2.42-.6-3.37-1.31-.95-.71-1.74-1.61-2.38-2.71-.64-1.1-1.11-2.32-1.42-3.67-.32-1.36-.48-2.76-.48-4.2 0-1.37.16-2.7.46-4.01.3-1.31.78-2.46 1.44-3.44.66-.98 1.5-1.74 2.54-2.27s2.3-.7 3.79-.52c1.05.13 1.97.43 2.74.89.78.46 1.42 1 1.94 1.61.51.61.88 1.24 1.13 1.88.24.64.37 1.21.37 1.7 0 .73-.21 1.28-.62 1.64-.42.35-.87.5-1.36.44-.27-.03-.58-.17-.92-.4-.34-.23-.63-.67-.88-1.29Zm11.89-1.88v12.61c0 .3.01.67.04 1.11.02.44.11.87.27 1.3.16.43.41.81.75 1.16.34.35.82.59 1.43.69.45.07.85.15 1.15.28.3.12.46.45.46.99 0 .31-.12.55-.35.73-.23.19-.52.33-.86.44-.34.1-.72.18-1.13.2-.41.03-.8.02-1.17-.03-1-.13-1.83-.42-2.48-.86-.65-.44-1.17-.93-1.53-1.46-.52-.76-.82-1.52-.92-2.24-.1-.72-.14-1.41-.14-2.06v-13.44c-.7-.09-1.05-.13-1.76-.22-.34-.04-.54-.15-.59-.34-.05-.19-.07-.63-.07-1.34 0-.44.21-.63.63-.58.72.09 1.08.14 1.79.23v-2.28c0-.38.04-.65.13-.82.08-.16.26-.34.53-.52 1.07-.61 1.59-.92 2.66-1.54.19-.11.34-.18.42-.21s.16-.04.24-.03c.25.03.4.18.45.44.05.27.07.52.07.76v4.78c1.11.14 1.67.22 2.78.36.19.03.36.07.49.13s.2.24.2.54c0 .76-.03 1.23-.08 1.4-.05.17-.23.23-.54.19-1.15-.15-1.72-.22-2.86-.37Zm10.35-6.38c.02.76-.19 1.36-.64 1.77-.45.42-1.03.57-1.74.48-.78-.11-1.39-.42-1.83-.94-.44-.52-.66-1.13-.66-1.84s.21-1.29.64-1.73c.43-.45 1.04-.62 1.85-.51.78.1 1.36.43 1.76.97.39.54.6 1.15.62 1.8Zm-.07 25.75c0 .33-.04.55-.13.67-.08.12-.31.16-.67.11-1.27-.17-1.91-.26-3.18-.43-.29-.04-.47-.12-.53-.26-.06-.13-.09-.36-.09-.69v-19.43c0-.3.03-.51.11-.64.07-.12.27-.17.59-.13 1.25.17 1.87.25 3.11.42.34.05.56.13.64.27.09.13.14.38.16.74v19.36ZM306.6 231c1.6-5.44 2.4-8.17 3.99-13.61.1-.28.19-.44.29-.48.1-.04.28-.05.56-.01.93.13 1.4.2 2.34.33.12.02.25.06.4.12.15.06.22.21.22.46 0 .19-.05.41-.15.64-2.4 7.38-3.6 11.08-6 18.46-.12.28-.23.46-.31.53-.08.07-.26.09-.53.05-1.01-.14-1.52-.21-2.53-.35-.29-.04-.48-.1-.57-.18-.08-.08-.17-.28-.27-.59-2.5-8.06-3.76-12.08-6.25-20.13-.1-.36-.15-.6-.15-.71 0-.27.08-.42.24-.43.16-.02.3-.03.42 0 1.36.19 2.04.28 3.4.47.27.03.46.1.57.2.11.1.21.32.31.66 1.61 5.84 2.42 8.76 4.03 14.6Zm22.79 5.29c-.02.9-.12 1.61-.3 2.12-.17.52-.61.94-1.32 1.28-.49.23-1.01.38-1.55.47-.55.08-1.08.13-1.59.14-.51 0-.97-.01-1.37-.05-.4-.05-.69-.08-.86-.1-.19-.03-.51-.08-.93-.15-.43-.07-.9-.21-1.42-.39-.53-.19-1.07-.43-1.63-.74-.56-.31-1.07-.71-1.54-1.2-.46-.49-.84-1.09-1.13-1.8-.29-.7-.44-1.53-.44-2.48 0-.47.08-1.07.25-1.81.17-.73.64-1.45 1.36-2.13.39-.37.84-.69 1.35-.95.51-.25 1.1-.47 1.76-.65.66-.18 1.39-.33 2.23-.47.83-.14 1.77-.28 2.81-.43v-2.08c0-.38 0-.79-.04-1.23-.02-.44-.1-.85-.25-1.24-.14-.39-.37-.72-.68-1.01-.3-.29-.73-.47-1.26-.55-.44-.06-.81-.04-1.1.08-.29.12-.53.29-.73.49-.19.2-.35.42-.46.67-.11.24-.21.46-.27.63-.18.47-.39.93-.65 1.32-.25.39-.72.53-1.4.43-.56-.08-1.03-.34-1.41-.8-.38-.44-.57-1-.57-1.65s.17-1.21.52-1.75c.34-.53.83-.99 1.46-1.36.64-.37 1.41-.64 2.31-.79.9-.16 1.9-.16 3 0 1.46.21 2.59.61 3.38 1.19s1.37 1.25 1.73 2.01c.37.76.58 1.56.64 2.39.06.84.09 1.65.09 2.41v10.2Zm-4.32-7c-.7.15-1.37.3-2.02.46-.64.17-1.2.4-1.69.68-.48.29-.86.67-1.14 1.14-.28.48-.42 1.1-.42 1.86 0 1.04.26 1.91.78 2.64.52.73 1.27 1.16 2.23 1.3.56.08.99.05 1.29-.1.3-.15.53-.36.67-.62.14-.27.23-.55.25-.86.03-.31.04-.57.04-.79v-5.72Zm8.96 10.82c-.26-.28-.5-.6-.7-.92-.19-.33-.29-.76-.29-1.31 0-.82.27-1.41.8-1.78.54-.37 1.11-.51 1.72-.42.78.11 1.47.56 2.07 1.34.6.78.89 1.86.89 3.22 0 1.03-.19 1.97-.56 2.81-.38.84-.83 1.56-1.34 2.16-.51.59-1.04 1.04-1.57 1.36-.54.31-.96.45-1.28.4-.29-.04-.51-.17-.66-.38-.14-.21-.22-.43-.22-.65s.04-.4.13-.56c.09-.16.37-.49.75-.97.27-.34.52-.76.75-1.18.23-.41.35-.84.35-1.28 0-.22-.04-.47-.13-.76-.09-.28-.32-.65-.71-1.08Zm18.15-12.52c0-.79.01-1.38.05-1.76.03-.39.19-.74.38-1.03.18-.26.49-.53.94-.74.44-.22.99-.4 1.61-.54.62-.14 1.31-.22 2.06-.26.75-.04 1.54 0 2.34.12.24.03.61.1 1.08.2.48.1 1 .27 1.55.52.57.25 1.15.57 1.76.99.61.41 1.18.96 1.69 1.59.72.9 1.32 2.05 1.78 3.46.44 1.41.67 2.97.67 4.69 0 1.39-.16 2.77-.49 4.16-.33 1.38-.83 2.59-1.5 3.64-.67 1.04-1.51 1.85-2.52 2.42-1.02.57-2.2.76-3.57.56-.64-.09-1.22-.26-1.74-.5s-1.05-.59-1.59-1.05v9.31c0 .33-.05.55-.16.66-.11.1-.3.14-.57.1-1.14-.17-1.71-.25-2.86-.42-.29-.04-.52-.12-.67-.24-.16-.12-.24-.37-.24-.75v-25.11Zm4.5 13.32c.61.5 1.14.84 1.59 1.01.45.17.79.27 1.01.3.68.1 1.29 0 1.8-.34.51-.33.94-.84 1.29-1.51.36-.67.63-1.47.81-2.39.18-.92.28-1.95.28-3.06 0-1.41-.13-2.65-.39-3.69-.25-1.04-.59-1.92-1-2.64-.41-.71-.89-1.26-1.42-1.64-.54-.38-1.1-.61-1.68-.7-.56-.08-1-.05-1.3.1-.3.15-.53.35-.68.62-.14.26-.23.56-.25.9-.02.34-.03.64-.03.91v12.13Zm19.09 5.66c-.02.32-.08.53-.16.65-.08.11-.29.14-.61.09-1.2-.17-1.8-.26-3-.43-.32-.05-.53-.13-.64-.26-.11-.12-.16-.36-.16-.71v-17.07c0-.63.05-1.09.17-1.39.12-.31.42-.57.88-.77.63-.28 1.55-.49 2.76-.6 1.21-.11 2.52-.06 3.94.14.56.08 1.11.21 1.64.38.54.17 1.01.41 1.41.69.4.28.72.65.97 1.08.24.43.36.94.36 1.54s-.17 1.12-.53 1.49c-.35.37-.82.51-1.41.43-.49-.07-.85-.27-1.1-.59-.24-.32-.49-.76-.77-1.23-.15-.27-.38-.55-.62-.84-.24-.29-.65-.48-1.21-.56-.49-.07-.85-.04-1.11.08-.26.12-.45.3-.57.53-.12.23-.19.48-.21.76-.02.28-.04.55-.04.79v15.8Zm25.83-6.3c.03 1.5-.14 2.91-.51 4.23-.37 1.33-.92 2.45-1.66 3.39-.74.93-1.68 1.63-2.78 2.1-1.11.47-2.37.61-3.78.41-1.35-.19-2.56-.65-3.63-1.37-1.07-.72-1.99-1.63-2.74-2.73-.75-1.1-1.33-2.36-1.74-3.76-.4-1.4-.6-2.89-.6-4.47s.2-3.02.62-4.32c.42-1.3 1.01-2.39 1.78-3.27.77-.89 1.68-1.53 2.76-1.94 1.07-.4 2.27-.51 3.61-.32 1.49.21 2.78.72 3.87 1.54 1.08.82 1.98 1.8 2.67 2.94s1.22 2.38 1.57 3.72c.36 1.34.55 2.64.57 3.86Zm-4.76-.91c-.09-2.46-.54-4.4-1.32-5.81-.78-1.41-1.72-2.2-2.81-2.36-.64-.09-1.19.03-1.67.36-.48.33-.87.8-1.19 1.42-.31.62-.56 1.38-.73 2.27-.17.89-.25 1.85-.25 2.88 0 1.15.1 2.23.31 3.27.2 1.04.49 1.97.85 2.78.36.81.81 1.47 1.32 1.98s1.07.8 1.68.89c.59.08 1.12-.04 1.61-.38s.9-.85 1.25-1.54c.34-.69.59-1.52.76-2.5.17-.98.23-2.06.18-3.24Zm12.92-6.06v12.62c0 .3 0 .67.03 1.11.02.44.11.87.28 1.3.15.43.4.82.74 1.17.34.34.83.59 1.43.68.45.07.84.15 1.15.27.31.12.46.45.46 1 0 .3-.11.54-.34.73-.24.19-.52.33-.86.44-.34.1-.72.17-1.14.2-.41.02-.8.02-1.17-.03-1.01-.14-1.84-.43-2.49-.87-.65-.44-1.17-.93-1.53-1.47-.52-.77-.82-1.53-.93-2.25-.09-.72-.15-1.41-.15-2.06v-13.43c-.7-.1-1.05-.15-1.75-.24-.34-.05-.54-.16-.59-.35-.04-.18-.07-.63-.07-1.34 0-.44.21-.62.63-.57.71.1 1.07.15 1.78.25v-2.29c0-.38.05-.65.13-.82.08-.17.26-.34.54-.52 1.06-.61 1.59-.91 2.66-1.52.2-.11.34-.18.43-.21.08-.03.16-.04.24-.03.25.03.39.18.44.45.05.27.07.52.07.77v4.77c1.11.15 1.66.22 2.77.37.2.02.36.07.5.13.13.06.2.24.2.54 0 .77-.02 1.23-.07 1.4-.05.17-.23.23-.55.19-1.14-.15-1.71-.23-2.85-.38Zm8.74 9.36c.15 1.43.41 2.62.81 3.53.39.93.82 1.67 1.3 2.22.47.55.98.95 1.5 1.2.53.24 1 .38 1.44.44.98.12 1.82-.04 2.54-.49.71-.45 1.35-1.01 1.81-1.65.3-.41.52-.71.67-.86.14-.14.34-.2.59-.17.24.03.46.16.66.41.2.24.29.57.29.98 0 .19-.04.49-.14.89-.1.41-.25.88-.46 1.38-.21.51-.5 1.02-.86 1.53-.37.51-.82.97-1.36 1.36-.54.4-1.17.69-1.91.9-.72.21-1.57.25-2.52.13-1.22-.16-2.33-.54-3.33-1.16-1.01-.62-1.87-1.45-2.59-2.48-.71-1.04-1.28-2.27-1.68-3.71-.4-1.44-.6-3.07-.6-4.86 0-2.04.24-3.73.73-5.07.49-1.34 1.12-2.39 1.9-3.16.78-.77 1.66-1.29 2.64-1.56.97-.27 1.95-.34 2.92-.21 1.41.18 2.59.64 3.5 1.37.91.72 1.64 1.54 2.17 2.45.54.91.9 1.81 1.1 2.69.19.88.29 1.56.29 2.05 0 .71-.16 1.13-.47 1.27-.32.14-.59.21-.8.21-4.06.16-6.08.24-10.14.38Zm6.84-2.91c-.08-1.32-.42-2.38-1.05-3.18-.62-.8-1.34-1.25-2.14-1.36-.63-.08-1.19 0-1.64.24-.47.24-.85.59-1.15 1.03-.31.45-.55.99-.72 1.63-.17.63-.28 1.3-.33 2 2.81-.14 4.22-.21 7.03-.36Zm17.48 1.09c-.14-.37-.31-.74-.48-1.12-.17-.38-.36-.71-.59-1.03-.22-.31-.48-.58-.8-.79-.32-.21-.7-.35-1.13-.4-.57-.06-1.07.04-1.52.33-.45.29-.84.7-1.18 1.25-.35.55-.61 1.2-.79 1.97-.18.77-.27 1.6-.27 2.5 0 1.06.11 2.09.34 3.08.24 1 .56 1.88.97 2.67.42.79.92 1.42 1.52 1.91s1.26.78 2 .87c.53.06 1 .02 1.4-.12.4-.14.75-.33 1.04-.59.29-.25.54-.53.75-.81.2-.29.37-.57.5-.78.2-.35.4-.62.54-.79.15-.17.35-.24.63-.21.26.03.49.18.67.44.19.26.28.63.28 1.09 0 .6-.12 1.29-.38 2.06-.25.77-.66 1.5-1.21 2.17-.56.67-1.27 1.21-2.14 1.62-.88.4-1.93.53-3.15.39-1.3-.15-2.42-.59-3.37-1.3-.95-.71-1.74-1.62-2.38-2.72-.63-1.1-1.11-2.32-1.42-3.68-.32-1.36-.48-2.76-.48-4.2 0-1.36.15-2.69.46-4.01.3-1.31.79-2.45 1.44-3.43.66-.99 1.5-1.74 2.54-2.27s2.3-.7 3.79-.53c1.05.12 1.96.41 2.74.87.78.46 1.42.99 1.94 1.59.52.6.89 1.23 1.13 1.86.24.64.37 1.2.37 1.7 0 .73-.2 1.28-.62 1.64-.41.36-.86.52-1.35.46-.27-.03-.58-.16-.92-.39-.34-.23-.64-.66-.88-1.29Zm16.76 1.82c-.14-.36-.31-.73-.47-1.11-.17-.37-.36-.71-.59-1.02-.22-.31-.49-.57-.8-.77-.32-.21-.7-.33-1.14-.38-.57-.06-1.07.06-1.52.35-.45.29-.84.71-1.18 1.26-.35.55-.61 1.21-.79 1.98-.18.76-.28 1.61-.28 2.51 0 1.06.11 2.09.35 3.07.23.99.56 1.87.97 2.65.41.78.92 1.41 1.52 1.9.6.48 1.26.77 1.99.84.53.06 1.01 0 1.41-.14.4-.15.75-.35 1.04-.61.29-.26.54-.53.74-.82.21-.29.37-.57.49-.79.2-.35.41-.62.56-.8.15-.18.35-.25.62-.23.26.03.49.17.67.44.18.27.27.63.27 1.09 0 .6-.13 1.29-.38 2.06s-.66 1.51-1.21 2.19c-.55.68-1.26 1.23-2.14 1.64-.88.41-1.93.56-3.15.43-1.3-.14-2.42-.56-3.37-1.26-.95-.7-1.74-1.6-2.38-2.69-.64-1.09-1.11-2.31-1.42-3.66-.32-1.36-.48-2.76-.48-4.2 0-1.36.15-2.69.46-4 .31-1.32.78-2.47 1.44-3.46.66-.99 1.51-1.75 2.54-2.3 1.04-.54 2.3-.74 3.79-.58 1.05.11 1.97.39 2.74.84.78.45 1.42.96 1.94 1.56.51.59.89 1.21 1.13 1.85.24.63.37 1.2.37 1.69 0 .74-.2 1.29-.62 1.65-.41.37-.86.52-1.36.48-.27-.03-.57-.16-.91-.38-.33-.22-.64-.65-.88-1.28Zm11.56-10.01c.02.76-.18 1.36-.64 1.8-.45.43-1.04.62-1.74.55-.77-.07-1.38-.36-1.83-.87-.44-.5-.66-1.1-.66-1.82s.21-1.29.64-1.75c.43-.46 1.04-.66 1.84-.59.78.07 1.37.37 1.76.91.4.52.6 1.12.63 1.77Zm-.07 25.76c0 .33-.04.55-.13.68-.08.13-.31.18-.67.14-1.28-.12-1.92-.18-3.19-.3-.29-.03-.47-.1-.53-.23-.06-.13-.09-.36-.09-.68v-19.43c0-.3.03-.52.11-.65.07-.13.27-.17.59-.15 1.24.12 1.87.18 3.11.29.34.03.55.12.64.25.08.13.14.37.16.73v19.35Zm20.44-8.25c.02 1.49-.15 2.92-.51 4.27-.37 1.35-.92 2.51-1.67 3.49-.74.98-1.67 1.74-2.78 2.28-1.11.54-2.37.76-3.79.64-1.34-.11-2.54-.5-3.62-1.16-1.07-.66-1.99-1.52-2.74-2.58-.75-1.06-1.33-2.28-1.74-3.66-.39-1.38-.6-2.87-.6-4.45s.21-3.04.62-4.36c.42-1.33 1.01-2.44 1.78-3.37.76-.92 1.69-1.63 2.75-2.09 1.08-.47 2.28-.65 3.63-.54 1.48.12 2.77.56 3.85 1.31 1.09.75 1.98 1.67 2.68 2.77.7 1.1 1.22 2.31 1.58 3.62.34 1.32.54 2.59.56 3.81Zm-4.76-.6c-.1-2.45-.54-4.36-1.32-5.73-.78-1.36-1.72-2.1-2.82-2.19-.63-.05-1.19.1-1.66.45-.48.36-.87.85-1.19 1.5-.32.64-.56 1.41-.73 2.31-.17.9-.25 1.86-.25 2.89 0 1.15.1 2.23.31 3.25.2 1.03.49 1.93.85 2.73.37.79.81 1.43 1.32 1.91.52.48 1.08.74 1.69.79.59.05 1.12-.11 1.61-.48s.9-.91 1.24-1.62c.34-.71.6-1.56.77-2.55.17-.99.23-2.08.18-3.26Zm-3.07-12.85c-.12.1-.25.19-.4.29-.15.1-.32.14-.52.12-.19-.02-.38-.12-.58-.3-.19-.18-.29-.46-.29-.83 0-.41.17-.79.51-1.14 1.16-1.3 1.73-1.95 2.89-3.24.12-.16.27-.31.47-.47.19-.16.42-.23.69-.21.34.03.63.2.86.53.23.33.35.73.35 1.19 0 .44-.08.76-.24.98-.16.22-.32.41-.49.56-1.31 1.01-1.96 1.51-3.27 2.52Zm26.12 24.55c0 .38-.06.61-.18.7-.12.09-.32.12-.61.11l-2.9-.15c-.36-.02-.6-.11-.67-.28-.09-.17-.12-.4-.12-.7v-13.8c0-.41-.02-.86-.05-1.36-.04-.49-.15-.95-.35-1.37-.2-.42-.52-.78-.94-1.09-.43-.31-1.05-.48-1.83-.53-.74-.05-1.32.06-1.72.3-.41.25-.7.55-.89.91-.18.36-.29.72-.32 1.09-.02.38-.03.7-.03.94v14.5c0 .41-.06.67-.18.78-.12.11-.36.16-.69.14-1.15-.07-1.72-.11-2.86-.19-.29-.02-.49-.09-.61-.21-.11-.11-.16-.35-.16-.7v-16.13c0-.41.01-.77.04-1.09.02-.33.09-.62.2-.89.1-.26.28-.5.51-.72.23-.22.56-.42.97-.61.96-.43 1.99-.69 3.02-.81 1.04-.11 2.09-.13 3.16-.07.9.05 1.67.15 2.32.29.65.14 1.18.32 1.61.51.43.19.77.38 1.02.58.26.2.46.38.61.53.42.4.73.82.95 1.26.22.43.39.86.5 1.29.11.43.17.84.2 1.25.02.41.03.79.03 1.14v14.38Zm29.05-2.44c0 .55-.05 1.07-.16 1.58-.11.5-.45 1-1.01 1.43-.31.24-.71.46-1.17.67-.46.21-.97.38-1.51.52-.55.14-1.13.25-1.74.32-.61.07-1.21.1-1.8.08-2.72-.06-4.84-1.04-6.34-2.92s-2.25-4.5-2.25-7.85c0-1.41.17-2.82.51-4.21.35-1.38.86-2.63 1.55-3.73.68-1.1 1.53-1.97 2.54-2.62 1.02-.65 2.2-.96 3.55-.93.86.02 1.53.15 2.04.41.5.25.93.5 1.3.76v-9.68c0-.3.05-.53.14-.71.1-.17.33-.26.7-.25 1.11.02 1.67.03 2.79.04.34 0 .58.06.69.17.12.11.18.36.18.74v26.16Zm-4.51-13.78c-.24-.22-.56-.45-.93-.69-.38-.24-.87-.37-1.46-.38-.7-.01-1.34.18-1.91.59-.57.41-1.05.97-1.44 1.7-.39.73-.68 1.57-.88 2.55-.19.98-.29 2.01-.29 3.09 0 2.59.43 4.6 1.29 6.04.85 1.44 1.98 2.17 3.36 2.2.56.01 1-.08 1.3-.28.31-.2.54-.45.68-.74.15-.3.23-.62.25-.97.02-.36.03-.69.03-1.02v-12.09Zm11.42 7.34c.15 1.42.42 2.56.81 3.43.39.87.82 1.55 1.3 2.04.47.49.98.82 1.5.99.53.18 1 .26 1.44.26.98 0 1.82-.29 2.54-.84s1.35-1.18 1.82-1.89c.29-.45.51-.78.66-.95.15-.17.34-.26.58-.26.25 0 .47.1.67.32.19.22.29.53.29.94 0 .19-.05.49-.14.91-.1.42-.26.9-.47 1.44-.2.53-.49 1.09-.85 1.65-.37.56-.83 1.08-1.36 1.55-.54.47-1.17.85-1.91 1.16-.73.31-1.57.47-2.52.47-1.22 0-2.33-.24-3.33-.73s-1.87-1.21-2.58-2.15c-.72-.95-1.28-2.11-1.68-3.5-.4-1.39-.6-2.99-.6-4.79 0-2.04.24-3.76.73-5.15.49-1.4 1.12-2.53 1.9-3.4.78-.87 1.66-1.5 2.64-1.89.98-.39 1.95-.6 2.93-.6 1.41 0 2.58.29 3.49.89.91.6 1.63 1.32 2.17 2.15.54.84.9 1.69 1.1 2.54.19.85.29 1.52.29 2.02 0 .71-.16 1.15-.47 1.33-.32.18-.59.29-.8.32-4.06.73-6.09 1.07-10.14 1.73Zm6.84-3.82c-.07-1.31-.42-2.32-1.04-3.04-.62-.71-1.33-1.07-2.14-1.07-.64 0-1.19.15-1.65.45-.46.3-.85.69-1.16 1.18-.3.49-.55 1.06-.71 1.71-.17.66-.29 1.34-.34 2.04 2.81-.5 4.22-.75 7.03-1.29Zm37.82-7.49c-2.88 8.1-4.32 12.14-7.21 20.2-.14.36-.27.61-.37.73-.11.13-.3.2-.58.22-.26.01-.47-.04-.62-.17-.14-.13-.28-.36-.4-.71-2.89-7.71-4.33-11.57-7.21-19.32v19.6c0 .35-.06.59-.18.69-.12.11-.32.18-.6.19-.88.04-1.31.06-2.19.1-.31.01-.52-.04-.62-.16-.1-.12-.14-.37-.14-.75v-27.03c0-.33.04-.55.16-.68.11-.13.31-.2.6-.21 1.39-.05 2.09-.08 3.48-.15.34-.01.57.02.69.12.12.09.25.32.39.69 2.84 7.31 4.26 10.96 7.1 18.24 2.75-7.59 4.12-11.4 6.87-19.03.14-.39.28-.65.4-.76.12-.12.35-.19.69-.22 1.42-.1 2.13-.16 3.55-.28.29-.02.5 0 .61.07.11.07.16.28.16.64v27.19c0 .38-.05.63-.18.74-.11.1-.35.16-.69.19-1.17.1-1.76.14-2.93.23-.33.03-.56-.02-.66-.13-.1-.12-.14-.37-.14-.75v-19.51Zm21.74 14.08c-.03.9-.13 1.64-.3 2.2-.17.56-.61 1.1-1.32 1.62-.49.36-1.01.64-1.55.87-.55.22-1.09.4-1.59.54-.51.13-.97.24-1.37.29-.4.05-.68.09-.85.1-.2.02-.51.04-.93.07-.43.03-.91.02-1.43-.04-.53-.06-1.07-.18-1.63-.35-.56-.18-1.07-.46-1.53-.84-.46-.38-.84-.89-1.13-1.53-.29-.64-.44-1.43-.44-2.39 0-.46.09-1.08.26-1.86.17-.77.64-1.6 1.36-2.45.39-.47.84-.89 1.35-1.27.51-.37 1.1-.74 1.75-1.07.66-.34 1.41-.67 2.24-1.02.83-.34 1.77-.71 2.81-1.13v-2.08c0-.38 0-.79-.03-1.22-.02-.43-.11-.83-.26-1.18-.15-.35-.38-.63-.68-.84-.3-.22-.72-.3-1.26-.24-.44.04-.8.16-1.1.36-.29.19-.54.42-.73.67-.2.25-.35.51-.46.78-.11.27-.2.5-.27.7-.18.52-.38 1.02-.65 1.47-.25.45-.72.7-1.4.77-.57.05-1.03-.1-1.41-.47-.37-.36-.58-.87-.58-1.52s.17-1.24.52-1.86c.35-.61.83-1.19 1.47-1.71.63-.52 1.4-.97 2.3-1.35.89-.37 1.9-.61 3-.73 1.46-.15 2.59-.05 3.38.33.79.37 1.36.9 1.74 1.56.37.67.58 1.41.64 2.23.06.82.1 1.62.1 2.38v10.2Zm-4.33-5.89c-.7.32-1.37.65-2.02.97-.64.33-1.21.69-1.69 1.09-.49.4-.86.87-1.14 1.41-.29.55-.43 1.2-.43 1.97 0 1.04.26 1.85.78 2.45.52.6 1.27.86 2.24.76.56-.05.99-.2 1.29-.42s.53-.48.67-.78c.14-.3.23-.61.26-.92.02-.31.03-.58.03-.8v-5.72Zm7.98-7.25c0-.44 0-.79.03-1.08.02-.29.06-.54.11-.75.05-.21.14-.41.28-.59.12-.18.3-.38.52-.6.36-.35.82-.66 1.36-.95.54-.29 1.08-.54 1.66-.76.57-.23 1.14-.41 1.7-.56.56-.14 1.06-.24 1.5-.3.9-.12 1.67-.15 2.32-.08.65.07 1.19.19 1.63.37.44.18.79.39 1.06.63.27.23.61.6.66.6.12 0 .61-.71 1.02-1.11.41-.4 1.03-.81 1.86-1.21.52-.25 1.04-.44 1.57-.59.54-.16 1.08-.27 1.63-.36.78-.13 1.56-.17 2.31-.12.76.05 1.45.29 2.05.73.43.32.78.72 1.02 1.17.24.45.42.91.53 1.38.11.47.18.93.2 1.39.02.46.04.86.04 1.19v14.04c0 .29-.05.53-.15.68-.1.15-.29.25-.58.3-1.2.21-1.81.32-3.01.52-.32.06-.52.02-.63-.08-.09-.11-.14-.33-.14-.69v-13.35c0-.44-.02-.91-.06-1.42-.03-.51-.14-.97-.33-1.37-.18-.4-.47-.72-.86-.94-.4-.22-.95-.27-1.66-.16-.49.08-.91.23-1.26.44-.34.22-.61.47-.81.7-.38.45-.65.9-.71 1.36-.06.46-.1 1.02-.1 1.67v14.01c0 .32-.04.56-.12.71-.09.15-.28.24-.6.29-1.16.18-1.74.27-2.9.44-.29.04-.51.03-.66-.04s-.22-.31-.22-.69v-13.64c0-.33 0-.72-.04-1.2-.02-.47-.12-.91-.31-1.34-.18-.42-.48-.77-.87-1.04s-.94-.36-1.65-.26c-.14.01-.43.09-.83.21-.41.12-.8.42-1.2.88-.41.49-.67.99-.75 1.49-.08.5-.12 1.05-.12 1.65v14.01c0 .38-.05.63-.16.75s-.32.2-.64.25c-1.16.15-1.74.22-2.9.37-.34.04-.55 0-.65-.12-.1-.12-.14-.33-.14-.63v-16.17Zm42.06 5.62c-.02.9-.12 1.65-.29 2.23-.17.58-.61 1.16-1.32 1.75-.49.4-1 .74-1.55 1.02s-1.08.51-1.59.7c-.51.19-.97.33-1.36.42-.41.09-.7.16-.86.19-.2.04-.51.09-.94.16-.42.07-.9.11-1.42.09-.53 0-1.08-.07-1.63-.19-.56-.12-1.07-.35-1.53-.69-.46-.33-.84-.81-1.14-1.42-.29-.61-.44-1.39-.44-2.35 0-.46.08-1.09.25-1.88.17-.79.64-1.66 1.35-2.58.4-.5.84-.97 1.36-1.4.51-.42 1.1-.84 1.76-1.24.66-.4 1.4-.81 2.23-1.23.83-.42 1.77-.89 2.81-1.4v-2.08c0-.38 0-.79-.04-1.21-.02-.43-.1-.82-.25-1.16-.14-.34-.37-.59-.67-.78-.31-.18-.72-.22-1.26-.11-.44.09-.8.24-1.1.46-.29.22-.54.47-.73.74-.19.27-.34.55-.45.82-.11.28-.21.52-.28.72-.18.54-.39 1.06-.64 1.54-.26.47-.72.77-1.4.9-.57.1-1.03 0-1.41-.32-.38-.32-.57-.81-.57-1.47s.18-1.26.52-1.92c.34-.65.82-1.26 1.46-1.84.63-.58 1.4-1.11 2.3-1.57.9-.46 1.9-.8 3-1.02 1.46-.3 2.59-.31 3.39 0 .79.3 1.37.76 1.74 1.39.37.63.58 1.35.64 2.17.05.82.09 1.61.09 2.37v10.2Zm-4.31-5.46c-.7.39-1.37.78-2.02 1.16-.64.39-1.21.81-1.69 1.26-.48.45-.86.96-1.14 1.53-.27.58-.42 1.24-.42 2 0 1.04.26 1.83.78 2.38.52.55 1.27.73 2.23.54.56-.11.99-.3 1.29-.55.3-.25.53-.54.67-.86.14-.32.23-.63.25-.95.03-.32.04-.58.04-.8v-5.72Zm-1.24-12.73c-.12.13-.26.27-.4.41-.15.14-.31.23-.51.27-.2.04-.39 0-.59-.13-.19-.12-.29-.37-.29-.76 0-.41.17-.85.51-1.29 1.15-1.62 1.73-2.43 2.89-4.06.12-.19.29-.39.48-.61.19-.22.43-.35.7-.4.34-.07.62.02.85.29.23.26.35.62.35 1.09 0 .44-.08.78-.24 1.04-.15.27-.32.5-.49.7-1.3 1.38-1.95 2.07-3.25 3.44Z" class="cls-71"/>
  </g>
  <g id="g357" fill="none" transform="rotate(24.93 131.02604 1429.43006) scale(1.77249)">
    <path id="path1" fill="url(#paint0_radial)" d="M16.1315 3.71436c-1.7143 0-3.2286.86285-4.1315 2.17714-.9028-1.31429-2.41711-2.17714-4.13139-2.17714-2.76572 0-5.01143 2.24571-5.01143 5.01142C2.85718 14.8344 12 20.3258 12 20.3258s9.1429-5.4914 9.1429-11.60002c0-2.76571-2.2457-5.01142-5.0114-5.01142z"/>
    <path id="path2" fill="url(#paint1_radial)" d="M18.2056 4.16016c2.7429 4.37142.2172 10.10854-2.8171 11.73714-3.3486 1.8-5.64003.9543-10.38288-1.7371 2.70285 3.5828 6.99428 6.16 6.99428 6.16s9.1429-5.4915 9.1429-11.60004c0-2.02286-1.2058-3.77143-2.9372-4.56z" opacity=".5"/>
    <path id="path3" fill="url(#paint2_radial)" d="M16.1315 3.71436c-1.7143 0-3.2286.86285-4.1315 2.17714-.9028-1.31429-2.41711-2.17714-4.13139-2.17714-2.76572 0-5.01143 2.24571-5.01143 5.01142C2.85718 14.8344 12 20.3258 12 20.3258s9.1429-5.4914 9.1429-11.60002c0-2.76571-2.2457-5.01142-5.0114-5.01142z" opacity=".5"/>
    <path id="path4" fill="url(#paint3_radial)" d="M16.1315 3.71436c-1.7143 0-3.2286.86285-4.1315 2.17714-.9028-1.31429-2.41711-2.17714-4.13139-2.17714-2.76572 0-5.01143 2.24571-5.01143 5.01142C2.85718 14.8344 12 20.3258 12 20.3258s9.1429-5.4914 9.1429-11.60002c0-2.76571-2.2457-5.01142-5.0114-5.01142z" opacity=".5"/>
    <path id="path5" fill="url(#paint4_radial)" d="M10.7486 5.74883c.5028 1.18286-.6115 2.78857-2.49146 3.58286-1.88.79431-3.80571.48571-4.30857-.69143C3.44571 7.46312 4.56 5.85169 6.44 5.0574c1.88-.79428 3.8057-.49143 4.3086.69143Z" opacity=".24"/>
    <path id="path6" fill="url(#paint5_radial)" d="M16.8742 4.78885c.7143.78857.2743 2.34857-.9771 3.48-1.2515 1.13143-2.8458 1.41143-3.56.62285-.7143-.78857-.2743-2.34857.9771-3.47999 1.2514-1.13143 2.8457-1.41143 3.56-.62286z" opacity=".24"/>
    <path id="path7" fill="url(#paint6_linear)" d="M16.2229 5.04578c2.5143.85715 4.9143 4.57143.8572 9.20002-2.4286 2.7714-5.08 4.1714-8.45144 3.6228 1.82284 1.52 3.37714 2.4572 3.37714 2.4572s9.1429-5.4914 9.1429-11.60002c-.0058-2.76571-2.2515-5.01142-5.0172-5.01142-1.7143 0-3.2286.86285-4.1314 2.17714 0 0 2.3828-1.47429 4.2228-.84572z" opacity=".32"/>
  </g>
</svg>
